/* XPM */
static char * basalt_top_xpm[] = {
"64 64 102 2",
"  	c #29353F",
". 	c #29343F",
"+ 	c #1C2733",
"@ 	c #1B2632",
"# 	c #222E39",
"$ 	c #24303B",
"% 	c #25313C",
"& 	c #2E3B44",
"* 	c #28343E",
"= 	c #26323C",
"- 	c #242F3A",
"; 	c #232E39",
"> 	c #202B36",
", 	c #334049",
"' 	c #3B4851",
") 	c #35414B",
"! 	c #1F2A35",
"~ 	c #1F2A36",
"{ 	c #212C38",
"] 	c #1E2935",
"^ 	c #1C2732",
"/ 	c #1D2834",
"( 	c #323F48",
"_ 	c #323E48",
": 	c #232F3A",
"< 	c #222D39",
"[ 	c #2E3B45",
"} 	c #333F49",
"| 	c #212C37",
"1 	c #3A4750",
"2 	c #37434D",
"3 	c #27333E",
"4 	c #2C3943",
"5 	c #313D47",
"6 	c #36424C",
"7 	c #303D46",
"8 	c #293540",
"9 	c #2A3640",
"0 	c #1E2934",
"a 	c #39464F",
"b 	c #34404A",
"c 	c #2C3842",
"d 	c #26313C",
"e 	c #34414B",
"f 	c #303C46",
"g 	c #24303A",
"h 	c #37444D",
"i 	c #2C3841",
"j 	c #222E38",
"k 	c #344049",
"l 	c #2D3A44",
"m 	c #34414A",
"n 	c #3A464F",
"o 	c #202B37",
"p 	c #38454E",
"q 	c #27333D",
"r 	c #2E3A44",
"s 	c #2F3B45",
"t 	c #25313B",
"u 	c #1D2934",
"v 	c #1F2B36",
"w 	c #212D38",
"x 	c #2B3742",
"y 	c #3A4751",
"z 	c #36434C",
"A 	c #202C37",
"B 	c #26323D",
"C 	c #2D3943",
"D 	c #2B3741",
"E 	c #35424B",
"F 	c #1D2833",
"G 	c #2C3942",
"H 	c #28343F",
"I 	c #2A3740",
"J 	c #1B2732",
"K 	c #313E47",
"L 	c #28333E",
"M 	c #1E2A35",
"N 	c #222D38",
"O 	c #2A3741",
"P 	c #39454F",
"Q 	c #35414A",
"R 	c #2D3942",
"S 	c #27323D",
"T 	c #25303B",
"U 	c #333F48",
"V 	c #232F39",
"W 	c #1C2833",
"X 	c #3A4650",
"Y 	c #2B3842",
"Z 	c #242F3B",
"` 	c #2A3641",
" .	c #38444E",
"..	c #2F3C46",
"+.	c #313D46",
"@.	c #313E48",
"#.	c #303C45",
"$.	c #232E3A",
"%.	c #26333D",
"&.	c #25323C",
"*.	c #39454E",
"=.	c #2E3A43",
"                  . + @ @ # $ $ $ $ $ % &   . * = - ; ; > + @ @ @ @ @ @ @ @ + # $ $ $ , ' ' ' )                                 ",
"                    ! @ @ ~ $ $ $ $ $ $ % { ] + + ^ @ @ @ @ @ @ @ @ @ @ @ / # $ $ $ $ ( ' ' ' _                                 ",
"                    ; @ @ + $ $ $ $ $ $ $ $ $ $ $ $ : : < < < < < < : : $ $ $ $ $ $ $ [ ' ' ' }                                 ",
"                    | @ @ @ : $ $ $ $ $ $ $ $ $ $ $ $ $ $ $ $ $ $ $ $ $ $ $ $ $ $ $ $ = 1 ' ' }                                 ",
"                  * + @ @ + $ $ $ $ $ $ $ $ $ $ $ $ $ $ % % % % $ $ $ $ $ $ $ $ $ $ $ $ ( ' ' 2                                 ",
"                  - @ @ @ > $ $ $ $ $ $ % % 3 4 5 5 5 , 6 6 _ 7   > : $ $ $ $ $ $ $ $ $ 8 1 ' 1 9                               ",
"                . 0 @ @ @ : $ $ $ $ % ( a 1 1 1 a b ( c 9         d / # $ $ $ $ $ $ $ $ $ e ' ' f                               ",
"                g @ @ @ ~ $ $ $ $ % ) ' ' h ( i 9                   j + # $ $ $ $ $ $ $ $ 9 1 ' k                               ",
"              * / @ @ ^ : $ $ $ $ l ' ' m 9                           ~ + # $ $ $ $ $ $ $ $ e ' n 9                             ",
"              # @ @ @ o $ $ $ $ 3 1 ' p 9                             q + + : $ $ $ $ $ $ $ 8 1 ' r                             ",
"            q + @ @ / $ $ $ $ $ m ' ' s                                 t @ u : $ $ $ $ $ $ $ } ' k                             ",
"            v @ @ @ w $ $ $ $ x y ' z                                     A @ ] $ $ $ $ $ $ $ B 1 1 9                           ",
"          - @ @ @ ~ $ $ $ $ % z ' 1 C                                     * / @ v $ $ $ $ $ $ $ & ' f                           ",
"        d + @ @ / $ $ $ $ $ D ' ' )                                         t @ @ w $ $ $ $ $ $ % z E                           ",
"; ; o F @ @ @ + # $ $ $ $ $ b ' 1 G                                           > @ + : $ $ $ $ $ $ H a I                   . * t ",
"@ @ @ @ @ @ J < $ $ $ $ $ % 1 ' E                                             q + @ ~ $ $ $ $ $ $ $ c K   . . L g ; ; o F + + @ ",
"@ @ J / M o # $ $ $ $ $ $ c ' ' f                                               | @ + $ $ $ $ $ $ $ $ q # / + + + @ @ @ @ @ @ @ ",
"$ $ $ $ $ $ $ $ $ $ $ $ $ 5 ' 1 D                                               N @ @ $ $ $ $ $ $ $ $ $ $ $ $ $ $ $ $ $ $ $ $ $ ",
"$ $ $ $ $ $ $ $ $ $ $ $ $ O ' ' K                                               M @ + $ $ $ $ $ $ $ $ $ $ $ $ $ $ $ $ $ $ $ $ $ ",
"H B $ $ $ $ $ $ $ $ $ $ $ % p ' b                                             . + @ v $ $ $ $ $ $ $ % % % % % 3 H H H H H H H H ",
"5 C 9   ; A $ $ $ $ $ $ $ $ 5 ' n 9                                           L + @ | $ $ $ $ $ $ c a 1 1 1 1 1 1 1 1 P E ( ( ( ",
"        * ] M $ $ $ $ $ $ $ q 1 ' C                                           - @ @ : $ $ $ $ $ 8 1 ' ' 1 Q } K c 9 9 9         ",
"          t @ M $ $ $ $ $ $ $ } ' }                                           N @ / $ $ $ $ $ % z ' ' 6 9                       ",
"            A @ v $ $ $ $ $ $ 8 1 p 9                                         F @ A $ $ $ $ $ K ' ' a 9                         ",
"            L + @ w $ $ $ $ $ $ b ' R                                       S J @ : $ $ $ $ 9 1 ' ' f                           ",
"              : @ @ # $ $ $ $ $ 8 1 }                                       j @ ] $ $ $ $ % 6 ' ' z 9                           ",
"              . ] @ / : $ $ $ $ $ , p 9                                   * + @ w $ $ $ $ 4 ' ' 1 C                             ",
"                t @ @ M $ $ $ $ $ 3 a R                             . * T v @ / $ $ $ $ % 2 ' ' m                               ",
"                  > @ @ w $ $ $ $ $ r U               . * d V ; N ] + + @ @ @ w $ $ $ $ C ' ' 1 D                               ",
"                  = @ @ W $ $ $ $ $ % _   B - ; ; o F + + ^ @ @ @ @ @ @ @ + o $ $ $ $ t E ' ' b                                 ",
"                    > @ @ o $ $ $ $ $ t : w o o o o o A w w < : : $ $ $ $ $ $ $ $ $ $ 3 1 ' 1 c                                 ",
"                    % @ @ + $ $ $ $ $ $ $ $ $ $ $ $ $ $ $ $ $ $ $ $ $ $ $ $ $ $ $ $ $ f ' ' E                                   ",
"                    * + @ @ # $ $ $ $ $ $ $ $ % % % % % % % % % % % % % % % $ $ $ $ $ ( ' ' _                                   ",
"                    . + @ @ : $ $ $ $ $ % 5 m a 1 1 1 1 1 1 1 1 1 1 1 X p E f Y Z $ t E ' ' f                                   ",
"                    * + @ J $ $ $ $ $ % ) ' ' ' ' ' ' 1 1 p b } } K C 9 9 9 9   w $ $ 5 ' ' }                                   ",
"                    g @ @ M $ $ $ $ $ C ' ' ' 1 E } s 9 9 9                     ; { $ ` ' ' 2                                   ",
"                    ; @ @ o $ $ $ $ B a ' '  .D                                 = / $ % h ' 1 9                                 ",
"                    > @ @ ; $ $ $ $ _ ' ' 1 r                                   * + A $ ..' ' +.                                ",
"                  . + @ + $ $ $ $ * 1 ' ' m                                       > / $ = 1 ' Q                                 ",
"                  = @ @ v $ $ $ $ , ' ' 1 D                                       ; @ w $ _ ' 1 9                               ",
"                  ; @ @ N $ $ $ . 1 ' ' }                                         B @ ] $ 3 1 ' f                               ",
"                  ] @ + $ $ $ $ , ' ' 1 9                                         . + @ # $ _ ' m                               ",
"                q ^ @ v $ $ $ * 1 ' ' }                                             | @ ~ $ 3 1 1 9                             ",
"                j @ @ # $ $ $ _ ' ' 1 I                                             ; @ + $ $ @.' #.                            ",
"              q + @ ] $ $ $ B 1 ' ' k                                               B @ @ A $ B a m                             ",
"    . * q - ; ] @ @ < $ $ $ f ' ' 1 c                                               . + @ / $ $ r 1 9                           ",
"; v + + ^ @ @ @ @ ] $ $ $ % p ' ' E                                                   > @ @ $.$ % E f                 . * S - ; ",
"@ @ @ @ @ @ @ @ u : $ $ $ x ' ' ' f                                                   ; @ @ o $ $ 3 K   . * t ; ; N ] + + @ @ @ ",
"o o w < $.: $ $ $ $ $ $ $ _ ' ' a 9                                                   t @ @ F $ $ $ = { A A A o o o o o o o o o ",
"$ $ $ $ $ $ $ $ $ $ $ $ % a ' ' ,                                                     * + @ @ : $ $ $ $ $ $ $ $ $ $ $ $ $ $ $ $ ",
"$ $ $ $ $ $ $ $ $ $ $ $ % 1 ' ' }                                                       F @ @ A $ $ $ $ $ $ $ $ $ $ $ $ $ $ $ $ ",
"5 5 ..x %.% $ $ $ $ $ $ % 1 ' ' }                                                       > @ @ v $ $ $ $ $ % r 5 5 K } _ 5 5 5 5 ",
"1 a Q ( _ r # $ $ $ $ $ t E ' ' E                                                     * / @ @ v $ $ $ $ % E ' ' ' ' ' ' ' ' ' 1 ",
"9 9         | < $ $ $ $ $ C ' ' 1 9                                                   g @ @ @ # $ $ $ &.6 ' ' ' 1 1 *.b } ( =.9 ",
"            $ W : $ $ $ $ % 2 ' ' &                                                 * F @ @ M $ $ $ &.6 ' ' 1 ( D 9 9           ",
"            * + ~ $ $ $ $ $ C ' ' }                                                 | @ @ + : $ $ % E ' ' 1 s                   ",
"              N @ # $ $ $ $ % z ' a 9                                             t @ @ @ w $ $ % E ' ' 1 s                     ",
"              % @ ] $ $ $ $ $ Y ' ' R                                           * / @ @ ] $ $ % m ' ' ' f                       ",
"              . F @ N $ $ $ $ t ) ' }                                           > @ @ + : $ $ s ' ' ' m                         ",
"                N @ / $ $ $ $ $ . 1 p 9                                       V @ @ @ < $ $ c 1 ' ' 2 9                         ",
"                d @ @ w $ $ $ $ $ _ 1 R                                     d + @ @ v $ $ 8 1 ' ' 1 c                           ",
"                . + @ / $ $ $ $ $ % p }                                   = + @ @ ] $ $ % z ' ' ' f                             ",
"                  N @ @ w $ $ $ $ $ c p 9                               = / @ @ / : $ $ } ' ' ' z 9                             ",
"                  g @ @ u $ $ $ $ $ $ b r                       = ; ; ! ^ @ @ J # $ $ D 1 ' ' ' C                               "};
