/* XPM */
static char * bookshelf_01_xpm[] = {
"64 64 619 2",
"  	c #9E7449",
". 	c #9D7348",
"+ 	c #835A32",
"@ 	c #9C7247",
"# 	c #845B33",
"$ 	c #754C24",
"% 	c #875E36",
"& 	c #774E26",
"* 	c #795028",
"= 	c #835A31",
"- 	c #865D35",
"; 	c #744C24",
"> 	c #744B24",
", 	c #734B24",
"' 	c #8F663C",
") 	c #634020",
"! 	c #603E1F",
"~ 	c #5F3E1F",
"{ 	c #593A1E",
"] 	c #58391E",
"^ 	c #55371E",
"/ 	c #52351D",
"( 	c #50351D",
"_ 	c #4B311C",
": 	c #462E1B",
"< 	c #452D1A",
"[ 	c #462D1B",
"} 	c #472D1B",
"| 	c #4B331E",
"1 	c #9B7248",
"2 	c #8F663D",
"3 	c #4A301B",
"4 	c #412A1A",
"5 	c #412B1A",
"6 	c #6B2D21",
"7 	c #A5312D",
"8 	c #A7312D",
"9 	c #AA312E",
"0 	c #AE322F",
"a 	c #A8312D",
"b 	c #9A2620",
"c 	c #8B271E",
"d 	c #452A1A",
"e 	c #48301D",
"f 	c #49301B",
"g 	c #402A19",
"h 	c #442A1A",
"i 	c #482A1A",
"j 	c #4A2A1B",
"k 	c #492A1A",
"l 	c #432A19",
"m 	c #B73332",
"n 	c #DC363A",
"o 	c #DB3539",
"p 	c #CA2124",
"q 	c #C52023",
"r 	c #54291A",
"s 	c #47301D",
"t 	c #7D3224",
"u 	c #A6302D",
"v 	c #B33230",
"w 	c #C03434",
"x 	c #C73435",
"y 	c #C33334",
"z 	c #A72623",
"A 	c #98251E",
"B 	c #66281A",
"C 	c #3F2918",
"D 	c #3F2A18",
"E 	c #393D16",
"F 	c #2F6012",
"G 	c #2D6B11",
"H 	c #2D6A11",
"I 	c #2D5410",
"J 	c #393616",
"K 	c #452A19",
"L 	c #B93332",
"M 	c #C62023",
"N 	c #5C281A",
"O 	c #462F1C",
"P 	c #A9352E",
"Q 	c #CC2427",
"R 	c #C92023",
"S 	c #97241E",
"T 	c #3E2818",
"U 	c #344515",
"V 	c #0E8A08",
"W 	c #098D07",
"X 	c #088E07",
"Y 	c #088D07",
"Z 	c #017600",
"` 	c #0B7102",
" .	c #472F19",
"..	c #C63435",
"+.	c #E23F44",
"@.	c #E44147",
"#.	c #C72023",
"$.	c #6A261B",
"%.	c #462E1C",
"&.	c #AA372E",
"*.	c #98241E",
"=.	c #3D2817",
"-.	c #314B13",
";.	c #0A8C07",
">.	c #007600",
",.	c #067301",
"'.	c #462E18",
").	c #DC363B",
"!.	c #E54348",
"~.	c #E7454B",
"{.	c #6C261A",
"].	c #442E1B",
"^.	c #AC392E",
"/.	c #E03C41",
"(.	c #E34046",
"_.	c #DE393D",
":.	c #992823",
"<.	c #5D514A",
"[.	c #7F766F",
"}.	c #605652",
"|.	c #3E2A1D",
"1.	c #3C2717",
"2.	c #304A13",
"3.	c #089707",
"4.	c #09A108",
"5.	c #09A408",
"6.	c #089A07",
"7.	c #452E18",
"8.	c #E44247",
"9.	c #6C251A",
"0.	c #432D1B",
"a.	c #AC382E",
"b.	c #E7464C",
"c.	c #B36A66",
"d.	c #F6F7F7",
"e.	c #FAFBFB",
"f.	c #E0E8F5",
"g.	c #6A6363",
"h.	c #3B2616",
"i.	c #2F4A13",
"j.	c #09A008",
"k.	c #0AB009",
"l.	c #099F08",
"m.	c #442D17",
"n.	c #6C241A",
"o.	c #432D1A",
"p.	c #AB382E",
"q.	c #E03D42",
"r.	c #B97672",
"s.	c #FBFCFB",
"t.	c #FDFFFF",
"u.	c #E4ECFA",
"v.	c #736D6F",
"w.	c #3A2516",
"x.	c #2C5711",
"y.	c #442C17",
"z.	c #C82023",
"A.	c #80231B",
"B.	c #422C1A",
"C.	c #E13E43",
"D.	c #B97671",
"E.	c #726D6F",
"F.	c #392415",
"G.	c #2A5910",
"H.	c #099C08",
"I.	c #432C16",
"J.	c #412B19",
"K.	c #B97571",
"L.	c #736E70",
"M.	c #372415",
"N.	c #2A5810",
"O.	c #057301",
"P.	c #422B16",
"Q.	c #C63335",
"R.	c #80221A",
"S.	c #402B19",
"T.	c #B87571",
"U.	c #E5EDFB",
"V.	c #898A92",
"W.	c #362314",
"X.	c #295810",
"Y.	c #09A308",
"Z.	c #007700",
"`.	c #412B15",
" +	c #7F221A",
".+	c #442D1B",
"++	c #AE3C2F",
"@+	c #8A8B93",
"#+	c #352214",
"$+	c #2A4C10",
"%+	c #098C07",
"&+	c #402A15",
"*+	c #DC373B",
"=+	c #7F211A",
"-+	c #4A321E",
";+	c #9C7248",
">+	c #8A8A93",
",+	c #342113",
"'+	c #2A4710",
")+	c #099808",
"!+	c #0AAF09",
"~+	c #402914",
"{+	c #DD383C",
"]+	c #7F201A",
"^+	c #49311E",
"/+	c #332012",
"(+	c #29470F",
"_+	c #089708",
":+	c #0AAE09",
"<+	c #0AAC09",
"[+	c #3E2914",
"}+	c #C63334",
"|+	c #7F2019",
"1+	c #49311D",
"2+	c #B87471",
"3+	c #898A93",
"4+	c #321F12",
"5+	c #29460F",
"6+	c #089007",
"7+	c #088F07",
"8+	c #047301",
"9+	c #3B2813",
"0+	c #BE3233",
"a+	c #7E1F19",
"b+	c #4F3721",
"c+	c #B87470",
"d+	c #311E11",
"e+	c #28460F",
"f+	c #372712",
"g+	c #B63031",
"h+	c #DF3B40",
"i+	c #E23F45",
"j+	c #563B24",
"k+	c #9C7348",
"l+	c #E6454B",
"m+	c #B77470",
"n+	c #301E10",
"o+	c #27450E",
"p+	c #362711",
"q+	c #B63030",
"r+	c #553B24",
"s+	c #B24230",
"t+	c #B77370",
"u+	c #898992",
"v+	c #2F1D10",
"w+	c #26450E",
"x+	c #352611",
"y+	c #7D1E18",
"z+	c #888992",
"A+	c #2E1C0F",
"B+	c #25450D",
"C+	c #037301",
"D+	c #322A10",
"E+	c #5D4128",
"F+	c #2D1B0F",
"G+	c #24440D",
"H+	c #027300",
"I+	c #2F2F0E",
"J+	c #B53030",
"K+	c #7E1D18",
"L+	c #65482C",
"M+	c #878992",
"N+	c #2B1A0E",
"O+	c #23440D",
"P+	c #2E2E0E",
"Q+	c #B52F30",
"R+	c #951D1A",
"S+	c #64472B",
"T+	c #B67270",
"U+	c #878892",
"V+	c #2A190E",
"W+	c #22430C",
"X+	c #2D2D0E",
"Y+	c #961D1A",
"Z+	c #64472C",
"`+	c #B6726F",
" @	c #868891",
".@	c #29190D",
"+@	c #22420C",
"@@	c #2D2D0D",
"#@	c #961C1A",
"$@	c #735333",
"%@	c #28180D",
"&@	c #24330C",
"*@	c #0A8E07",
"=@	c #0B8D08",
"-@	c #037601",
";@	c #B43130",
">@	c #DB383A",
",@	c #DA393A",
"'@	c #DA393B",
")@	c #DA383A",
"!@	c #C92626",
"~@	c #C72825",
"{@	c #96251E",
"]@	c #342213",
"^@	c #785736",
"/@	c #B14532",
"(@	c #DA3A3B",
"_@	c #D93A3A",
":@	c #CA2B29",
"<@	c #C52D28",
"[@	c #B27068",
"}@	c #EDE8E4",
"|@	c #F0EBE7",
"1@	c #D8D7DB",
"2@	c #8A807D",
"3@	c #513822",
"4@	c #5C4127",
"5@	c #62462B",
"6@	c #63472B",
"7@	c #765535",
"8@	c #755A35",
"9@	c #738034",
"0@	c #738234",
"a@	c #758035",
"b@	c #777E36",
"c@	c #767535",
"d@	c #767435",
"e@	c #7F6039",
"f@	c #A06342",
"g@	c #B06545",
"h@	c #AA6A46",
"i@	c #A96C47",
"j@	c #A86B47",
"k@	c #A56944",
"l@	c #A07248",
"m@	c #9E7248",
"n@	c #875E35",
"o@	c #A17248",
"p@	c #9F744A",
"q@	c #A27B55",
"r@	c #A07952",
"s@	c #9D744B",
"t@	c #8B6239",
"u@	c #8B633A",
"v@	c #8C633A",
"w@	c #936940",
"x@	c #946A40",
"y@	c #966C42",
"z@	c #986E44",
"A@	c #996F44",
"B@	c #8F653C",
"C@	c #764D25",
"D@	c #774E27",
"E@	c #825931",
"F@	c #6E4823",
"G@	c #6E4723",
"H@	c #6B4622",
"I@	c #694421",
"J@	c #684421",
"K@	c #644121",
"L@	c #7A5530",
"M@	c #452D1B",
"N@	c #442D1A",
"O@	c #432C1A",
"P@	c #452C1B",
"Q@	c #4E2C1C",
"R@	c #512C1C",
"S@	c #4C2B1A",
"T@	c #432B1A",
"U@	c #7B5937",
"V@	c #402E27",
"W@	c #3E363A",
"X@	c #324D68",
"Y@	c #2E5D8A",
"Z@	c #2D6499",
"`@	c #2D6397",
" #	c #314D6B",
".#	c #3B373D",
"+#	c #402E26",
"@#	c #422B1A",
"##	c #832E25",
"$#	c #B23230",
"%#	c #CF3537",
"&#	c #D83639",
"*#	c #D73538",
"=#	c #BE2223",
"-#	c #9D251F",
";#	c #805837",
">#	c #2E5F8F",
",#	c #0682CB",
"'#	c #0283CD",
")#	c #0084CE",
"!#	c #0084CF",
"~#	c #0179C0",
"{#	c #0574B9",
"]#	c #2E5785",
"^#	c #B33231",
"/#	c #8E5838",
"(#	c #5F3D1F",
"_#	c #2C6499",
":#	c #007AC1",
"<#	c #0076BC",
"[#	c #2C5A8A",
"}#	c #452919",
"|#	c #955738",
"1#	c #5E3D1F",
"2#	c #3D2E18",
"3#	c #344B14",
"4#	c #2D6412",
"5#	c #2D6212",
"6#	c #363C15",
"7#	c #3E2918",
"8#	c #2B6399",
"9#	c #008FD3",
"0#	c #0093D5",
"a#	c #0095D5",
"b#	c #007BC2",
"c#	c #2B5A8A",
"d#	c #442819",
"e#	c #B83232",
"f#	c #965738",
"g#	c #5E3D1E",
"h#	c #2C6911",
"i#	c #0B8C07",
"j#	c #077302",
"k#	c #353814",
"l#	c #542C2A",
"m#	c #B2436E",
"n#	c #B84572",
"o#	c #B64370",
"p#	c #AE3B62",
"q#	c #8F344E",
"r#	c #2E6399",
"s#	c #0086D0",
"t#	c #00A7DC",
"u#	c #00A9DD",
"v#	c #007CC2",
"w#	c #2A598A",
"x#	c #432818",
"y#	c #A35739",
"z#	c #2A6A10",
"A#	c #0AA609",
"B#	c #099E08",
"C#	c #027501",
"D#	c #2F4012",
"E#	c #B54470",
"F#	c #F5589B",
"G#	c #F35698",
"H#	c #E64986",
"I#	c #E04782",
"J#	c #41649A",
"K#	c #00A8DC",
"L#	c #29598A",
"M#	c #412718",
"N#	c #A45739",
"O#	c #5D3C1E",
"P#	c #0AAB09",
"Q#	c #2E4011",
"R#	c #B84472",
"S#	c #E24783",
"T#	c #28598A",
"U#	c #412617",
"V#	c #B83231",
"W#	c #296A0F",
"X#	c #2D4011",
"Y#	c #40649A",
"Z#	c #402517",
"`#	c #E23E44",
" $	c #5D3C1D",
".$	c #286A0F",
"+$	c #2C4110",
"@$	c #E24782",
"#$	c #27598A",
"$$	c #3F2416",
"%$	c #B73131",
"&$	c #276A0F",
"*$	c #017501",
"=$	c #284B0E",
"-$	c #B74472",
";$	c #F65CA0",
">$	c #F663A7",
",$	c #F666AB",
"'$	c #F45FA2",
")$	c #40639A",
"!$	c #26598A",
"~$	c #3E2416",
"{$	c #B25739",
"]$	c #5C3B1D",
"^$	c #266A0E",
"/$	c #0AA808",
"($	c #274B0D",
"_$	c #F872B8",
":$	c #F873B9",
"<$	c #F567AB",
"[$	c #E74986",
"}$	c #3F639A",
"|$	c #25598A",
"1$	c #3C2315",
"2$	c #B5573A",
"3$	c #09A708",
"4$	c #264A0D",
"5$	c #B74372",
"6$	c #F661A5",
"7$	c #00A8DD",
"8$	c #00A6DC",
"9$	c #24588A",
"0$	c #3C2215",
"a$	c #C92123",
"b$	c #B2593B",
"c$	c #25690E",
"d$	c #352113",
"e$	c #F660A3",
"f$	c #0085CF",
"g$	c #0091D4",
"h$	c #008DD2",
"i$	c #0088D0",
"j$	c #007AC2",
"k$	c #3B2114",
"l$	c #E03C42",
"m$	c #AF5B3D",
"n$	c #5B3B1C",
"o$	c #25690D",
"p$	c #254A0C",
"q$	c #342012",
"r$	c #F569AD",
"s$	c #3E639A",
"t$	c #23588A",
"u$	c #3A2013",
"v$	c #B73031",
"w$	c #DE383D",
"x$	c #DE3A3E",
"y$	c #5B3A1C",
"z$	c #24690D",
"A$	c #244A0C",
"B$	c #F56AAE",
"C$	c #E74987",
"D$	c #22588A",
"E$	c #392013",
"F$	c #23690D",
"G$	c #09A608",
"H$	c #017500",
"I$	c #23490B",
"J$	c #B74272",
"K$	c #F65EA2",
"L$	c #3D639A",
"M$	c #21588A",
"N$	c #381F12",
"O$	c #C82224",
"P$	c #AC5F3F",
"Q$	c #22690C",
"R$	c #B74271",
"S$	c #F65DA0",
"T$	c #20588A",
"U$	c #371E12",
"V$	c #C82324",
"W$	c #AA6140",
"X$	c #5A3A1C",
"Y$	c #21690C",
"Z$	c #22490A",
"`$	c #F872B7",
" %	c #361D11",
".%	c #5C3B1C",
"+%	c #21480A",
"@%	c #B64271",
"#%	c #F5599C",
"$%	c #F55B9E",
"%%	c #F35799",
"&%	c #3C629A",
"*%	c #1F578A",
"=%	c #321C10",
"-%	c #AD2E2E",
";%	c #5E3C1D",
">%	c #20480A",
",%	c #1E578A",
"'%	c #2F1B10",
")%	c #AA2D2D",
"!%	c #C82525",
"~%	c #A56844",
"{%	c #20690B",
"]%	c #1F4809",
"^%	c #2C1A0E",
"/%	c #3B629A",
"(%	c #1D578A",
"_%	c #2E1A0F",
":%	c #1F690B",
"<%	c #1E4709",
"[%	c #2A1A0E",
"}%	c #1C578A",
"|%	c #2D1A0F",
"1%	c #AA2C2D",
"2%	c #1E690B",
"3%	c #1D4708",
"4%	c #B54170",
"5%	c #1B578A",
"6%	c #2C190E",
"7%	c #AA2C2C",
"8%	c #1E690A",
"9%	c #96375B",
"0%	c #F3579A",
"a%	c #3A629A",
"b%	c #1A578A",
"c%	c #2B180E",
"d%	c #77512D",
"e%	c #756E34",
"f%	c #738134",
"g%	c #737533",
"h%	c #756134",
"i%	c #995C52",
"j%	c #CE677A",
"k%	c #D0677B",
"l%	c #CE6679",
"m%	c #C7616D",
"n%	c #C4616B",
"o%	c #796B7A",
"p%	c #737C9F",
"q%	c #737C9E",
"r%	c #737795",
"s%	c #737591",
"t%	c #74676F",
"u%	c #A4593D",
"v%	c #C05B42",
"w%	c #B6573A",
"x%	c #B4583A",
"y%	c #9F7348",
"z%	c #825A32",
"A%	c #8A6138",
"B%	c #865D34",
"                                                                                                                            . + ",
"    . . . . . . . . . . . . . . . . . . . . . . . . . . . . . . . . . . . . . . . . . . . . . . . . . . . . . . . . . . . @ # $ ",
"    % & & & & & & & & & & & & & & & & & & & & & & & & & & & & & & & & & & & & & & & & & & & & & & & & & & & & & & & & & * = $ $ ",
"    - $ $ $ $ $ $ $ ; ; ; ; ; ; > > > > > > > > > > > > , , , , , , , , , , , , , , , , , , , , , , , , , , , , , , , ; ' ' $ $ ",
"    - ; ) ! ! ! ~ { ] ] ] ] ] ^ / / / / / ( _ _ _ _ _ _ : < < < < < < < < < < < < < < < < < < < < < [ } [ < < < < < < | 1 2 $ $ ",
"    - > 3 4 4 4 4 4 4 4 4 4 4 4 4 4 4 4 4 4 4 4 4 4 4 4 4 4 4 4 4 4 4 4 4 4 4 4 4 4 4 4 4 4 5 6 7 8 9 0 a b c d 4 4 4 e 1 2 $ $ ",
"    - > f g h i j k l g g g g g g g g g g g g g g g g g g g g g g g g g g g g g g g g g g g d m n n n n o p q r g g g s 1 2 $ $ ",
"    - > t u v w x y z A B C C C C C C C C C C C C C C C C C C C C C C C C C D E F G G H I J K L n n n n o p M N C C C O 1 2 $ $ ",
"    - > P n n n n o Q R S T T T T T T T T T T T T T T T T T T T T T T T T T U V W X X Y Z `  ...n n +.@.n p #.$.T T T %.1 2 $ $ ",
"    - > &.n n n n o Q R *.=.=.=.=.=.=.=.=.=.=.=.=.=.=.=.=.=.=.=.=.=.=.=.=.=.-.;.X X X Y >.,.'.x n ).!.~.n p #.{.=.=.=.].1 2 $ $ ",
"    - > ^.n n /.(._.Q R :.<.[.}.|.1.1.1.1.1.1.1.1.1.1.1.1.1.1.1.1.1.1.1.1.1.2.;.3.4.5.6.>.,.7.x n n 8.~.n p #.9.1.1.1.0.1 2 $ $ ",
"    - > a.n n +.b./.Q R c.d.e.f.g.h.h.h.h.h.h.h.h.h.h.h.h.h.h.h.h.h.h.h.h.h.i.;.j.k.k.l.>.,.m.x n n 8.~.n p #.n.h.h.h.o.1 2 $ $ ",
"    - > p.n n +.b.q.Q R r.s.t.u.v.w.w.w.w.w.w.w.w.w.w.w.w.w.w.w.w.w.w.w.w.w.x.W j.k.k.l.>.,.y...n n 8.~.n p z.A.w.w.w.B.1 2 $ $ ",
"    - > p.n n C.b.C.Q R D.s.t.u.E.F.F.F.F.F.F.F.F.F.F.F.F.F.F.F.F.F.F.F.F.F.G.W H.k.k.l.>.,.I...n n @.~.n p z.A.F.F.F.J.1 2 $ $ ",
"    - > p.n n q.b.C.Q R K.s.t.u.L.M.M.M.M.M.M.M.M.M.M.M.M.M.M.M.M.M.M.M.M.M.N.W H.k.k.j.>.O.P.Q.n n (.~.n p z.R.M.M.M.S.1 2 $ $ ",
"    - > ^.n n q.b.C.Q R T.s.t.U.V.W.W.W.W.W.W.W.W.W.W.W.W.W.W.W.W.W.W.W.W.W.X.W H.k.k.Y.Z.O.`.Q.n n (.~.n p z. +W.W.W..+1 2 $ $ ",
"    - ; ++n n q.b.C.Q R T.s.t.U.@+#+#+#+#+#+#+#+#+#+#+#+#+#+#+#+#+#+#+#+#+#+$+%+H.k.k.Y.Z.O.&+Q.n n (.~.*+p z.=+#+#+#+-+;+2 $ $ ",
"    - ; ++n n q.b.C.Q R T.s.t.U.>+,+,+,+,+,+,+,+,+,+,+,+,+,+,+,+,+,+,+,+,+,+'+%+)+!+k.Y.Z.O.~+Q.n n (.b.{+p z.]+,+,+,+^+;+2 $ $ ",
"    - ; ++n n q.b.C.Q R T.s.t.U.>+/+/+/+/+/+/+/+/+/+/+/+/+/+/+/+/+/+/+/+/+/+(+%+_+:+<+l.Z.O.[+}+n n +.b.{+p z.|+/+/+/+1+;+2 $ $ ",
"    - ; ++n n q.b.C.Q R 2+s.t.U.3+4+4+4+4+4+4+4+4+4+4+4+4+4+4+4+4+4+4+4+4+4+5+%+X 6+7+X >.8+9+0+n n +.b.{+p z.a+4+4+4+b+;+2 $ $ ",
"    - ; ++n n q.b.C.Q R c+s.t.U.V.d+d+d+d+d+d+d+d+d+d+d+d+d+d+d+d+d+d+d+d+d+e+%+X X X Y >.8+f+g+n n h+i+*+p z.a+d+d+d+j+k+2 $ $ ",
"    - ; ++n n /.l+C.Q R m+s.t.U.V.n+n+n+n+n+n+n+n+n+n+n+n+n+n+n+n+n+n+n+n+n+o+%+X X X Y >.8+p+q+n n n n o p z.a+n+n+n+r+k+2 $ $ ",
"    - $ s+n n n *+n Q R t+s.t.U.u+v+v+v+v+v+v+v+v+v+v+v+v+v+v+v+v+v+v+v+v+v+w+%+X X X Y >.8+x+q+n n n n o p z.y+v+v+v+r+k+2 $ $ ",
"    - $ s+n n n n o Q R t+s.t.U.z+A+A+A+A+A+A+A+A+A+A+A+A+A+A+A+A+A+A+A+A+A+B+%+X X X Y >.C+D+q+n n n n o p z.y+A+A+A+E+. 2 $ $ ",
"    - $ s+n n n n o Q R t+s.t.U.z+F+F+F+F+F+F+F+F+F+F+F+F+F+F+F+F+F+F+F+F+F+G+%+X X X Y >.H+I+J+n n n n o p z.K+F+F+F+L+. 2 $ $ ",
"    - $ s+n n n n o Q R t+s.t.U.M+N+N+N+N+N+N+N+N+N+N+N+N+N+N+N+N+N+N+N+N+N+O+%+X X X Y >.H+P+Q+n n n n o p R R+N+N+N+S+. 2 $ $ ",
"    - $ s+n n n n o Q R T+s.t.U.U+V+V+V+V+V+V+V+V+V+V+V+V+V+V+V+V+V+V+V+V+V+W+%+X X X Y >.H+X+Q+n n n n o p R Y+V+V+V+Z+. 2 $ $ ",
"    - $ s+n n n n o Q R `+s.t.U. @.@.@.@.@.@.@.@.@.@.@.@.@.@.@.@.@.@.@.@.@.@+@%+X X X Y >.H+@@Q+n n n n o p R #@.@.@.@$@  2 $ $ ",
"    - $ s+n n n n o Q R `+s.t.U. @%@%@%@%@%@%@%@%@%@%@%@%@%@%@%@%@%@%@%@%@%@&@;.X X *@=@-@O.P+;@>@>@,@'@)@!@~@{@]@]@]@^@  2 $ $ ",
"    - $ /@(@(@(@(@_@:@<@[@}@|@1@2@3@3@4@5@5@6@$@7@7@7@7@7@7@7@7@7@7@7@7@7@7@8@9@0@0@a@b@c@d@e@f@g@g@h@i@j@k@l@m@1 1 1 .   2 $ $ ",
"    % n@m@o@o@o@o@o@l@l@p@q@q@r@s@k+k+. . . .                                                                             2 $ $ ",
"    ' t@u@u@u@u@u@u@u@u@u@u@u@u@u@u@u@u@u@u@u@v@' 2 2 2 2 2 2 2 w@x@x@x@x@x@x@x@y@z@z@z@z@z@z@z@A@k+. . . . . . . . . . . B@$ $ ",
"    - $ $ $ $ $ $ $ $ $ $ $ $ $ $ $ $ $ $ $ $ $ $ $ $ $ $ $ $ $ C@C@C@C@C@C@C@C@C@& & & & & & & & & & & & & & & & & & D@E@n@$ $ ",
"    - $ ; > > , , , , , , , , , , , , , , , , , , , , , , , F@G@G@G@H@I@I@I@J@K@K@K@K@) ! ! ! ! ! ! ! ! ! ! ! ! ! ! ! L@. 2 $ $ ",
"    - $ ) _ f M@< < < < < < < < < < < < < < < < < < < < < < N@N@N@N@N@O@O@O@O@O@O@O@O@B.B.B.B.B.B.B.B.B.P@Q@R@R@R@S@T@U@  2 $ $ ",
"    - $ ~ 5 5 5 5 5 5 5 5 5 5 5 5 5 5 5 5 5 5 5 5 5 5 5 5 5 5 V@W@X@Y@Z@`@ #.#+#5 5 5 5 5 5 5 5 5 5 @###$#%#&#&#*#=#-#;#  2 $ $ ",
"    - $ ~ g g g g g g g g g g g g g g g g g g g g g g g g g g >#,#'#)#!#!#~#{#]#g g g g g g g g g g h ^#n n n n o p M /#  2 $ $ ",
"    - $ (#C C C C C C C C C C C C C C C C C C C C C C C C C C _#!#!#!#!#!#:#<#[#C C C C C C C C C C }#L n n n n o p #.|#  2 $ $ ",
"    - $ 1#2#3#4#5#6#7#T T T T T T T T T T T T T T T T T T T T 8#!#!#9#0#a#b#<#c#T T T T T T T T T T d#e#n n n n o p #.f#  2 $ $ ",
"    - $ g#h#i#7+Y j#k#=.=.=.=.=.=.=.=.=.=.=.=.l#m#n#n#n#o#p#q#r#!#s#t#u#t#v#<#w#=.=.=.=.=.=.=.=.=.=.x#e#n n n n o p z.y#  2 $ $ ",
"    - $ g#z#7+A#B#C#D#1.1.1.1.1.1.1.1.1.1.1.1.E#F#F#F#F#G#H#I#J#!#s#K#u#t#v#<#L#1.1.1.1.1.1.1.1.1.1.M#e#n n n *+o p z.N#  2 $ $ ",
"    - $ O#z#7+P#l.C#Q#h.h.h.h.h.h.h.h.h.h.h.h.R#F#F#F#F#G#H#S#J#!#s#K#u#t#v#<#T#h.h.h.h.h.h.h.h.h.h.U#V#n n C.l+n p z.N#  2 $ $ ",
"    - $ O#W#7+P#l.C#X#w.w.w.w.w.w.w.w.w.w.w.w.R#F#F#F#F#G#H#S#Y#!#s#K#u#t#v#<#T#w.w.w.w.w.w.w.w.w.w.Z#V#n n `#~.n p z.y#  2 $ $ ",
"    - $  $.$7+P#l.C#+$F.F.F.F.F.F.F.F.F.F.F.F.R#F#F#F#F#G#H#@$Y#!#s#K#u#t#v#<##$F.F.F.F.F.F.F.F.F.F.$$%$n n q.l+n p z.N#  2 $ $ ",
"    - $  $&$7+P#l.*$=$M.M.M.M.M.M.M.M.M.M.M.M.-$F#;$>$,$'$H#@$)$!#s#K#u#t#v#<#!$M.M.M.M.M.M.M.M.M.M.~$%$n n q.l+n p R {$  2 $ $ ",
"    - $ ]$^$7+/$l.*$($W.W.W.W.W.W.W.W.W.W.W.W.-$F#>$_$:$<$[$@$}$!#s#K#u#t#v#<#|$W.W.W.W.W.W.W.W.W.W.1$%$n n q.l+n p R 2$  2 $ $ ",
"    - $ ]$^$7+3$l.*$4$#+#+#+#+#+#+#+#+#+#+#+#+5$F#6$:$:$<$[$@$}$!#s#t#7$8$v#<#9$#+#+#+#+#+#+#+#+#+#+0$%$n n q.l+n p a$b$  2 $ $ ",
"    - $ ]$c$7+3$l.*$4$d$d$d$d$d$d$d$d$d$d$d$d$5$F#e$_$:$<$[$@$}$!#f$g$h$i$j$<#9$d$d$d$d$d$d$d$d$d$d$k$%$n n l$l+n p a$m$  2 $ $ ",
"    - $ n$o$7+3$l.*$p$q$q$q$q$q$q$q$q$q$q$q$q$5$F#e$_$:$r$[$@$s$!#!#!#!#!#:#<#t$q$q$q$q$q$q$q$q$q$q$u$v$n n w$x$o p a$m$  2 $ $ ",
"    - $ y$z$7+3$l.*$A$4+4+4+4+4+4+4+4+4+4+4+4+5$F#e$_$:$B$C$@$s$!#!#!#!#!#:#<#D$4+4+4+4+4+4+4+4+4+4+E$g+n n n n o p a$m$  2 $ $ ",
"    - $ y$F$7+G$l.H$I$d+d+d+d+d+d+d+d+d+d+d+d+J$F#K$_$:$B$C$@$L$!#!#!#!#!#:#<#M$d+d+d+d+d+d+d+d+d+d+N$g+n n n n o p O$P$  2 $ $ ",
"    - $ y$Q$X 7+X H$I$n+n+n+n+n+n+n+n+n+n+n+n+R$F#S$_$:$B$C$@$L$!#!#!#!#!#:#<#T$n+n+n+n+n+n+n+n+n+n+U$q+n n n n o p V$W$  2 $ $ ",
"    - $ X$Y$X X Y H$Z$v+v+v+v+v+v+v+v+v+v+v+v+R$F#;$`$_$r$[$@$L$!#!#!#!#!#:#<#T$v+v+v+v+v+v+v+v+v+v+ %q+n n n n o p V$W$  2 $ $ ",
"    - $ .%Y$X X Y H$+%A+A+A+A+A+A+A+A+A+A+A+A+@%F##%K$$%%%H#@$&%!#!#!#!#!#:#<#*%A+A+A+A+A+A+A+A+A+A+=%-%n n n n o p V$W$  2 $ $ ",
"    - $ ;%Y$X X Y H$>%F+F+F+F+F+F+F+F+F+F+F+F+@%F#F#F#F#G#H#@$&%!#!#!#!#!#:#<#,%F+F+F+F+F+F+F+F+F+F+'%)%n n n n o p !%~%  2 $ $ ",
"    - $ ;%{%X X Y H$]%^%^%^%^%^%^%^%^%^%^%^%^%@%F#F#F#F#G#H#@$/%!#!#!#!#!#:#<#(%^%^%^%^%^%^%^%^%^%^%_%)%n n n n o p !%k@  2 $ $ ",
"    - $ ;%:%X X Y H$<%[%[%[%[%[%[%[%[%[%[%[%[%@%F#F#F#F#G#H#@$/%!#!#!#!#!#:#<#}%[%[%[%[%[%[%[%[%[%[%|%1%n n n n o p !%k@  2 $ $ ",
"    - $  $2%X X Y H$3%.@.@.@.@.@.@.@.@.@.@.@.@4%F#F#F#F#G#H#@$/%!#!#!#!#!#:#<#5%.@.@.@.@.@.@.@.@.@.@6%7%n n n n o p !%k@  2 $ $ ",
"    - $  $8%X X Y H$3%%@%@%@%@%@%@%@%@%@%@%@%@9%0%F#F#F#G#H#@$a%!#!#!#!#!#:#<#b%%@%@%@%@%@%@%@%@%@%@c%7%n n n n o p ~@l@  2 $ $ ",
"    - $ d%e%0@0@f%g%h%7@7@7@7@7@7@7@7@7@7@7@7@i%j%k%k%k%l%m%n%o%p%p%p%p%q%r%s%t%7@7@7@7@7@7@7@7@7@7@7@u%v%v%v%v%v%w%x%y%  2 $ $ ",
"    - z%@                                                                                                                 2 $ $ ",
"  . = A%u@u@u@u@u@u@u@u@u@u@u@u@u@u@u@u@u@u@u@u@u@u@u@u@u@u@u@u@u@u@u@u@u@u@u@u@u@u@u@u@u@u@u@u@u@u@u@u@u@u@u@u@u@u@u@u@u@+ $ $ ",
". B%C@$ $ $ $ $ $ $ $ $ $ $ $ $ $ $ $ $ $ $ $ $ $ $ $ $ $ $ $ $ $ $ $ $ $ $ $ $ $ $ $ $ $ $ $ $ $ $ $ $ $ $ $ $ $ $ $ $ $ $ $ $ ",
"+ $ $ $ $ $ $ $ $ $ $ $ $ $ $ $ $ $ $ $ $ $ $ $ $ $ $ $ $ $ $ $ $ $ $ $ $ $ $ $ $ $ $ $ $ $ $ $ $ $ $ $ $ $ $ $ $ $ $ $ $ $ $ $ "};
