/* XPM */
static char * bookshelf_03_xpm[] = {
"64 64 686 2",
"  	c #9E7449",
". 	c #9D7348",
"+ 	c #835A32",
"@ 	c #9C7247",
"# 	c #845B33",
"$ 	c #754C24",
"% 	c #875E36",
"& 	c #774E26",
"* 	c #795028",
"= 	c #835A31",
"- 	c #865D35",
"; 	c #744C24",
"> 	c #744B24",
", 	c #734B24",
"' 	c #8E653C",
") 	c #8F663C",
"! 	c #634020",
"~ 	c #603E1F",
"{ 	c #5F3E1F",
"] 	c #593A1E",
"^ 	c #58391E",
"/ 	c #55371E",
"( 	c #52351D",
"_ 	c #50351D",
": 	c #4B311C",
"< 	c #462E1B",
"[ 	c #452D1A",
"} 	c #413B30",
"| 	c #336B6D",
"1 	c #336E72",
"2 	c #336766",
"3 	c #335F58",
"4 	c #473D2D",
"5 	c #9B7247",
"6 	c #8F663D",
"7 	c #4A301B",
"8 	c #412A1A",
"9 	c #412B1B",
"0 	c #296E72",
"a 	c #01919A",
"b 	c #01939B",
"c 	c #02888A",
"d 	c #027D78",
"e 	c #386058",
"f 	c #9B7248",
"g 	c #49301B",
"h 	c #402A19",
"i 	c #3F2C19",
"j 	c #3F2F19",
"k 	c #3F3019",
"l 	c #49382D",
"m 	c #554840",
"n 	c #65574F",
"o 	c #827870",
"p 	c #837972",
"q 	c #5E524E",
"r 	c #4F433F",
"s 	c #247377",
"t 	c #01B0B6",
"u 	c #02898C",
"v 	c #37615A",
"w 	c #425017",
"x 	c #2D6B11",
"y 	c #20730E",
"z 	c #187C0B",
"A 	c #14810A",
"B 	c #167D0A",
"C 	c #1E640A",
"D 	c #2B590E",
"E 	c #373D15",
"F 	c #3F2918",
"G 	c #3F291A",
"H 	c #3F2A1D",
"I 	c #3F2B22",
"J 	c #3F2A1F",
"K 	c #B4B2B0",
"L 	c #F9FAFA",
"M 	c #FAFBFB",
"N 	c #FBFCFB",
"O 	c #FBFCFC",
"P 	c #DBE5F8",
"Q 	c #D6E1F5",
"R 	c #629CA6",
"S 	c #01B1B7",
"T 	c #366159",
"U 	c #3A6C14",
"V 	c #088E07",
"W 	c #088D07",
"X 	c #017901",
"Y 	c #007500",
"Z 	c #2B580F",
"` 	c #3E2818",
" .	c #403E67",
"..	c #425299",
"+.	c #42559D",
"@.	c #4357A1",
"#.	c #435CA9",
"$.	c #4259A4",
"%.	c #364C92",
"&.	c #37498D",
"*.	c #3D2E35",
"=.	c #BFBDBC",
"-.	c #FEFFFF",
";.	c #F8FBFE",
">.	c #EEF4FE",
",.	c #F5F9FE",
"'.	c #DFE9FC",
").	c #DBE7FB",
"!.	c #7FB7C5",
"~.	c #3E6E14",
"{.	c #2A590E",
"].	c #3D2817",
"^.	c #415299",
"/.	c #456CD1",
"(.	c #446BD0",
"_.	c #2E60C3",
":.	c #2D5EC0",
"<.	c #374172",
"[.	c #BFBEBC",
"}.	c #F2F7FE",
"|.	c #DDE8FC",
"1.	c #EDF3FD",
"2.	c #A1C2D2",
"3.	c #34625A",
"4.	c #426E15",
"5.	c #099B08",
"6.	c #09A408",
"7.	c #089507",
"8.	c #2D5A16",
"9.	c #5D514A",
"0.	c #7F766F",
"a.	c #605652",
"b.	c #3E2A1D",
"c.	c #3C2717",
"d.	c #40529A",
"e.	c #466DD1",
"f.	c #466ED2",
"g.	c #446CD1",
"h.	c #2D5FC2",
"i.	c #384B8E",
"j.	c #C6C3C2",
"k.	c #F4F8FE",
"l.	c #DEE8FC",
"m.	c #A2C3D3",
"n.	c #2E655D",
"o.	c #416E15",
"p.	c #09A008",
"q.	c #0AB009",
"r.	c #6E8362",
"s.	c #F6F7F7",
"t.	c #E0E8F5",
"u.	c #6A6363",
"v.	c #3B2616",
"w.	c #507DD8",
"x.	c #598BDE",
"y.	c #4871D3",
"z.	c #384B8F",
"A.	c #C6C4C2",
"B.	c #F6F9FE",
"C.	c #DEE9FC",
"D.	c #2D655D",
"E.	c #099E08",
"F.	c #7A8C6F",
"G.	c #FDFFFF",
"H.	c #E4ECFA",
"I.	c #736D6F",
"J.	c #3A2516",
"K.	c #507ED8",
"L.	c #5A8CDF",
"M.	c #4A75D4",
"N.	c #374B8F",
"O.	c #798C6F",
"P.	c #726D6F",
"Q.	c #392415",
"R.	c #3F529A",
"S.	c #2C655D",
"T.	c #406E14",
"U.	c #099C08",
"V.	c #736E70",
"W.	c #372415",
"X.	c #364A8F",
"Y.	c #C6C3C1",
"Z.	c #F7FAFE",
"`.	c #436F15",
" +	c #788C6F",
".+	c #E5EDFB",
"++	c #898A92",
"@+	c #362314",
"#+	c #3E519A",
"$+	c #4B75D4",
"%+	c #354A8F",
"&+	c #C5C3C1",
"*+	c #F9FBFE",
"=+	c #31675E",
"-+	c #4A7017",
";+	c #788B6E",
">+	c #8A8B93",
",+	c #352214",
"'+	c #5A8DDF",
")+	c #4C78D5",
"!+	c #386A60",
"~+	c #9B7348",
"{+	c #8A8A93",
"]+	c #342113",
"^+	c #3D519A",
"/+	c #4D79D6",
"(+	c #344A8F",
"_+	c #EAF1FD",
":+	c #332012",
"<+	c #30488F",
"[+	c #BEBDBC",
"}+	c #FAFDFF",
"|+	c #E9F0FD",
"1+	c #028C8F",
"2+	c #497017",
"3+	c #778B6E",
"4+	c #898A93",
"5+	c #321F12",
"6+	c #3C519A",
"7+	c #BDBDBC",
"8+	c #FDFEFF",
"9+	c #028D90",
"0+	c #39766A",
"a+	c #9C744A",
"b+	c #497016",
"c+	c #311E11",
"d+	c #4E7AD6",
"e+	c #2F478E",
"f+	c #E0EAFC",
"g+	c #407B6D",
"h+	c #4A7016",
"i+	c #0AAE09",
"j+	c #099F08",
"k+	c #778A6E",
"l+	c #301E10",
"m+	c #4F7BD7",
"n+	c #5686DC",
"o+	c #FCFEFF",
"p+	c #547319",
"q+	c #088F07",
"r+	c #089007",
"s+	c #898992",
"t+	c #2F1D10",
"u+	c #3B509A",
"v+	c #456DD1",
"w+	c #2E478E",
"x+	c #557319",
"y+	c #768A6D",
"z+	c #888992",
"A+	c #2E1C0F",
"B+	c #BDBCBC",
"C+	c #02888B",
"D+	c #4E7A6A",
"E+	c #758A6D",
"F+	c #2D1B0F",
"G+	c #3A509A",
"H+	c #2D478E",
"I+	c #02878A",
"J+	c #597968",
"K+	c #9D744A",
"L+	c #878992",
"M+	c #2B1A0E",
"N+	c #2C478E",
"O+	c #75896D",
"P+	c #878892",
"Q+	c #2A190E",
"R+	c #39509A",
"S+	c #2C468E",
"T+	c #5A7968",
"U+	c #75896C",
"V+	c #868891",
"W+	c #29190D",
"X+	c #395099",
"Y+	c #2B468E",
"Z+	c #6F7965",
"`+	c #74896C",
" @	c #28180D",
".@	c #2E5FC1",
"+@	c #2C478D",
"@@	c #BCBBBB",
"#@	c #FDFEFD",
"$@	c #FDFDFD",
"%@	c #FCFDFC",
"&@	c #DDE6F9",
"*@	c #A2C1CF",
"=@	c #169098",
"-@	c #209098",
";@	c #208788",
">@	c #217D76",
",@	c #757863",
"'@	c #59731D",
")@	c #238D0F",
"!@	c #238C0F",
"~@	c #20790A",
"{@	c #26750D",
"]@	c #778565",
"^@	c #EDE8E4",
"/@	c #F0EBE7",
"(@	c #D8D7DB",
"_@	c #8A807D",
":@	c #513822",
"<@	c #5C4127",
"[@	c #62462B",
"}@	c #63472B",
"|@	c #735333",
"1@	c #765535",
"2@	c #79647A",
"3@	c #7C70A0",
"4@	c #776A96",
"5@	c #7A6B8D",
"6@	c #7C6366",
"7@	c #A7907D",
"8@	c #C8B4A4",
"9@	c #C1AB97",
"0@	c #BBA188",
"a@	c #BAA087",
"b@	c #AB8E75",
"c@	c #A9896E",
"d@	c #9A8164",
"e@	c #8B7857",
"f@	c #9A764F",
"g@	c #9B754F",
"h@	c #9B754D",
"i@	c #9B744C",
"j@	c #875E35",
"k@	c #9B7347",
"l@	c #9B7548",
"m@	c #9B7447",
"n@	c #9B7448",
"o@	c #9D754A",
"p@	c #A27B55",
"q@	c #A07952",
"r@	c #9D744B",
"s@	c #9C7348",
"t@	c #8B6239",
"u@	c #8B633A",
"v@	c #8C633A",
"w@	c #936940",
"x@	c #946A40",
"y@	c #966C42",
"z@	c #986E44",
"A@	c #996F44",
"B@	c #8F653C",
"C@	c #764D25",
"D@	c #774E27",
"E@	c #825931",
"F@	c #6E4823",
"G@	c #6E4723",
"H@	c #6B4622",
"I@	c #694421",
"J@	c #684421",
"K@	c #644121",
"L@	c #7A5530",
"M@	c #452D1B",
"N@	c #442D1A",
"O@	c #432C1A",
"P@	c #422C1A",
"Q@	c #452C1B",
"R@	c #4E2C1C",
"S@	c #512C1C",
"T@	c #4C2B1A",
"U@	c #432B1A",
"V@	c #7B5937",
"W@	c #412B1A",
"X@	c #402F19",
"Y@	c #3E3818",
"Z@	c #335215",
"`@	c #306313",
" #	c #2E6B12",
".#	c #2E6A12",
"+#	c #314F13",
"@#	c #3B3717",
"##	c #402E19",
"$#	c #422B1A",
"%#	c #832E25",
"&#	c #B23230",
"*#	c #CF3537",
"=#	c #D83639",
"-#	c #D73538",
";#	c #BE2223",
">#	c #9D251F",
",#	c #805837",
"'#	c #3F3226",
")#	c #37433B",
"!#	c #344943",
"~#	c #3E3326",
"{#	c #443021",
"]#	c #54473F",
"^#	c #5A4D44",
"/#	c #73675F",
"(#	c #827971",
"_#	c #7E746D",
":#	c #5D514C",
"<#	c #50433F",
"[#	c #463328",
"}#	c #2F6612",
"|#	c #0E8B08",
"1#	c #0A8D07",
"2#	c #037B02",
"3#	c #057301",
"4#	c #2E5610",
"5#	c #453124",
"6#	c #4E3E36",
"7#	c #402A1A",
"8#	c #442A1A",
"9#	c #B33231",
"0#	c #DC363A",
"a#	c #DB3539",
"b#	c #CA2124",
"c#	c #C62023",
"d#	c #8E5838",
"e#	c #5F3D1F",
"f#	c #3E3025",
"g#	c #12858B",
"h#	c #059098",
"i#	c #04939B",
"j#	c #0E7A76",
"k#	c #3E3022",
"l#	c #A09C99",
"m#	c #F8F9F9",
"n#	c #FAFAFA",
"o#	c #E3EBF9",
"p#	c #D8E3F6",
"q#	c #999BA6",
"r#	c #027C02",
"s#	c #3C612C",
"t#	c #CAC8C7",
"u#	c #DDE0E6",
"v#	c #82828A",
"w#	c #452919",
"x#	c #B93332",
"y#	c #C72023",
"z#	c #955738",
"A#	c #5E3D1F",
"B#	c #3D2E18",
"C#	c #344B14",
"D#	c #2D6412",
"E#	c #2D6212",
"F#	c #344327",
"G#	c #078F97",
"H#	c #01A2A9",
"I#	c #01A8AF",
"J#	c #087D78",
"K#	c #3D2F23",
"L#	c #E6EFFD",
"M#	c #A7ACBA",
"N#	c #2C6B11",
"O#	c #099708",
"P#	c #099D08",
"Q#	c #027D02",
"R#	c #47693C",
"S#	c #442819",
"T#	c #B83232",
"U#	c #965738",
"V#	c #5E3D1E",
"W#	c #2C6911",
"X#	c #0B8C07",
"Y#	c #04761F",
"Z#	c #019097",
"`#	c #01A3AA",
" $	c #01A9AF",
".$	c #3C2F22",
"+$	c #AFADBC",
"@$	c #B2436E",
"#$	c #B84572",
"$$	c #B64370",
"%$	c #AE3B62",
"&$	c #8F344E",
"*$	c #2F6B13",
"=$	c #027E02",
"-$	c #A7AFC4",
";$	c #415298",
">$	c #41539A",
",$	c #3D4F96",
"'$	c #403B65",
")$	c #C82023",
"!$	c #A35739",
"~$	c #2A6A10",
"{$	c #0AA609",
"]$	c #00771F",
"^$	c #3A2E22",
"/$	c #E7B3D2",
"($	c #F5589B",
"_$	c #F35698",
":$	c #E64986",
"<$	c #E04782",
"[$	c #416B20",
"}$	c #0AAF09",
"|$	c #46683C",
"1$	c #A8B8E7",
"2$	c #4972D3",
"3$	c #3D67CC",
"4$	c #394F98",
"5$	c #B83335",
"6$	c #DC373B",
"7$	c #A45739",
"8$	c #5D3C1E",
"9$	c #0AAB09",
"0$	c #392E21",
"a$	c #E9B3D3",
"b$	c #E24783",
"c$	c #426B20",
"d$	c #A8B8E8",
"e$	c #3E69CC",
"f$	c #38529D",
"g$	c #B83336",
"h$	c #E13E43",
"i$	c #E6454B",
"j$	c #296A0F",
"k$	c #382D21",
"l$	c #45683C",
"m$	c #4E7AD7",
"n$	c #3754A5",
"o$	c #B83439",
"p$	c #E23E44",
"q$	c #E7454B",
"r$	c #5D3C1D",
"s$	c #286A0F",
"t$	c #077D78",
"u$	c #372C21",
"v$	c #E24782",
"w$	c #3657AC",
"x$	c #B7343B",
"y$	c #E03D42",
"z$	c #276A0F",
"A$	c #362C20",
"B$	c #F65CA0",
"C$	c #F663A7",
"D$	c #F666AB",
"E$	c #F45FA2",
"F$	c #406B20",
"G$	c #C92023",
"H$	c #B25739",
"I$	c #5C3B1D",
"J$	c #266A0E",
"K$	c #0AA808",
"L$	c #352B20",
"M$	c #F872B8",
"N$	c #F873B9",
"O$	c #F567AB",
"P$	c #E74986",
"Q$	c #406A1F",
"R$	c #44683C",
"S$	c #B7333B",
"T$	c #B5573A",
"U$	c #09A708",
"V$	c #067D78",
"W$	c #332C21",
"X$	c #F661A5",
"Y$	c #0AAD09",
"Z$	c #4C77D5",
"`$	c #C92123",
" %	c #B2593B",
".%	c #25690E",
"+%	c #057D79",
"@%	c #2E3329",
"#%	c #F660A3",
"$%	c #3F6A1F",
"%%	c #099A08",
"&%	c #099608",
"*%	c #089107",
"=%	c #4B76D5",
"-%	c #355AB5",
";%	c #B7343E",
">%	c #E03C42",
",%	c #AF5B3D",
"'%	c #5B3B1C",
")%	c #25690D",
"!%	c #2D3329",
"~%	c #F569AD",
"{%	c #43683B",
"]%	c #355DBE",
"^%	c #B73441",
"/%	c #DE383D",
"(%	c #DE3A3E",
"_%	c #5B3A1C",
":%	c #24690D",
"<%	c #01AAB0",
"[%	c #2C3329",
"}%	c #F56AAE",
"|%	c #E74987",
"1%	c #43673B",
"2%	c #B63441",
"3%	c #23690D",
"4%	c #09A608",
"5%	c #01ACB3",
"6%	c #047D79",
"7%	c #2B3229",
"8%	c #F65EA2",
"9%	c #3E6A1F",
"0%	c #C82224",
"a%	c #AC5F3F",
"b%	c #22690C",
"c%	c #01ADB3",
"d%	c #2A3228",
"e%	c #F65DA0",
"f%	c #3E6A1E",
"g%	c #42673B",
"h%	c #C82324",
"i%	c #AA6140",
"j%	c #5A3A1C",
"k%	c #21690C",
"l%	c #293128",
"m%	c #F872B7",
"n%	c #3D6A1E",
"o%	c #345DBE",
"p%	c #B63340",
"q%	c #5C3B1C",
"r%	c #01ABB2",
"s%	c #283027",
"t%	c #F5599C",
"u%	c #F55B9E",
"v%	c #F35799",
"w%	c #4B75D5",
"x%	c #588ADE",
"y%	c #315DBE",
"z%	c #AD323F",
"A%	c #5E3C1D",
"B%	c #01929B",
"C%	c #01929A",
"D%	c #047C78",
"E%	c #273027",
"F%	c #41673B",
"G%	c #3D67CB",
"H%	c #305DBE",
"I%	c #AA313E",
"J%	c #C82525",
"K%	c #A56844",
"L%	c #20690B",
"M%	c #019099",
"N%	c #262F27",
"O%	c #3C6A1E",
"P%	c #A56944",
"Q%	c #1F690B",
"R%	c #252F27",
"S%	c #E8B8D8",
"T%	c #3C691E",
"U%	c #AA303E",
"V%	c #1E690B",
"W%	c #242E26",
"X%	c #E6BCDB",
"Y%	c #F55A9C",
"Z%	c #3B691E",
"`%	c #40673B",
" &	c #1E690A",
".&	c #232E26",
"+&	c #2F5DBE",
"@&	c #C72825",
"#&	c #A07248",
"$&	c #77512D",
"%&	c #756E34",
"&&	c #738234",
"*&	c #738134",
"=&	c #737638",
"-&	c #738378",
";&	c #73847A",
">&	c #738379",
",&	c #737864",
"'&	c #75593A",
")&	c #AE9D91",
"!&	c #D5C9C1",
"~&	c #C7BEC0",
"{&	c #C1BABF",
"]&	c #C79DA7",
"^&	c #CF687B",
"/&	c #D0677B",
"(&	c #CE6679",
"_&	c #C7616D",
":&	c #C4616B",
"<&	c #796F38",
"[&	c #737833",
"}&	c #737533",
"|&	c #7A6E42",
"1&	c #D2C6BE",
"2&	c #CBC2C0",
"3&	c #A39BB0",
"4&	c #7A6E9C",
"5&	c #776993",
"6&	c #A45A44",
"7&	c #C05B42",
"8&	c #B6573A",
"9&	c #B4583A",
"0&	c #9F7348",
"a&	c #825A32",
"b&	c #8A6138",
"c&	c #865D34",
"                                                                                                                            . + ",
"    . . . . . . . . . . . . . . . . . . . . . . . . . . . . . . . . . . . . . . . . . . . . . . . . . . . . . . . . . . . @ # $ ",
"    % & & & & & & & & & & & & & & & & & & & & & & & & & & & & & & & & & & & & & & & & & & & & & & & & & & & & & & & & & * = $ $ ",
"    - $ $ $ $ $ $ $ ; ; ; ; ; ; > > > > > > > > > > > > , , , , , , , , , , , , , , , , , , , , , , , , , , , , , , , ; ' ) $ $ ",
"    - ; ! ~ ~ ~ { ] ^ ^ ^ ^ ^ / ( ( ( ( ( _ : : : : : : < [ [ [ [ [ [ [ [ [ [ [ [ [ [ [ [ [ [ [ [ [ [ [ } | 1 1 1 2 3 4 5 6 $ $ ",
"    - > 7 8 8 8 8 8 8 8 8 8 8 8 8 8 8 8 8 8 8 8 8 8 8 8 8 8 8 8 8 8 8 8 8 8 8 8 8 8 8 8 8 8 8 8 8 8 8 9 0 a a b b c d e f 6 $ $ ",
"    - > g h i j k j i h h h h h h h h h h h h h h h h h h h h h h h h h h h h h h h h h l m n o p o q r s a b t t u d v f 6 $ $ ",
"    - > w x y z A B C D E F F F F F F F F F F F F F F F F F F F F F F F F G H I J G F F K L M N O M P Q R a b S S u d T f 6 $ $ ",
"    - > U V V V V W X Y Z ` ` ` ` ` ` ` ` ` ` ` ` ` ` ` ` ` ` ` ` ` `  ...+.@.#.$.%.&.*.=.-.-.;.>.,.'.).!.a b S S u d T f 6 $ $ ",
"    - > ~.V V V V W X Y {.].].].].].].].].].].].].].].].].].].].].].].^././././.(._.:.<.[.-.-.}.|.1.'.|.2.a b S S u d 3.f 6 $ $ ",
"    - > 4.V V 5.6.7.X Y 8.9.0.a.b.c.c.c.c.c.c.c.c.c.c.c.c.c.c.c.c.c.c.d././.e.f.g._.h.i.j.-.-.k.l.1.'.|.m.a b S S u d n.f 6 $ $ ",
"    - > o.V V p.q.5.X Y r.s.M t.u.v.v.v.v.v.v.v.v.v.v.v.v.v.v.v.v.v.v.d././.w.x.y._.h.z.A.-.-.B.C.1.'.|.m.a b S S u d D.f 6 $ $ ",
"    - > o.V V p.q.E.X Y F.N G.H.I.J.J.J.J.J.J.J.J.J.J.J.J.J.J.J.J.J.J.d././.K.L.M._.h.N.A.-.-.B.C.1.'.|.m.a b S S u d D.f 6 $ $ ",
"    - > o.V V p.q.p.X Y O.N G.H.P.Q.Q.Q.Q.Q.Q.Q.Q.Q.Q.Q.Q.Q.Q.Q.Q.Q.Q.R././.K.L.M._.h.N.j.-.-.B.C.1.'.|.m.a b S S u d S.f 6 $ $ ",
"    - > T.V V U.q.p.X Y O.N G.H.V.W.W.W.W.W.W.W.W.W.W.W.W.W.W.W.W.W.W.R././.K.L.M._.h.X.Y.-.-.Z.C.1.'.|.m.a b S S u d S.f 6 $ $ ",
"    - > `.V V U.q.p.X Y  +N G..+++@+@+@+@+@+@+@+@+@+@+@+@+@+@+@+@+@+@+#+/./.K.L.$+_.h.%+&+-.-.*+C.1.'.|.m.a b S S u d =+f 6 $ $ ",
"    - ; -+V V U.q.p.X Y ;+N G..+>+,+,+,+,+,+,+,+,+,+,+,+,+,+,+,+,+,+,+#+/./.K.'+)+_.h.%+&+-.-.*+C.1.C.|.m.a b S S u d !+~+6 $ $ ",
"    - ; -+V V U.q.p.X Y ;+N G..+{+]+]+]+]+]+]+]+]+]+]+]+]+]+]+]+]+]+]+^+/./.K.'+/+_.h.(+&+-.-.*+C._+C.|.m.a b S S u d !+~+6 $ $ ",
"    - ; -+V V U.q.p.X Y ;+N G..+{+:+:+:+:+:+:+:+:+:+:+:+:+:+:+:+:+:+:+^+/./.K.'+/+_.h.<+[+-.-.}+C.|+C.|.m.a b S S 1+d !+~+6 $ $ ",
"    - ; 2+V V U.q.p.X Y 3+N G..+4+5+5+5+5+5+5+5+5+5+5+5+5+5+5+5+5+5+5+6+/./.K.'+/+_.h.<+7+-.-.8+'.|+C.|.m.a b S S 9+d 0+a+6 $ $ ",
"    - ; b+V V U.q.p.X Y 3+N G..+++c+c+c+c+c+c+c+c+c+c+c+c+c+c+c+c+c+c+6+/./.K.'+d+_.h.e+7+-.-.8+f+_+C.|.m.a b S S 9+d g+a+6 $ $ ",
"    - ; h+V V U.i+j+X Y k+N G..+++l+l+l+l+l+l+l+l+l+l+l+l+l+l+l+l+l+l+6+/./.m+n+/+_.h.e+7+-.-.-.8+o+C.|.m.a b S S 9+d g+a+6 $ $ ",
"    - $ p+V V q+r+V X Y k+N G..+s+t+t+t+t+t+t+t+t+t+t+t+t+t+t+t+t+t+t+u+/./.v+e.g._.h.w+7+-.-.-.-.8+'.|.m.a b t t 9+d g+a+6 $ $ ",
"    - $ x+V V V V W X Y y+N G..+z+A+A+A+A+A+A+A+A+A+A+A+A+A+A+A+A+A+A+u+/./././.(._.h.w+B+-.-.-.-.8+'.|.m.a a b b C+d D+a+6 $ $ ",
"    - $ x+V V V V W X Y E+N G..+z+F+F+F+F+F+F+F+F+F+F+F+F+F+F+F+F+F+F+G+/./././.(._.h.H+B+-.-.-.-.8+'.|.m.a a a a I+d J+K+6 $ $ ",
"    - $ x+V V V V W X Y E+N G..+L+M+M+M+M+M+M+M+M+M+M+M+M+M+M+M+M+M+M+G+/./././.(._.h.N+B+-.-.-.-.8+'.|.m.a a a a I+d J+K+6 $ $ ",
"    - $ x+V V V V W X Y O+N G..+P+Q+Q+Q+Q+Q+Q+Q+Q+Q+Q+Q+Q+Q+Q+Q+Q+Q+Q+R+/./././.(._.h.S+B+-.-.-.-.8+'.|.m.a a a a I+d T+K+6 $ $ ",
"    - $ x+V V V V W X Y U+N G..+V+W+W+W+W+W+W+W+W+W+W+W+W+W+W+W+W+W+W+X+/./././.(._.h.Y+B+-.-.-.-.8+'.|.m.a a a a I+d Z+  6 $ $ ",
"    - $ x+V V V V W X Y `+N G..+V+ @ @ @ @ @ @ @ @ @ @ @ @ @ @ @ @ @ @X+/./././.(._..@+@@@#@$@%@%@O &@P *@=@-@-@-@;@>@,@  6 $ $ ",
"    - $ '@)@)@)@)@!@~@{@]@^@/@(@_@:@:@<@[@[@}@|@1@1@1@1@1@1@1@1@1@1@1@2@3@3@3@3@3@4@5@6@7@8@9@0@0@a@b@c@d@e@f@g@g@h@i@a+  6 $ $ ",
"    % j@k@l@l@l@l@l@m@n@o@p@p@q@r@s@s@. . . .                                                                             6 $ $ ",
"    ) t@u@u@u@u@u@u@u@u@u@u@u@u@u@u@u@u@u@u@u@v@) 6 6 6 6 6 6 6 w@x@x@x@x@x@x@x@y@z@z@z@z@z@z@z@A@s@. . . . . . . . . . . B@$ $ ",
"    - $ $ $ $ $ $ $ $ $ $ $ $ $ $ $ $ $ $ $ $ $ $ $ $ $ $ $ $ $ C@C@C@C@C@C@C@C@C@& & & & & & & & & & & & & & & & & & D@E@j@$ $ ",
"    - $ ; > > , , , , , , , , , , , , , , , , , , , , , , , F@G@G@G@H@I@I@I@J@K@K@K@K@! ~ ~ ~ ~ ~ ~ ~ ~ ~ ~ ~ ~ ~ ~ ~ L@. 6 $ $ ",
"    - $ ! : g M@[ [ [ [ [ [ [ [ [ [ [ [ [ [ [ [ [ [ [ [ [ [ N@N@N@N@N@O@O@O@O@O@O@O@O@P@P@P@P@P@P@P@P@P@Q@R@S@S@S@T@U@V@  6 $ $ ",
"    - $ { W@W@W@W@W@W@W@W@W@W@W@W@W@W@W@W@W@W@W@W@W@W@W@W@W@W@X@Y@Z@`@ #.#+#@###W@W@W@W@W@W@W@W@W@W@$#%#&#*#=#=#-#;#>#,#  6 $ $ ",
"    - $ { h h h h h '#)#!#~#h {#]#^#/#(#_#:#<#[#h h h h h h h }#|#1#V V W 2#3#4#5#]#6#7#h h h h h h 8#9#0#0#0#0#a#b#c#d#  6 $ $ ",
"    - $ e#F F F F f#g#h#i#j#k#l#m#n#M O M o#p#q#F F F F F F F x V V V V V r#Y s#t#m#u#v#F F F F F F w#x#0#0#0#0#a#b#y#z#  6 $ $ ",
"    - $ A#B#C#D#E#F#G#H#I#J#K#=.-.-.-.-.G.L#|.M#` ` ` ` ` ` ` N#V V O#U.P#Q#Y R#n#-.>.M#` ` ` ` ` ` S#T#0#0#0#0#a#b#y#U#  6 $ $ ",
"    - $ V#W#X#q+W Y#Z#`# $J#.$=.-.-.-.-.G.L#|.+$@$#$#$#$$$%$&$*$V r+i+q.i+=$Y R#n#-.>.-$;$>$>$>$,$X.'$T#0#0#0#0#a#b#)$!$  6 $ $ ",
"    - $ V#~$q+{$E.]$Z#`# $J#^$[+-.-.-.-.G.L#|./$($($($($_$:$<$[$V r+}$q.i+=$Y |$n#-.>.1$/./.v+2$3$h.4$5$0#0#0#6$a#b#)$7$  6 $ $ ",
"    - $ 8$~$q+9$j+]$Z#`# $J#0$[+-.-.-.-.G.L#|.a$($($($($_$:$b$c$V r+}$q.i+=$Y |$L -.>.d$/././+x.e$h.f$g$0#0#h$i$0#b#)$7$  6 $ $ ",
"    - $ 8$j$q+9$j+]$Z#`# $J#k$[+-.-.-.-.G.L#|.a$($($($($_$:$b$[$V r+}$q.i+=$Y l$L -.>.d$/./.m$x.e$h.n$o$0#0#p$q$0#b#)$!$  6 $ $ ",
"    - $ r$s$q+9$j+]$Z#`# $t$u$[+-.-.-.-.G.L#|.a$($($($($_$:$v$[$V r+}$q.i+=$Y l$L -.>.d$/./.m$x.e$h.w$x$0#0#y$i$0#b#)$7$  6 $ $ ",
"    - $ r$z$q+9$j+]$Z#`# $t$A$[+-.-.-.-.G.L#|.a$($B$C$D$E$:$v$F$V r+}$q.i+=$Y l$L -.>.d$/./.m$x.e$h.w$x$0#0#y$i$0#b#G$H$  6 $ $ ",
"    - $ I$J$q+K$j+]$Z#`# $t$L$[+-.-.-.-.G.L#|.a$($C$M$N$O$P$v$Q$V r+}$q.i+=$Y R$L -.>.d$/./.m$x.e$h.w$S$0#0#y$i$0#b#G$T$  6 $ $ ",
"    - $ I$J$q+U$j+]$Z#`# $V$W$[+-.-.-.-.G.L#|.a$($X$N$N$O$P$v$Q$V r+i+}$Y$=$Y R$L -.>.d$/./.Z$x.e$h.w$S$0#0#y$i$0#b#`$ %  6 $ $ ",
"    - $ I$.%q+U$j+]$Z#`# $+%@%[+-.-.-.-.G.L#|.a$($#%M$N$O$P$v$$%V q+%%&%*%r#Y R$L -.>.d$/./.=%x.e$h.-%;%0#0#>%i$0#b#`$,%  6 $ $ ",
"    - $ '%)%q+U$j+]$Z#`# $+%!%[+-.-.-.-.G.L#|.a$($#%M$N$~%P$v$$%V V V V V r#Y {%L -.>.d$/./.=%x.e$h.]%^%0#0#/%(%a#b#`$,%  6 $ $ ",
"    - $ _%:%q+U$j+]$Z#`#<%+%[%7+-.-.-.-.G.L#|.a$($#%M$N$}%|%v$$%V V V V V r#Y 1%L -.>.d$/./.=%x.e$h.]%2%0#0#0#0#a#b#`$,%  6 $ $ ",
"    - $ _%3%q+4%j+]$Z#`#5%6%7%7+-.-.-.-.G.L#|.a$($8%M$N$}%|%v$9%V V V V V r#Y 1%L -.>.d$/./.=%x.e$h.]%2%0#0#0#0#a#b#0%a%  6 $ $ ",
"    - $ _%b%V q+V ]$Z#`#c%6%d%7+-.-.-.-.G.L#|.a$($e%M$N$}%|%v$f%V V V V V r#Y g%L -.>.d$/./.=%x.e$h.]%2%0#0#0#0#a#b#h%i%  6 $ $ ",
"    - $ j%k%V V W ]$Z#`#c%6%l%7+-.-.-.-.G.L#|.a$($B$m%M$~%P$v$n%V V V V V r#Y g%L -.>.d$/./.=%x.e$h.o%p%0#0#0#0#a#b#h%i%  6 $ $ ",
"    - $ q%k%V V W ]$Z#H#r%6%s%B+-.-.-.-.G.L#|.a$($t%8%u%v%:$v$n%V V V V V r#Y g%L -.>.d$/./.w%x%e$h.y%z%0#0#0#0#a#b#h%i%  6 $ $ ",
"    - $ A%k%V V W ]$Z#B%C%D%E%B+-.-.-.-.G.L#|.a$($($($($_$:$v$n%V V V V V r#Y F%L -.>.d$/././.f.G%h.H%I%0#0#0#0#a#b#J%K%  6 $ $ ",
"    - $ A%L%V V W ]$Z#a M%D%N%B+-.-.-.-.G.L#|.a$($($($($_$:$v$O%V V V V V r#Y F%L -.>.d$/./././.G%h.H%I%0#0#0#0#a#b#J%P%  6 $ $ ",
"    - $ A%Q%V V W ]$Z#a M%D%R%B+-.-.-.-.G.L#|.S%t%($($($_$:$v$T%V V V V V r#Y F%L -.>.d$/./././.G%h.H%U%0#0#0#0#a#b#J%P%  6 $ $ ",
"    - $ r$V%V V W ]$Z#a M%D%W%B+-.-.-.-.G.L#|.X%Y%($($($_$:$v$Z%V V V V V r#Y `%L -.>.d$/./././.G%h.H%U%0#0#0#0#a#b#J%P%  6 $ $ ",
"    - $ r$ &V V W ]$Z#a M%D%.&B+-.-.-.-.G.L#|.X%Y%($($($_$:$v$Z%V V V V V r#Y `%L -.>.d$/./././.G%h.+&U%0#0#0#0#a#b#@&#&  6 $ $ ",
"    - $ $&%&&&&&*&=&-&;&>&,&'&)&!&!&!&!&!&~&{&]&^&/&/&/&(&_&:&<&&&&&&&&&&&[&}&|&1&!&2&3&3@3@3@3@4&4@5&6&7&7&7&7&7&8&9&0&  6 $ $ ",
"    - a&@                                                                                                                 6 $ $ ",
"  . = b&u@u@u@u@u@u@u@u@u@u@u@u@u@u@u@u@u@u@u@u@u@u@u@u@u@u@u@u@u@u@u@u@u@u@u@u@u@u@u@u@u@u@u@u@u@u@u@u@u@u@u@u@u@u@u@u@u@+ $ $ ",
". c&C@$ $ $ $ $ $ $ $ $ $ $ $ $ $ $ $ $ $ $ $ $ $ $ $ $ $ $ $ $ $ $ $ $ $ $ $ $ $ $ $ $ $ $ $ $ $ $ $ $ $ $ $ $ $ $ $ $ $ $ $ $ ",
"+ $ $ $ $ $ $ $ $ $ $ $ $ $ $ $ $ $ $ $ $ $ $ $ $ $ $ $ $ $ $ $ $ $ $ $ $ $ $ $ $ $ $ $ $ $ $ $ $ $ $ $ $ $ $ $ $ $ $ $ $ $ $ $ "};
