/* XPM */
static char * cobblestone_02_xpm[] = {
"64 64 57 1",
" 	c #636363",
".	c #5F5F5F",
"+	c #575757",
"@	c #5B5B5B",
"#	c #727272",
"$	c #7A7A7A",
"%	c #787878",
"&	c #6A6A6A",
"*	c #626262",
"=	c #5E5E5E",
"-	c #686868",
";	c #6D6D6D",
">	c #767676",
",	c #6F6F6F",
"'	c #6B6B6B",
")	c #5C5C5C",
"!	c #565656",
"~	c #545454",
"{	c #747474",
"]	c #818181",
"^	c #848484",
"/	c #7B7B7B",
"(	c #797979",
"_	c #707070",
":	c #5A5A5A",
"<	c #525252",
"[	c #676767",
"}	c #585858",
"|	c #656565",
"1	c #606060",
"2	c #555555",
"3	c #7E7E7E",
"4	c #646464",
"5	c #717171",
"6	c #6C6C6C",
"7	c #595959",
"8	c #515151",
"9	c #777777",
"0	c #757575",
"a	c #7D7D7D",
"b	c #666666",
"c	c #808080",
"d	c #838383",
"e	c #535353",
"f	c #7F7F7F",
"g	c #6E6E6E",
"h	c #4E4E4E",
"i	c #828282",
"j	c #7C7C7C",
"k	c #505050",
"l	c #696969",
"m	c #4C4C4C",
"n	c #737373",
"o	c #5D5D5D",
"p	c #4D4D4D",
"q	c #616161",
"r	c #4F4F4F",
"   .+@#$$$$%& *=@@-;>,'*)+!~{]^/$$$$$$$$$$$(--(_:!!<,>_[        ",
"    .!}#$$$(--&;>_;| 1@+!!!2*3^3$$$$$$$$$$$${4;(;}!=(5;         ",
"    *}+5$$$$((#64  .7!!!!!!!89^]$$$$$$$$$$$$$;40('7>0_-         ",
"    :!-$$aa$$&   =}!!!!!!!!!8bc^/$$$$$$$$$$$$%4'$$((_,4         ",
"   :!|(/]^d/(- 17!!!!!!!!!!!~e/^3$$$$$$$$$$$$(-4($${_&          ",
"  :+b(ad^f3a$g )!!!!!!!!!!!!!h6i]$$$$$$$$$$$(' '$$$5_&          ",
" :}'$f^ij$$9$, @!!!!!!!!!!!!!k)3^/$$$$$$$$$0-4_((%$>_6          ",
":}5$]^c$$$$(004@!!!!!!!!!!!!!8h>df$$$$$$$(g4l09_b >$5,4         ",
"@#aida$$$$$(_(4)!!!!!!!!!!!!!2mbfi$$$$$$n[b5>5-  **(9_l        :",
"9ad]/$$$$$$([('o!!!!!!!!!!!!!!p2(dj$$$9'b_0#64    o[(ng       :*",
"cd3$$$$$$$$(b9,o!!!!!!!!!!!!!!hhn3f$(,-5>#,[      *75%_[    *@6(",
"ia$$$$$$$$$(l_9=!!!!!!!!!!!!2<pm[$f{_{9n_64        =o(0;   q.#$c",
"/$$$$$$$$$$$';( !!!!!!!!~88hmmmh[$$$(0_,[          *7&$#b q|%$]]",
"$$$$$$$$$$$$'|(;!2e88rpphrr~*b&>($$(#_;4            =}>(g|_(/]3$",
"$$$$$((((9#,44((l[bbbb-;0%%9>00{5_%>_,4             *+[$$($/cj$$",
"5,,,;l|4||44bg$$$$$$(900#_g&lb44  b%#_[              )}($$$a$(%0",
",,,,,,,_n9(((($$$$05__;&b4        ql9_g4             7=($$$#____",
",,,,,,g6'll[|4|-($5_;4             o50_6            =+5$$$$$((%0",
"  *1oo):+++!!!!!'${_&              *o%n_[          *+4((,{$>|444",
"@++!!!!!!!!!!!!!~>%_6               )b(#,|         :o%(54|%(-  =",
"!!!!!!!!!!!!!!!!e1(n,4              q}#%5;4       .}#$n[  b({4 }",
"!!!!!!!!!!!!!!!!!k5%_l              *+|$9_'      q}g${'   1g$6 o",
"!!!!!!!!!!!!!!!!!8@({g             *:+6$$9_[     :|(>,4    on%b ",
"o!!!!!!!!!!!!!!!!2hg%_b           1}:5%_#$9,|   o*(9_-     *q({4",
"*+!!!!!!!!!!!!!!!!k}({'          o+*>{- qg$9;4 1*%(56       ol(6",
"4o!!!!!!!!!!!!!!!!ep6(_|       17:g>gb   1g$9'* 9$n,b       *:n$",
"{ }!!!!!!!!!!!!!!!!p2%>&     *)}|0#64     =_$%g(${_&         ..(",
"$;=!!!!!!!!!!!!!!!!kp'$#4   .7150_l        )5$$$9_,4          :l",
"5(l7!!!!!!!!!!!!!!!<m!(%l *@og9n_[         *@5$$#_&           1+",
"o(>q!!!!!!!!!!!!!!!2mp;$01 ,(9_,b           q:#$0_6            @",
"!-$n:!!!!!!!!!!!!!ermm4$$((${_gb             .)>$n_[           *",
"@}n$&+!!!!!!!~<8rhr< -9$$$$>__b               o1%(5g4           ",
"*+1(( 2eee8rr+ b-5%($$$$$$$(#_[                :*(9_'           ",
" )+,$(>{{9(((($$/aff3$$$95{(%5,|               *}4(>_[          ",
" *+&$$$$$jffciddcfa/$#$%5,,_>%#;4               1+6(n,|         ",
" q+#/fcd^dd]fa/$$$$$n0$n,b4b'#%n;4               o}5(#;4        ",
" oo(]^^cf/$$$$$$$$$9;${_[    4'>n64               :}n%5&        ",
" :;3^c/$$$$$$$$$$$('99_l       |_n;4              1!=%9_-       ",
"*@(d]$$$$$$$$$$$$$5g(56          b0;4           *=7!+&$9_'4     ",
"=6fi$$$$$$$$$$$$$0[({,4          **{g4      *1o@7=l'0$j(9n;|    ",
"=(dj$$$$$$$$$$$$(ln9_[            o19_4 41. &&g9$af]ca$$#5>_[   ",
"gfa$$$$$$$$$$$$$;&(5'             :+_$#_9(%(($$]di3/$$$$${'9064 ",
"$c$$$$$$$$$$$$${|>{;4           *:};$$$(0{,&|_$d3$$$$$$$$${[{(ng",
"j$$$$$$$$$$$$$>|_%_b           q775$a%(ng[   b$d/$$$$$$$$$${|{$$",
"0,_59(($$$$$$(ll(#-           .+1{ac/_(n&    o(d/$$$$$$$$$$$#4{$",
"(({;||b;,5>((&4096           )}|$]f$$_{0&    =0ia$$$$$$$$$$${45$",
"4bg5%n,[4 444 _(_4         q:753da$$$,,0&    o'cf$$$$$$$$$$$,4(6",
"oo. 4&5%9_gb4&(0[         .+*9]ij$$$$,,0&    =&ff$$$$$$$$$$(-g{4",
"!!!+7o146{((($$6        *@}'jd]/$$$$$5l>&    1 /]$$$$$$$$$$9|>l=",
"!!!!!!!+@.[#($>q11qq***=}=nc^]$$$$$$$n|9&    @b$i3$$$$$$$$$,;{*+",
"!!!!!!!!!!+:|($>'& @}}}}|(]^]$$$$$$$${|(&   .*%$/c]j$$$$$$(->')!",
"!!!!!!!!!!!!@({##{0{>%%($f^i$$$$$$$$$>|%&  1*%5|6(aif/$$$${g9*+!",
"!!!!!!!!!!!!49_,&&&lll&n$f^f$$$$$$$$$>40g 1 %&:!!}'(fia$$$g%,:!!",
"!!!!!!!!!!!2b{_l      *o%j^3$$$$$$$$$>4##q|%&:!!!!e!;$f]j(#(4!!!",
"!!!!!!!!!!!<65,4       @l$df$$$$$$$$$>4_0_(&=!!!!!!2k@5/3%(%@!!!",
"!!!!!!!!!!!<9_'        =7%ff$$$$$$$$9& 5$(&1+!!!!!!!!<rb($$>+!!!",
"!!!!!!!!!!22{_l        *+&j]$$$$$$9g4|,($# }!!!!!!!!!!8r>$$$572!",
"2!!!!!!!!!<|0_|         })(]$$$(06|l5($$$# }!!!!!!!!!!k+($%($%.<",
"k<!!!!!!!!k'n,          o+5a/(5l&_%jf3a(g(&.!!!!!!!!!!pl$9l*l>(,",
"0or<!!!!!2r%_'          o!b$$5n$3ci3/$$${'%-)!!!!!!!!<<%(,4 *o&(",
",%g2re!!!8o(_l          =!}($a]dcj$$$$$$$g'0|7!!!!!!!r-$n[    .o",
"}*0%brre2h&(_|        q@!+*(a^]/$$$$$$$$$(l;{*+!!!!!~~%>;      q",
"*:7g({1hmk%%_4      .@+}*_($a^f$$$$$$$$$$$0|n{1!!!!!8&%_[       ",
"  )+*%$#q-$96    *o}!1'9/fj%$^c$$$$$$$$$$$$,40#)!!!2+%n;        "};
