/* XPM */
static char * cobblestone_01_xpm[] = {
"64 64 57 1",
" 	c #636363",
".	c #5F5F5F",
"+	c #575757",
"@	c #5B5B5B",
"#	c #727272",
"$	c #7A7A7A",
"%	c #787878",
"&	c #6A6A6A",
"*	c #626262",
"=	c #5E5E5E",
"-	c #686868",
";	c #6D6D6D",
">	c #767676",
",	c #6F6F6F",
"'	c #6B6B6B",
")	c #5C5C5C",
"!	c #565656",
"~	c #545454",
"{	c #747474",
"]	c #818181",
"^	c #848484",
"/	c #7B7B7B",
"(	c #797979",
"_	c #707070",
":	c #5A5A5A",
"<	c #525252",
"[	c #676767",
"}	c #585858",
"|	c #656565",
"1	c #606060",
"2	c #555555",
"3	c #7E7E7E",
"4	c #646464",
"5	c #717171",
"6	c #6C6C6C",
"7	c #595959",
"8	c #515151",
"9	c #777777",
"0	c #757575",
"a	c #7D7D7D",
"b	c #666666",
"c	c #808080",
"d	c #838383",
"e	c #535353",
"f	c #7F7F7F",
"g	c #6E6E6E",
"h	c #4E4E4E",
"i	c #828282",
"j	c #7C7C7C",
"k	c #505050",
"l	c #696969",
"m	c #4C4C4C",
"n	c #737373",
"o	c #5D5D5D",
"p	c #4D4D4D",
"q	c #616161",
"r	c #4F4F4F",
"   .+@#$$$$%& *=@@-;>,'*)+!~{]^/$$$$$$$$$$$(--(_:!!<,>_[        ",
"    .!}#$$$(--&;>_;| 1@+!!!2*3^3$$$$$$$$$$$${4;(;}!=(5;         ",
"    *}+5$$$$((#64  .7!!!!!!!89^]$$$$$$$$$$$$$;40('7>0_-         ",
"    :!-$$aa$$&   =}!!!!!!!!!8bc^/$$$$$$$$$$$$%4'$$((_,4         ",
"   :!|(/]^d/(- 17!!!!!!!!!!!~e/^3$$$$$$$$$$$$(-4($${_&          ",
"  :+b(ad^f3a$g )!!!!!!!!!!!!!h6i]$$$$$$$$$$$(' '$$$5_&          ",
" :}'$f^ij$$9$, @!!!!!!!!!!!!!k)3^/$$$$$$$$$0-4_($($>_6          ",
":}5$]^c$$$$(004@!!!!!!!!!!!!!8h>df$$$$$$$(g4l0a3/59$5,4         ",
"@#aida$$$$$(_(4)!!!!!!!!!!!!!2mbfi$$$$$$n[b#a]3$$%'(9_l        :",
"9ad]/$$$$$$([('o!!!!!!!!!!!!!!p2(dj$$$9'b5ai]/$$$$_;$ng       :*",
"cd3$$$$$$$$(b9,o!!!!!!!!!!!!!!hhn3f$(,-5jida$$$$$$([{%_[    *@6(",
"ia$$$$$$$$$(l_9=!!!!!!!!!!!!2<pm[$f{_{j]^]/$$$$$$$$5-(0;   q.#$c",
"/$$$$$$$$$$$';( !!!!!!!!~88hmmmh[$$$$c^da$$$$$$$$$$([,$#b q|%$]]",
"$$$$$$$$$$$$'|(;!2e88rpphrr~*b&>($$/i^]/$$$$$$$$$$$$549(g|_(/]3$",
"$$$$$((((9#,44((l[bbbb-;>((/3ff3j$(3^d/$$$$$$$$$$$$$(|;$$($/cj$$",
"5,,,;l|4||44bg$$$$$$/3fcidiffj$$$$#$i^a$$$$$$$$$$$$$$g4($$$a$(%0",
",,,,,,,_n9(((($$$$cd^d]fj$$$$$$$$$9,a^d/$$$$$$$$$$$$(--($$$#____",
",,,,,,g6'll[|4|-($^^]/$$$$$$$$$$$$$,{f^]$$$$$$$$$$$$#4{$$$$$((%0",
"  *1oo):+++!!!!!'$c^f$$$$$$$$$$$$$$%-(]^a$$$$$$$$$$%|6$(,{$>|444",
"@++!!!!!!!!!!!!!~>j^]$$$$$$$$$$$$$$$;;$idj$$$$$$$$$'[((54|%(-  =",
"!!!!!!!!!!!!!!!!e1$]^/$$$$$$$$$$$$$$>|0jdi$$$$$$$$n|0$n[  b({4 }",
"!!!!!!!!!!!!!!!!!k5a^f$$$$$$$$$$$$$$(46$a^c$$$$$$9b#${'   1g$6 o",
"!!!!!!!!!!!!!!!!!8@(]i$$$$$$$$$$$$$(&45$$ada$$$$(&6$>,4    on%b ",
"o!!!!!!!!!!!!!!!!2hgjda$$$$$$$$$$$0-|{//>$ad/$$$_&(9_-     *q({4",
"*+!!!!!!!!!!!!!!!!k}(c]$$$$$$$$$(,4&%fa$0n$a]$$0'((56       ol(6",
"4o!!!!!!!!!!!!!!!!ep6/d/$$$$$$$0l|na]j$$${n$af(g%$n,b       *:n$",
"{ }!!!!!!!!!!!!!!!!p2%3f$$$$$(g|6$]]/$$$$$,{$j>(${_&         ..(",
"$;=!!!!!!!!!!!!!!!!kp'$]/$$${-l0fdf$$$$$$$('{$$$9_,4          :l",
"5(l7!!!!!!!!!!!!!!!<m!(j3$%6-#/i^a$$$$$$$$$(l{$$#_&           1+",
"o(>q!!!!!!!!!!!!!!!2mp;$/#6#(3^da$$$$$$$$$$$>b0$0_6            @",
"!-$n:!!!!!!!!!!!!!ermm4$$($$]^dj$$$$$$$$$$$$${[9$n_[           *",
"@}n$&+!!!!!!!~<8rhr< -9$$$$f^^j$$$$$$$$$$$$$$$,l((5g4           ",
"*+1(( 2eee8rr+ b-5%($$$$$$$/i^a$$$$$$$$$$$$$$$(&&(9_'           ",
" )+,$(>{{9(((($$/aff3$$$adc/jddj$$$$$$$$$$$$$$$%['(>_[          ",
" *+&$$$$$jffciddcfa/$#$jdddd3jii/$$$$$$$$$$$$$$${45$n,|         ",
" q+#/fcd^dd]fa/$$$$$n0$idj$jc]j]]$$$$$$$$$$$$$$$$_4{(#;4        ",
" oo(]^^cf/$$$$$$$$$9;$c^a$$$$/fa]]$$$$$$$$$$$$$$$(&40%5&        ",
" :;3^c/$$$$$$$$$$$('9a^f$$$$$$$//c]$$$$$$$$$$$$$$$04-(9_-       ",
"*@(d]$$$$$$$$$$$$$5g/d]$$$$$$$$$$#a]$$$$$$$$$$$$(#& 4,$9_'4     ",
"=6fi$$$$$$$$$$$$$0[(]d/$$$$$$$$$$%'/c$$$$$$$(0_'|-g_9$j(9n;|    ",
"=(dj$$$$$$$$$$$$(lnada$$$$$$$$$$$$,l$3$$(n_,__#%$3f]ca$$#5>_[   ",
"gfa$$$$$$$$$$$$$;&$dc$$$$$$$$$$$$('4n$(0(($$$$$]di3/$$$$${'9064 ",
"$c$$$$$$$$$$$$${|9ci$$$$$$$$$$$$(&45$$$/fc]3${$d3$$$$$$$$${[{(ng",
"j$$$$$$$$$$$$$>|_jdj$$$$$$$$$$$9l4{$a%$ida$$(g$d/$$$$$$$$$${|{$$",
"0,_59(($$$$$$(ll$]3$$$$$$$$$$${|l>ac/_(]f$$$$6$d/$$$$$$$$$$$#4{$",
"(({;||b;,5>((&403]$$$$$$$$$$(g|6/]f$$_{cf$$$$_9ia$$$$$$$$$$${45$",
"4bg5%n,[4 444 _$i/$$$$$$$$$9&|{3da$$$,,ff$$$$,_cf$$$$$$$$$$$,4(6",
"oo. 4&5%9_gb4&(3a$$$$$$$$$n|&%]ij$$$$,,ff$$$$5,ff$$$$$$$$$$(-g{4",
"!!!+7o146{((($$f$$$$$$$$('|_jd]/$$$$$5l3f$$$${6/]$$$$$$$$$$9|>l=",
"!!!!!!!+@.[#($({{0>9(((#b-0c^]$$$$$$$n|/f$$$$;;$i3$$$$$$$$$,;{*+",
"!!!!!!!!!!+:|($9__6b||||6(]^]$$$$$$$${|$f$$${'($/c]j$$$$$$(->')!",
"!!!!!!!!!!!!@({##{009((($f^i$$$$$$$$$>|(f$${'%5|6(aif/$$$${g9*+!",
"!!!!!!!!!!!!49_,&&&lll&n$f^f$$$$$$$$$>4>3$06%&:!!}'(fia$$$g%,:!!",
"!!!!!!!!!!!2b{_l      *o%j^3$$$$$$$$$>4#j0g%&:!!!!e!;$f]j(#(4!!!",
"!!!!!!!!!!!<65,4       @l$df$$$$$$$$$>4_/0(&=!!!!!!2k@5/3%(%@!!!",
"!!!!!!!!!!!<9_'        =7%ff$$$$$$$$9& 5$(&1+!!!!!!!!<rb($$>+!!!",
"!!!!!!!!!!22{_l        *+&j]$$$$$$9g4|,($# }!!!!!!!!!!8r>$$$572!",
"2!!!!!!!!!<|0_|         })(]$$$(06|l5($$$# }!!!!!!!!!!k+($%($%.<",
"k<!!!!!!!!k'n,          o+5a/(5l&_%jf3a(g(&.!!!!!!!!!!pl$9l*l>(,",
"0or<!!!!!2r%_'          o!b$$5n$3ci3/$$${'%-)!!!!!!!!<<%(,4 *o&(",
",%g2re!!!8o(_l          =!}($a]dcj$$$$$$$g'0|7!!!!!!!r-$n[    .o",
"}*0%brre2h&(_|        q@!+*(a^]/$$$$$$$$$(l;{*+!!!!!~~%>;      q",
"*:7g({1hmk%%_4      .@+}*_($a^f$$$$$$$$$$$0|n{1!!!!!8&%_[       ",
"  )+*%$#q-$96    *o}!1'9/fj%$^c$$$$$$$$$$$$,40#)!!!2+%n;        "};
