/* XPM */
static char * cobblestone_xpm[] = {
"64 64 57 1",
" 	c #636363",
".	c #5F5F5F",
"+	c #575757",
"@	c #5B5B5B",
"#	c #727272",
"$	c #7A7A7A",
"%	c #787878",
"&	c #6A6A6A",
"*	c #626262",
"=	c #5E5E5E",
"-	c #686868",
";	c #6D6D6D",
">	c #767676",
",	c #6F6F6F",
"'	c #6B6B6B",
")	c #5C5C5C",
"!	c #565656",
"~	c #545454",
"{	c #747474",
"]	c #818181",
"^	c #848484",
"/	c #7B7B7B",
"(	c #797979",
"_	c #707070",
":	c #5A5A5A",
"<	c #525252",
"[	c #676767",
"}	c #585858",
"|	c #656565",
"1	c #606060",
"2	c #555555",
"3	c #7E7E7E",
"4	c #646464",
"5	c #717171",
"6	c #6C6C6C",
"7	c #595959",
"8	c #515151",
"9	c #777777",
"0	c #757575",
"a	c #7D7D7D",
"b	c #666666",
"c	c #808080",
"d	c #838383",
"e	c #535353",
"f	c #7F7F7F",
"g	c #6E6E6E",
"h	c #4E4E4E",
"i	c #828282",
"j	c #7C7C7C",
"k	c #505050",
"l	c #696969",
"m	c #4C4C4C",
"n	c #737373",
"o	c #5D5D5D",
"p	c #4D4D4D",
"q	c #4F4F4F",
"r	c #616161",
"   .+@#$$$$%& *=@@-;>,'*)+!~{]^/$$$$$$$$$$$(--(_:!!<,>_[        ",
"    .!}#$$$(--&;>_;| 1@+!!!2*3^3$$$$$$$$$$$${4;(;}!=(5;         ",
"    *}+5$$$$((#64  .7!!!!!!!89^]$$$$$$$$$$$$$;40('7>0_-         ",
"    :!-$$aa$$&   =}!!!!!!!!!8bc^/$$$$$$$$$$$$%4'$$((_,4         ",
"   :!|(/]^d/(- 17!!!!!!!!!!!~e/^3$$$$$$$$$$$$(-4($${_&          ",
"  :+b(ad^f3a$g )!!!!!!!!!!!!!h6i]$$$$$$$$$$$(' '$$$5_&          ",
" :}'$f^ij$$9$, @!!!!!!!!!!!!!k)3^/$$$$$$$$$0-4_(%%$>_6          ",
":}5$]^c$$$$(004@!!!!!!!!!!!!!8h>df$$$$$$$(g4l{{-::0$5,4         ",
"@#aida$$$$$(_(4)!!!!!!!!!!!!!2mbfi$$$$$$n[b5#[)!!2@(9_l        :",
"9ad]/$$$$$$([('o!!!!!!!!!!!!!!p2(dj$$$9'b_5[.+!!!!8*(ng       :*",
"cd3$$$$$$$$(b9,o!!!!!!!!!!!!!!hhn3f$(,-_#-*:!!!!!!!q,%_[    *@6(",
"ia$$$$$$$$$(l_9=!!!!!!!!!!!!2<pm[$f{_{0& .+!!!!!!!!<!%0;   r.#$c",
"/$$$$$$$$$$$';( !!!!!!!!~88hmmmh[$$((g4*:!!!!!!!!!!!hb(#b r|%$]]",
"$$$$$$$$$$$$'|(;!2e88qpphqq~*b&>($$9l 1+!!!!!!!!!!!!<q{(g|_(/]3$",
"$$$$$((((9#,44((l[bbbb-;0%%9>00{5_%5 *+!!!!!!!!!!!!!!p*$$($/cj$$",
"5,,,;l|4||44bg$$$$$$(900#_g&lb44  b%[ :!!!!!!!!!!!!!!8q($$$a$(%0",
",,,,,,,_n9(((($$$$05__;&b4        rl{4r+!!!!!!!!!!!!!h+($$$#____",
",,,,,,g6'll[|4|-($5_;4             o5g .!!!!!!!!!!!!<h,$$$$$((%0",
"  *1oo):+++!!!!!'${_&              *o9& :!!!!!!!!!!2p.((,{$>|444",
"@++!!!!!!!!!!!!!~>%_6               )b%-*}!!!!!!!!!q!%(54|%(-  =",
"!!!!!!!!!!!!!!!!e1(n,4              r}#>|1+!!!!!!!eq_$n[  b({4 }",
"!!!!!!!!!!!!!!!!!k5%_l              *+|${4=!!!!!!2h'${'   1g$6 o",
"!!!!!!!!!!!!!!!!!8@({g             *:+6$${4:!!!!!q1(>,4    on%b ",
"o!!!!!!!!!!!!!!!!2hg%_b           17:5//>${ }!!!<)(9_-     *r({4",
"*+!!!!!!!!!!!!!!!!k}({'          o+*9fa$0n$nr+!~@%(56       ol(6",
"4o!!!!!!!!!!!!!!!!ep6(_|       17:,a]j$$${n${.!o9$n,b       *:n$",
"{ }!!!!!!!!!!!!!!!!p2%>&     *)}|(]]/$$$$$,{$0&(${_&         ..(",
"$;=!!!!!!!!!!!!!!!!kp'$#4   .71#3df$$$$$$$('{$$$9_,4          :l",
"5(l7!!!!!!!!!!!!!!!<m!(%l *@og/i^a$$$$$$$$$(l{$$#_&           1+",
"o(>r!!!!!!!!!!!!!!!2mp;$01 ,(3^da$$$$$$$$$$$>b0$0_6            @",
"!-$n:!!!!!!!!!!!!!eqmm4$$(($]^dj$$$$$$$$$$$$${[9$n_[           *",
"@}n$&+!!!!!!!~<8qhq< -9$$$$f^^j$$$$$$$$$$$$$$$,l((5g4           ",
"*+1(( 2eee8qq+ b-5%($$$$$($/i^a$$$$$$$$$$$$$$$(&&(9_'           ",
" )+,$(>{{9(((($$/aff3$$${b;9jddj$$$$$$$$$$$$$$$%['(>_[          ",
" *+&$$$$$jffciddcfa/$#$9|**4#/ii/$$$$$$$$$$$$$$${45$n,|         ",
" r+#/fcd^dd]fa/$$$$$n0(l*7+7=&%]]$$$$$$$$$$$$$$$$_4{(#;4        ",
" oo(]^^cf/$$$$$$$$$9;(; :!!!!}1{]]$$$$$$$$$$$$$$$(&40%5&        ",
" :;3^c/$$$$$$$$$$$('9{4)!!!!!!!7'f]$$$$$$$$$$$$$$$04-(9_-       ",
"*@(d]$$$$$$$$$$$$$5g(b1!!!!!!!!!!1a]$$$$$$$$$$$$(#& 4,$9_'4     ",
"=6fi$$$$$$$$$$$$$0[(6*+!!!!!!!!!!2)$c$$$$$$$(0_'|-g_9$j(9n;|    ",
"=(dj$$$$$$$$$$$$(ln{ :!!!!!!!!!!!!87(3$$(n_,__#%$3f]ca$$#5>_[   ",
"gfa$$$$$$$$$$$$$;&%[=!!!!!!!!!!!!!qh;$(0((((($$]di3/$$$$${'9064 ",
"$c$$$$$$$$$$$$${|>g1+!!!!!!!!!!!!qhl($$(0{,&|_$d3$$$$$$$$${[{(ng",
"j$$$$$$$$$$$$$>|_0 7!!!!!!!!!!!2qqg$a%(ng[   b$d/$$$$$$$$$${|{$$",
"0,_59(($$$$$$(ll(&@!!!!!!!!!!!ep7nac/_(n&    o(d/$$$$$$$$$$$#4{$",
"(({;||b;,5>((&40n1!!!!!!!!!!!8h1$]f$$_{0&    =0ia$$$$$$$$$$${45$",
"4bg5%n,[4 444 _(|+!!!!!!!!!2qkg3da$$$,,0&    o'cf$$$$$$$$$$$,4(6",
"oo. 4&5%9_gb4&(_:!!!!!!!!!ep)>]ij$$$$,,0&    =&ff$$$$$$$$$$(-g{4",
"!!!+7o146{((($(r!!!!!!!!2kq[jd]/$$$$$5l>&    1 /]$$$$$$$$$$9|>l=",
"!!!!!!!+@.[#(${!~~22!!!<p+5c^]$$$$$$$n|9&    @b$i3$$$$$$$$$,;{*+",
"!!!!!!!!!!+:|($0-bo<qqqq.(]^]$$$$$$$${|(&   .*%$/c]j$$$$$$(->')!",
"!!!!!!!!!!!!@({##{{{>%%((f^i$$$$$$$$$>|%&  1*%5|6(aif/$$$${g9*+!",
"!!!!!!!!!!!!49_,&&&lll&n$f^f$$$$$$$$$>40g 1 %&:!!}'(fia$$$g%,:!!",
"!!!!!!!!!!!2b{_l      *o%j^3$$$$$$$$$>4##r|%&:!!!!e!;$f]j(#(4!!!",
"!!!!!!!!!!!<65,4       @l$df$$$$$$$$$>4_0_(&=!!!!!!2k@5/3%(%@!!!",
"!!!!!!!!!!!<9_'        =7%ff$$$$$$$$9& 5$(&1+!!!!!!!!<qb($$>+!!!",
"!!!!!!!!!!22{_l        *+&j]$$$$$$9g4|,($# }!!!!!!!!!!8q>$$$572!",
"2!!!!!!!!!<|0_|         })(]$$$(06|l5($$$# }!!!!!!!!!!k+($%($%.<",
"k<!!!!!!!!k'n,          o+5a/(5l&_%jf3a(g(&.!!!!!!!!!!pl$9l*l>(,",
"0oq<!!!!!2q%_'          o!b$$5n$3ci3/$$${'%-)!!!!!!!!<<%(,4 *o&(",
",%g2qe!!!8o(_l          =!}($a]dcj$$$$$$$g'0|7!!!!!!!q-$n[    .o",
"}*0%bqqe2h&(_|        r@!+*(a^]/$$$$$$$$$(l;{*+!!!!!~~%>;      r",
"*:7g({1hmk%%_4      .@+}*_($a^f$$$$$$$$$$$0|n{1!!!!!8&%_[       ",
"  )+*%$#r-$96    *o}!1'9/fj%$^c$$$$$$$$$$$$,40#)!!!2+%n;        "};
