/* XPM */
static char * cyan_concrete_xpm[] = {
"64 64 12 1",
" 	c #17A1B0",
".	c #129FAE",
"+	c #109EAD",
"@	c #16A1B0",
"#	c #139FAE",
"$	c #15A0AF",
"%	c #119EAD",
"&	c #14A0AF",
"*	c #119FAE",
"=	c #13A0AF",
"-	c #16A0AF",
";	c #149FAE",
"                  .++++@            #+$               @%.       ",
"                 &++*%+.            @++$              .+@       ",
"                $+.@  $+=           $+++#            $+$        ",
"               -%&     -.$          .--#+%$         $+.         ",
"               .$       @*$        &$   @=+.-       *+&         ",
"              .&         -%$      $.      @#%#@    .++#         ",
"             ##           $%$    -%$        $*+&  &++++$        ",
"            &.             &+$  @*%           #++#+*$#++$       ",
"           $%@              .+=-*+&            $+++$  $%+$      ",
"          $%$               @+++++@             ;+&     #+$     ",
"         $+#                 $+++.              %*       $%#    ",
"        @%%                   +++&             $+$        -..-  ",
"       @*+$                  @+++&             ..           #%& ",
"$      .+.                   &+++%            $+$            $+.",
"+#@  @.++$                   %++++.           *#              ;+",
";%+.;%++%                   #++++++.         &+-              #.",
"  &*++++%                  $++.$@#++.       @+#              @. ",
"    $%+++$                @%+#    $++.@     #+-              #$ ",
"      ;+++$               .+&      $%+*$   $+#              @#  ",
"       $%++$             .+&        @*++$ @%+-              #@  ",
"        #+++$           &+#          @*++.%+.              -#   ",
"       @%&&#%#         &+.            @%++++$              #@   ",
"       &$   @#.-      &+.              &+++%              $#    ",
"      @#      $%#@   #++@              &+++*@             .@    ",
"      ;@       -.+#;.++$               .+++++&           $#     ",
"     @$          .+++++               @++.%+++%&@        %-     ",
"     $            .++++#              &+.  @&#+++#$     ;#      ",
"    --            $++**+%$            *+$      $#++%&@ $+$      ",
"    $             &+%@ $#+*$         -+.          &*++%%+$      ",
"   $@             %+$    $.+*$       #+$            $+++++.&    ",
"  $#             &+.       $.+%&    @+.              %.;*++++.&@",
"+%+&            @++@         &+++#- .+&             @%@  @&.++++",
"*++#            .+#           @#++++++              &#      #+;&",
" $%+$          &++              $.+++#              .-      %$  ",
"   #+$        $++&                &++;             -.      $.   ",
"    $%$      @*++                  -.+$            #$      #-   ",
"     -.&     .++#                    .+.@         @%      -#    ",
"       ..@  .+++;                    .+++$        &#      #@    ",
"        .%;.++.+%                  $.+++++.-      %-     @#     ",
"         .+++$ .+$                &+++#-$.++;    &%      #-     ",
"         @++$  @+#              $.++.-    $.+%& -+;     -.      ",
"          +#    &+@            #++*$        $++%++.-    .;      ",
"         &.      +#          $%++&           @.++++++++++%      ",
"        @%-      #+@       $.++.@              %+++.#&&&#+&     ",
"        .$       @+#     -#++%$               $+.@       $%-    ",
"       $.         #+$  @#+++.@               $%+-         $.    ",
"      @*@         &+*&#++++$                -%+$           $#   ",
"      .&          $+++%%++;                @*+#             &&  ",
"     &.          $%+#$  $+.               @*+%               #$ ",
"    $%$        &%%#@     $%.             @.+++$               #$",
"$  $+#      $#++.@        -*&            .+;@#%=               .",
"+&&++@   $=%++++$          @.$          .%$   @..-              ",
"++++.$&#%#&@  #+;           @%$       @..@      $*$             ",
"++++++.&       &%            $%$     @*.          #.@           ",
"+++%&@          #&            $%$   -.=            $.$          ",
"+*$              .             #+& $%$               #.@       $",
"$                $&            @++#%$                 $%&    @.+",
"                  #@           #+++$                   @..$ &+%-",
"                  -#         $.+#+#                      .+++%- ",
"                   #$      $.%&  $%@                      ++%-  ",
"                   $.    &*+#@    .#                     $++$   ",
"                    +.-#++#@      $+$                    %+$    ",
"                   $++++.$         #%                   #+$     ",
"                   *+++&           @+#                 $+#      "};
