/* XPM */
static char * netherrack_01_xpm[] = {
"64 64 142 2",
"  	c #441624",
". 	c #401522",
"+ 	c #461724",
"@ 	c #621D2F",
"# 	c #641E30",
"$ 	c #5A1C2A",
"% 	c #591C2A",
"& 	c #561C2A",
"* 	c #511B29",
"= 	c #501A28",
"- 	c #4C1826",
"; 	c #4D1826",
"> 	c #611D2F",
", 	c #681F32",
"' 	c #78223A",
") 	c #7A223B",
"! 	c #762139",
"~ 	c #722037",
"{ 	c #702036",
"] 	c #6F2035",
"^ 	c #691F32",
"/ 	c #651E31",
"( 	c #651E30",
"_ 	c #531A29",
": 	c #451624",
"< 	c #421623",
"[ 	c #3F1522",
"} 	c #4E1827",
"| 	c #611D2E",
"1 	c #541B29",
"2 	c #4E1927",
"3 	c #511928",
"4 	c #631E30",
"5 	c #732137",
"6 	c #722137",
"7 	c #6F2036",
"8 	c #6B1F33",
"9 	c #571B2B",
"0 	c #471725",
"a 	c #401523",
"b 	c #5B1C2C",
"c 	c #5F1D2D",
"d 	c #531B29",
"e 	c #671F32",
"f 	c #79223B",
"g 	c #621E2F",
"h 	c #591B2B",
"i 	c #481725",
"j 	c #631E2F",
"k 	c #5E1D2D",
"l 	c #571C2A",
"m 	c #521B29",
"n 	c #501B29",
"o 	c #4F1A28",
"p 	c #79223A",
"q 	c #601D2E",
"r 	c #5C1C2D",
"s 	c #491725",
"t 	c #511929",
"u 	c #4D1927",
"v 	c #4D1827",
"w 	c #561A2A",
"x 	c #712036",
"y 	c #5D1D2C",
"z 	c #4B1826",
"A 	c #411523",
"B 	c #5E1C2E",
"C 	c #5C1D2C",
"D 	c #4F1927",
"E 	c #581B2B",
"F 	c #501928",
"G 	c #461725",
"H 	c #5F1D2E",
"I 	c #5D1D2D",
"J 	c #5B1D2C",
"K 	c #581C2B",
"L 	c #5D1C2D",
"M 	c #732138",
"N 	c #5C1C2B",
"O 	c #431624",
"P 	c #541A2A",
"Q 	c #5A1C2B",
"R 	c #581C2A",
"S 	c #551C29",
"T 	c #5B1C2B",
"U 	c #561B2A",
"V 	c #591B2C",
"W 	c #5B1D2B",
"X 	c #5A1B2C",
"Y 	c #611E2F",
"Z 	c #421523",
"` 	c #521A29",
" .	c #5E1D2E",
"..	c #6A1F33",
"+.	c #411623",
"@.	c #431623",
"#.	c #521929",
"$.	c #561B2B",
"%.	c #551B29",
"&.	c #541A29",
"*.	c #5E1C2D",
"=.	c #5B1C2D",
"-.	c #5A1C2C",
";.	c #551A2A",
">.	c #4A1826",
",.	c #461625",
"'.	c #451725",
").	c #4A1825",
"!.	c #4A1725",
"~.	c #4C1827",
"{.	c #4A1726",
"].	c #5B1D2D",
"^.	c #591C2C",
"/.	c #712037",
"(.	c #6E2035",
"_.	c #772139",
":.	c #691F33",
"<.	c #752138",
"[.	c #671F31",
"}.	c #6C2034",
"|.	c #5C1C2C",
"1.	c #531A2A",
"2.	c #451625",
"3.	c #6D2035",
"4.	c #742138",
"5.	c #561A2B",
"6.	c #4F1928",
"7.	c #661E31",
"8.	c #77223A",
"9.	c #6B1F34",
"0.	c #6D2034",
"a.	c #671E31",
"b.	c #601D2D",
"c.	c #5E1D2C",
"d.	c #551C2A",
"e.	c #5C1D2B",
"f.	c #591C2B",
"g.	c #561C29",
"h.	c #5B1B2C",
"i.	c #5A1B2B",
"j.	c #501A29",
"k.	c #4E1A27",
"                    . + @ # @ $ % & * * * * * * * * * * * * * * * = - ; > # , ' ) ) ) ! ~ { ] ^ / ( # # # # _ - :               ",
"                    < [ } # # | % % 1 * * * * * * * * * * * * * * 2 - 3 4 # 5 ) ' 6 { { { { { 7 ] 8 # # # # 9 - 0               ",
"                      a . b # # c % % d * * * * * * * * * * * * 2 - ; b # e f 6 / # # # # # # # # # g 4 # # h - i               ",
"                      < [ : j # # k % l m * * * * * * * * n o - - 2 b # # { p / # # # # # # # # # # # q # # r - s               ",
"                        a [ t # # # c % l * * * * * * o u ; v w r 4 # # ( ! x # # # # # # # # # # # # y # # 4 ; z               ",
"                        < [ A B # # # > C & m * = D 3 E h q 4 # # # # # e p 8 # # # # # # # # # # # # c j # 4 F -               ",
"                          a [ v 4 # # # # 4 > g 4 4 4 # # # # # # # # # 7 p / # # # # # # # # # # # # c c # # h - G             ",
"                          < [ A B # # # # # # # # g H c c I J K & L # # M 6 # # # # # # # # # # # # # g N # # L - i             ",
"                          O [ [ P # # # j c k Q % % R S 1 * * * o h # / p ] # # # # # # # # # # # # # # $ j # 4 v s             ",
"                        < a [ [ 9 # # q $ % R & 1 * * * * * * * o h # ^ p e # # # # # # # # # # # # # # T H # # U -             ",
"                    < . [ [ . 2 4 # # y % 1 * * * * * * * * * * 2 h # { p ( # # # # # # # # # # # # # # k y # # L - :           ",
"              < A [ [ [ [   V 4 # # # W R * * * * * * * * * * * - h # x 6 # # # # # # # # # # # # # # # c $ # # 4 D i           ",
"        O A . [ [ [ . G w g # # # # # C R * * * * * * * * * * * - X ( ! { # # # # # # # # # # # # # # # | % Y # # V s           ",
"  O Z . [ [ [ a O ` r 4 # j H k  .# # k l * * * * * * * * * * o ; q / p ..# # # # # # # # # # # # # # # 4 % c # # @ v           ",
"[ [ [ A +.} P H j g c y % & 1 * * 4 # c l * * * * * * * * * * 2 ; 4 / ' / # # # # # # # # # # # # # # # # % C # # # h :     @.+.",
"#.P $.> j 4 q k $ % & 1 * * * * * L # g R * * * * * * * * * * ; F 4 / ! ( # # # # # # # # # # # # # # # # % $ # # # 4 F @.+.A O ",
"# # j c C % % & 1 * * * * * * * * h # # J m * * * * * = = o 2 - h # ( 7 # # # # # # # # # # # # # # 4 q c % % # # # # 4 4 4 4 4 ",
"H C % % l %.m * * * * * * * * * * _ # # # 4 I h h &.D v v ; ; } H # # # q c c c c k I y C W Q % % % % % % % y # # # # # # # # j ",
"% R S m * * * * * * * * * * * * * } 4 # # # # # # # 4 4 4 g > 4 # # # # # # Y c c c c I y C C y I c c c q 4 # # # # # # # | y % ",
"1 * * * * * * * * * * * * * * * * v > # # *.=.=.=.=.r *.q g 4 4 4 4 # # # # # # # # # # # # # 4 4 4 4 4 4 4 4 4 4 # # 4 C % % & ",
"* * * * * * * * * * * * * * * * * ; -.# r ; - - - - - - ; ; ; ; ; F ;.h X q 4 # # # 4  .h h 9 _ D ; ; - >.s i ,.0  .# 4 % % d * ",
"* * * * * * * * * * * * * * * * * u h # =.- - i G '.        : '.G G 0 i i s v > # H } ; - - - s i G               z 4 # y % m * ",
"* * * * * * * * * * * * * * * * * 2 9 # H ; -                                 P #  .; - ).G                       < E # g % S * ",
"* * * * * * * * * * * * * * * * * 2 3 4 4 ; z                                 G j 4 v - G                         @.: j # k R * ",
"* * * * * * * * * * * * * * * * * 2 v 4 4 v !.                                @.V # w - 0                           . E # # T 1 ",
"* * * * * * * * * * * * * * * * * u ; 4 # &.z                                   ~.4 *.; i                           A {.4 # | R ",
"1 * * * * * * * * * * * = o o 2 ; - } 4 # h z                                   A q 4 F z                           < A > # # H ",
"H ].].].^.K $.&._ _ _ _ _ _ _ w E h L # # r -                                   A P # b - :                         a . r # # # ",
"# # # # # # # # # # # # # # # # # # # # # 4 ;                                   < 0 4 4 D i                   O +.[ < P 4 # # # ",
"{ { /.7 / # # # ( , (.{ { { { { 7 ] ] , # 4 3                                   < .  .# b >.              < A A i ;.@ # # # / ^ ",
") ) ) ) _...# # { f ) f ' 6 { (.:./ / g g # h                                   @.[ P # 4 3 :         < < z P H 4 # ( e ] M f f ",
"f <.{ { ! p 8 # ..f ' [.( # # # # # # # y # H :                                   [ 0 4 # B s :   0 _ E g 4 # ( , { ! f ) ) ) f ",
"/ ( # # ( }.! 8 # { f :.# # # # # # # # |.j 4 1.2.O @.< < < < < < < < < < < < < A [ A 4 # # L =.j 4 # # # / 3.<.f ) ) ) p 6 ] , ",
"# # # # # # / { ..( 4.<.( # # # # # # # c c # # 4 j L 5.P P P P 6.~.>.2.2.  A A   2.u 4 # # # # # # # 7.{ ' ) ) f 8.{ 9./ # # # ",
"# # # # # # # # ^ / / 4.0.# # # # # # # H T # # # # ( / / / ( ( # # 4 4 4 4 4 4 4 4 4 # # # # # # ( 3.p ) ) ' { :.( # # # # # # ",
"# # # # # # # # # 4 j 7.<.a.# # # # # # j $ j # # x _.f f f 8._.4.M x { { { { 3...7./ / ( # # # # /.) ) <.}./ # # # # # # # # # ",
"# # # # # # # # # # H # [.{ ( # # # # # # $ c # / f ) ' 4.~ { { { { { { { { { 7 7 ] ] ] 3.# # # ( ' ) 9.( # # # # # # # # # # # ",
"# # # # # # # # # # | y # , , # # # # # 4 % k # / f f 7.( # # # # # # # # # # # # # # # # # q # # M f / # # # # # # # # # # # # ",
"# # # # # # # # # # # T b.# 7.g j # # j k % k # / f f / # # # # # # # # # # # # # # # # # # C # # { f / # # # # # # # # # # # # ",
"# # # # # # # # # # # c $ | # 4 y y T $ $ k 4 # ( ' f / # # # # # # # # # # # # # # # # # # k | # (.f ..# # # # # # # # # # # # ",
"# # # # # # # # # # # j % T 4 # # q c q 4 # # # # 6 ) ..# # # # # # # # # # # # # # # # # # c y # a.f { # # # # # # # # # # # # ",
"# # # # # # # # # # # # % % c.# # # # # # # # # # 3.) { # # # # # # # # # # # # # # # # # # g Q 4 ( 8.6 # # # # # # # # # # # # ",
"# # # # # # # # # # # | % % y # # # # # # # # # # ( ! ' ..# # # # # # # # # # # # # # # # # # $ q # { ' ( # # # # # # # # # # # ",
"# # # # # # # # # # # T % $ g # # | c c q j # # # # 7.~ ' 8 # # # # # # # # # # # # # # # # # T k # 8 p e # # # # # # # # # # # ",
"# # # # # # # # # # y % % c # # | % % % % % T c g # # # :.5 (.( # # # # # # # # # # # # # # # k $ # / ' ] # # # # # # # # # # # ",
"# # # # # # # # # c % % C # # g $ % % % % % % % % T c g # # ..3.7.# # # # # # # # # # # # # # c % j # { 6 # # # # # # # # # # # ",
"# # # # # # # # q % % T 4 # # C % l m * m %.S l % % % % C q # # a.4 # # # # # # # # # # # # # k % H # , ' ( # # # # # # # # # # ",
"# # # # # # # | % % % > # # c % l * * * * * * * * d S l % % T c 4 # g c c H j # # # # | c k Q $ T g # # 5 , # # # # # # # # # # ",
"# # # # # # q % % % | # # g $ R m * * * * * * * * * * * * 1 d.R Q H # # j c T $ Q $ $ $ Q y c g # # # # , (.# # # # # # # # # # ",
"g | | | H y % % % c # # # C % 1 * * * * * * * * * * * * * * * * d & T | # # # | c c | # # # # # # # # # # / q c c q q | | | | | ",
"% % % % % % % % y # # # | % l * * * * * * * * * * * * * * * * * * * * d.k # # # # # # # g c y $ % T k | 4 # # g c y Q $ % % % % ",
"e.Q % % % % T c # # # # e.% m * * * * * * * * * * * * * * * * * * * * * m H # # # # c Q % % % & S d m m m f.H 4 # # # 4 | c c y ",
"# # # # # # # # # # # | % & * * * * * * * * * * * * * * * * * * * * * * * h # # # C % % & 1 * * * * * * * * 2 3 b 4 # # # # # # ",
"# # # # # # # # # # # C % d * * * * * * * * * * * * * * * * * * * * * * * E # # g % g.m * * * * * * * * * * * 2 - D r # # # # # ",
"# # # # # # # # # # j % R * * * * * * * * * * * * * * * * * * * * * * * o U # # H R * * * * * * * * * * * * * * - - ; q # # # # ",
"# # # # # # # # # # c % & * * * * * * * * * * * * * * * * * * * * * * * 2 U # # c & * * * * * * * * * * * * * * - - &.4 # # # # ",
"# # 4 q =.H # # # # c % & * * * * * * * * * * * * * * * * * * * * * * * ; h # # c S * * * * * * * * * * * * * u - _ j # # # # # ",
"h _ - s : : X # # # q % % m * * * * * * * * * * * * * * * * * * * * * * - h # # y d * * * * * * * * * * * * u - &.j # # # # 4 q ",
"!.0           h.# # # T % S * * * * * * * * * * * * * * * * * * * * * o - h # # T * * * * * * * * * * * = u ; w 4 # # # 4 -.3 ; ",
"              < r # # q % % m * * * * * * * * * * * * * * * * * * * * 2 ; *.# # % * * * * * * * * * * = - ; |.# # # @ E } - !.0 ",
"              @.: > # # e.% l * * * * * * * * * * * * * * * * * * * * - ; 4 # # l * * * * * * * * * 2 - F B # # 4 i.} - !.G     ",
"                A ~.4 # > % % 1 * * * * * * * * * * * * * * * * * * = - D 4 # # f.* j.o o o o o k.; ; ;.j # # H ` - z 0         ",
"                O . P # # c.% % m * * * * * * * * * * * * * * * * * o - w # # # # g r h h 9 _ F F ;.L # # # H } - s :           ",
"                  A A r # # T % l * * * * * * * * * * * * * * * * * ; - V # # # # # # # # # # 4 4 # # # # # w - i               "};
