/* XPM */
static char * netherrack_02_xpm[] = {
"64 64 142 2",
"  	c #441624",
". 	c #401522",
"+ 	c #461724",
"@ 	c #621D2F",
"# 	c #641E30",
"$ 	c #5A1C2A",
"% 	c #591C2A",
"& 	c #561C2A",
"* 	c #511B29",
"= 	c #501A28",
"- 	c #4C1826",
"; 	c #4D1826",
"> 	c #611D2F",
", 	c #621E2F",
"' 	c #5A1C2B",
") 	c #5B1C2B",
"! 	c #5E1D2D",
"~ 	c #5F1D2D",
"{ 	c #531A29",
"] 	c #451624",
"^ 	c #421623",
"/ 	c #3F1522",
"( 	c #4E1827",
"_ 	c #611D2E",
": 	c #541B29",
"< 	c #4E1927",
"[ 	c #511928",
"} 	c #631E30",
"| 	c #5D1D2C",
"1 	c #581C2A",
"2 	c #551C29",
"3 	c #551C2A",
"4 	c #581C2B",
"5 	c #5E1D2E",
"6 	c #571B2B",
"7 	c #471725",
"8 	c #401523",
"9 	c #5B1C2C",
"0 	c #531B29",
"a 	c #631E2F",
"b 	c #591B2B",
"c 	c #481725",
"d 	c #571C2A",
"e 	c #521B29",
"f 	c #501B29",
"g 	c #4F1A28",
"h 	c #5A1C2C",
"i 	c #5C1C2D",
"j 	c #491725",
"k 	c #511929",
"l 	c #4D1927",
"m 	c #4D1827",
"n 	c #561A2A",
"o 	c #4B1826",
"p 	c #411523",
"q 	c #5E1C2E",
"r 	c #5C1D2C",
"s 	c #4F1927",
"t 	c #581B2B",
"u 	c #601D2E",
"v 	c #501928",
"w 	c #651E30",
"x 	c #591B2C",
"y 	c #461725",
"z 	c #651E31",
"A 	c #681F32",
"B 	c #6E2035",
"C 	c #702036",
"D 	c #6F2036",
"E 	c #722137",
"F 	c #6D2034",
"G 	c #6B1F34",
"H 	c #521929",
"I 	c #5D1C2D",
"J 	c #431624",
"K 	c #541A2A",
"L 	c #661E31",
"M 	c #6F2035",
"N 	c #712037",
"O 	c #78223A",
"P 	c #79223A",
"Q 	c #762139",
"R 	c #551B29",
"S 	c #6C2034",
"T 	c #79223B",
"U 	c #7A223B",
"V 	c #712036",
"W 	c #561B2A",
"X 	c #732138",
"Y 	c #6C1F34",
"Z 	c #772139",
"` 	c #742138",
" .	c #421523",
"..	c #521A29",
"+.	c #5F1D2E",
"@.	c #411623",
"#.	c #431623",
"$.	c #561B2B",
"%.	c #752139",
"&.	c #4E1A27",
"*.	c #611E2F",
"=.	c #541A29",
"-.	c #5E1C2D",
";.	c #5B1C2D",
">.	c #551A2A",
",.	c #5A1B2C",
"'.	c #6A1F33",
").	c #6B1F33",
"!.	c #451725",
"~.	c #691F32",
"{.	c #4A1725",
"].	c #4C1827",
"^.	c #5C1D2B",
"/.	c #5B1D2D",
"(.	c #591C2C",
"_.	c #511A29",
":.	c #5C1C2B",
"<.	c #671F32",
"[.	c #752138",
"}.	c #531A2A",
"|.	c #451625",
"1.	c #6D2035",
"2.	c #561A2B",
"3.	c #4F1928",
"4.	c #4A1826",
"5.	c #77223A",
"6.	c #691F33",
"7.	c #5B1D2B",
"8.	c #591C2B",
"9.	c #561C2B",
"0.	c #601D2D",
"a.	c #551B2A",
"b.	c #571B2A",
"c.	c #671E31",
"d.	c #5E1D2C",
"e.	c #571C2B",
"f.	c #521928",
"g.	c #732137",
"h.	c #611E2E",
"i.	c #722037",
"j.	c #5B1B2C",
"k.	c #5A1B2B",
"                    . + @ # @ $ % & * * * * * * * * * * * * * * * = - ; > # , ' % % % ) ! ~ ~ , # # # # # # { - ]               ",
"                    ^ / ( # # _ % % : * * * * * * * * * * * * * * < - [ } # | % 1 & 2 2 2 2 3 3 & 4 5 # # # 6 - 7               ",
"                      8 . 9 # # ~ % % 0 * * * * * * * * * * * * < - ; 9 # a % & * * * * * * * * * * * a # # b - c               ",
"                      ^ / ] a # # ! % d e * * * * * * * * f g - - < 9 # # ~ % * * * * * * * * * * * * h # # i - j               ",
"                        8 / k # # # ~ % d * * * * * * g l ; m n i } # # # ) & * * * * * * * * * * * * { } # } ; o               ",
"                        ^ / p q # # # > r & e * = s [ t b u } # # # # # a % 0 * * * * * * * * * * * * g > # } v -               ",
"                          8 / m } # # # # } > , } } } # # # w w w # # # ~ % * * * * * * * * * * * * * g x # # b - y             ",
"                          ^ / p q # # # # # # w z A B C D C E F G _ # # | & * * * * * * * * * * * * * f H } # I - c             ",
"                          J / / K # # # L M N O P P Q C F z w # _ ~ # # $ R * * * * * * * * * * * * * * m @ # } m j             ",
"                        ^ 8 / / 6 # # S T U O V F z w # # # # # ~ ~ # , % e * * * * * * * * * * * * * * ; h # # W -             ",
"                    ^ . / / . < } # # X U Y z # # # # # # # # # ! ~ # ~ % * * * * * * * * * * * * * * * < n # # I - ]           ",
"              ^ p / / / /   x } # # w Z O w # # # # # # # # # # ' ~ # ! & * * * * * * * * * * * * * * * g m } # } s c           ",
"        J p . / / / . y n , # # # # # ` Z w # # # # # # # # # a $ ~ # ) 2 * * * * * * * * * * * * * * * g ; 5 # # x j           ",
"  J  .. / / / 8 J ..i } # a +.! 5 # # V ` w # # # # # # # # # u % , # % 0 * * * * * * * * * * * * * * * * - b # # @ m           ",
"/ / / p @.( K +.a , ~ | % & : * * } # D ` # # # # # # # # # # ! % # # % * * * * * * * * * * * * * * * * * - { # # # b ]     #.@.",
"H K $.> a } u ! $ % & : * * * * * I # A %.w # # # # # # # # # ' ) # # 1 * * * * * * * * * * * * * * * * * - m } # # } v #.@.p J ",
"# # a ~ r % % & : * * * * * * * * b # # C w # # # # # , @ +.| % ~ # # & * * * * * * * * * * * * * * * g &.- ; } # # # } } } } } ",
"+.r % % d R e * * * * * * * * * * { # # # # *.~ ~ | ' $ $ % % $ > # # +.0 = g g g < < < < l - - - - - - - ; =.# # # # # # # # a ",
"% 1 2 e * * * * * * * * * * * * * ( } # # # # # # # # # # } , # # # # # } } +.x b b b W K { { K W b b b I a # # # # # # # _ | % ",
": * * * * * * * * * * * * * * * * m > # # -.;.;.;.;.i -.u , } } } } # # # # # # # # # # # # # # w z z z z z w # # # # } r % % & ",
"* * * * * * * * * * * * * * * * * ; h # i ; - - - - - - ; ; ; ; ; v >.b ,.u } # # # z '.C C V ` O P O Q C M ).w _ , # } % % 0 * ",
"* * * * * * * * * * * * * * * * * l b # ;.- - c y !.        ] !.y y 7 c c j m > # '.P U U U P E C '.z w # # # # # | # # | % e * ",
"* * * * * * * * * * * * * * * * * < 6 # +.; -                                 K # '.U U ` ).z # # # # # # # # # # ! u # , % 2 * ",
"* * * * * * * * * * * * * * * * * < [ } } ; o                                 y a z P T ~.# # # # # # # # # # # # _ ) # # ! 1 * ",
"* * * * * * * * * * * * * * * * * < m } } m {.                                #.x # E U B # # # # # # # # # # # # # $ u # # ) : ",
"* * * * * * * * * * * * * * * * * l ; } # =.o                                   ].} ).U C # # # # # # # # # # # # # | ^.# # _ 1 ",
": * * * * * * * * * * * = g g < ; - ( } # b o                                   p u w Z Z w # # # # # # # # # # # # ~ % } # # +.",
"+./././.(.4 $.=.{ { { { { { { n t b I # # i -                                   p K # B T L # # # # # # # # # # # a r % , # # # ",
"# # # # # # # # # # # # # # # # # # # # # } ;                                   ^ 7 } z O M # # # # # # # # # a ! $ $ ~ # # # # ",
"C C N D z # # # # , +.~ ~ ~ ~ ~ ~ ! ! u # } [                                   ^ . 5 # B ` # # # # # # # _ | $ ) ~ } # # # z ~.",
"U U U U Z '.# # ! % % % 1 & 2 2 0 * * _.+.# b                                   #./ K # w %.L # # # a ~ :.r ~ a # # w <.M X T T ",
"T [.C C Q P ).# _ % % e * * * * * * * * >.# +.]                                   / 7 } # '.B # _ ~ ~ u } # # w A C Q T U U U T ",
"z w # # w S Q ).# ~ % 0 * * * * * * * * < > } }.|.J #.^ ^ ^ ^ ^ ^ ^ ^ ^ ^ ^ ^ ^ p / p } # # z , # # # # # z 1.[.T U U U P E M A ",
"# # # # # # z C '.# | d * * * * * * * * g x # # } a I 2.K K K K 3.].4.|.|.  p p   |.l } # # # # # # # L C O U U T 5.C G z # # # ",
"# # # # # # # # ~.z # r : * * * * * * * g [ } # # # # # # # # # } } } } } } } } } } } # # # # # # w 1.P U U O C 6.w # # # # # # ",
"# # # # # # # # # } a } ) e * * * * * * f m @ # # ! 7.$ % $ ' 7.r | ! ~ ~ ~ ~ u > } # # # # # # # N U U [.S z # # # # # # # # # ",
"# # # # # # # # # # +.# a 8.* * * * * * * - ,.# # $ % 1 d & 2 2 2 2 2 2 2 2 2 3 3 & & & & (.} # w O U G w # # # # # # # # # # # ",
"# # # # # # # # # # _ | # , 9.* * * * * * - 6 # # % % e * * * * * * * * * * * * * * * * * * h # # X T z # # # # # # # # # # # # ",
"# # # # # # # # # # # ) 0.# , a.* * * f < - W # # % % * * * * * * * * * * * * * * * * * * * [ } # C T z # # # # # # # # # # # # ",
"# # # # # # # # # # # ~ $ _ # a =.< l - m b.a # # ' % * * * * * * * * * * * * * * * * * * * s -.# B T '.# # # # # # # # # # # # ",
"# # # # # # # # # # # a % ) } # } 9 b 9 a # # # # | % 0 * * * * * * * * * * * * * * * * * * g n # c.T C # # # # # # # # # # # # ",
"# # # # # # # # # # # # % % d.# # # # # # # # # # u % 3 * * * * * * * * * * * * * * * * * * f ( } w 5.E # # # # # # # # # # # # ",
"# # # # # # # # # # # _ % % | # # # # # # # # # # # ) 1 0 * * * * * * * * * * * * * * * * * * ; 9 # C O w # # # # # # # # # # # ",
"# # # # # # # # # # # ) % $ , # # _ ~ ~ u a # # # # } d.% 0 * * * * * * * * * * * * * * * * * l W # ).P <.# # # # # # # # # # # ",
"# # # # # # # # # # | % % ~ # # _ % % % % % ) ~ , # # # , | 3 * * * * * * * * * * * * * * * * g ( } z O M # # # # # # # # # # # ",
"# # # # # # # # # ~ % % r # # , $ % % % % % % % % ) ~ , # # > h e * * * * * * * * * * * * * * g ; > # C E # # # # # # # # # # # ",
"# # # # # # # # u % % ) } # # r % d e * e R 2 d % % % % r u # # > e.* * * * * * * * * * * * * < - h # A O w # # # # # # # # # # ",
"# # # # # # # _ % % % > # # ~ % d * * * * * * * * 0 2 d % % ) ~ } # u 6 = g * * * * * = g < ; ; f.+.# # g.A # # # # # # # # # # ",
"# # # # # # u % % % _ # # , $ 1 e * * * * * * * * * * * * : 3 1 ' +.# # @ b s ; - - ; m < n b u } # # # A B # # # # # # # # # # ",
", _ _ _ +.| % % % ~ # # # r % : * * * * * * * * * * * * * * * * 0 & ) _ # # } I b b -.} } # # w z w # # # z u ~ ~ u u _ _ _ _ _ ",
"% % % % % % % % | # # # _ % d * * * * * * * * * * * * * * * * * * * * 3 ! # # # # # # w 6.C X P T %.M 6.# # # , ~ | ' $ % % % % ",
"^.' % % % % ) ~ # # # # ^.% e * * * * * * * * * * * * * * * * * * * * * e +.# # # z D 5.U U T E B 6.<.w } h.> # # # # } _ ~ ~ | ",
"# # # # # # # # # # # _ % & * * * * * * * * * * * * * * * * * * * * * * * b # # w [.U T g.F z # # # # # # # | ) +.} # # # # # # ",
"# # # # # # # # # # # r % 0 * * * * * * * * * * * * * * * * * * * * * * * t # # A T i.L # # # # # # # # # # # | % ' u # # # # # ",
"# # # # # # # # # # a % 1 * * * * * * * * * * * * * * * * * * * * * * * g W # # B O z # # # # # # # # # # # # } ' % % , # # # # ",
"# # # # # # # # # # ~ % & * * * * * * * * * * * * * * * * * * * * * * * < W # # C N # # # # # # # # # # # # # a $ % r # # # # # ",
"# # } u ;.+.# # # # ~ % & * * * * * * * * * * * * * * * * * * * * * * * ; b # # C C # # # # # # # # # # # # # r % r } # # # # # ",
"b { - j ] ] ,.# # # u % % e * * * * * * * * * * * * * * * * * * * * * * - b # # g.'.# # # # # # # # # # # } r % r } # # # # } u ",
"{.7           j.# # # ) % 2 * * * * * * * * * * * * * * * * * * * * * g - b # w Q z # # # # # # # # # # , ) % | # # # # } h [ ; ",
"              ^ i # # u % % e * * * * * * * * * * * * * * * * * * * * < ; -.# z Z w # # # # # # # # # _ $ % u # # # @ t ( - {.7 ",
"              #.] > # # ^.% d * * * * * * * * * * * * * * * * * * * * - ; } # z E # # # # # # # # } d.% ) _ # # } k.( - {.y     ",
"                p ].} # > % % : * * * * * * * * * * * * * * * * * * = - s } # w '.} *.u +.~ ~ ~ ! ' % | } # # +...- o 7         ",
"                J . K # # d.% % e * * * * * * * * * * * * * * * * * g - n # # # # } u ~ ~ ! r 7.7.| _ # # # +.( - j ]           ",
"                  p p i # # ) % d * * * * * * * * * * * * * * * * * ; - x # # # # # # # # # # # # # # # # # n - c               "};
