/* XPM */
static char * respawn_anchor_side1_xpm[] = {
"64 64 271 2",
"  	c #231349",
". 	c #221247",
"+ 	c #160A33",
"@ 	c #211247",
"# 	c #150A32",
"$ 	c #0F0628",
"% 	c #211245",
"& 	c #1C0F3F",
"* 	c #1C0F3E",
"= 	c #1D1041",
"- 	c #201144",
"; 	c #140930",
"> 	c #1D0F40",
", 	c #190D3A",
"' 	c #201245",
") 	c #201143",
"! 	c #12082D",
"~ 	c #211246",
"{ 	c #190D3B",
"] 	c #1F1042",
"^ 	c #11072C",
"/ 	c #1C0F3D",
"( 	c #11072B",
"_ 	c #221248",
": 	c #1E1041",
"< 	c #150A33",
"[ 	c #10072A",
"} 	c #221348",
"| 	c #1E1042",
"1 	c #1A0D3B",
"2 	c #180D39",
"3 	c #140932",
"4 	c #0F0629",
"5 	c #13082F",
"6 	c #160B34",
"7 	c #180C37",
"8 	c #130930",
"9 	c #180C39",
"0 	c #1B0E3C",
"a 	c #201145",
"b 	c #11072A",
"c 	c #12072B",
"d 	c #12082B",
"e 	c #14092E",
"f 	c #160A31",
"g 	c #150930",
"h 	c #1A074D",
"i 	c #140735",
"j 	c #1D0E40",
"k 	c #15092E",
"l 	c #170A31",
"m 	c #16092F",
"n 	c #230866",
"o 	c #210762",
"p 	c #1F0958",
"q 	c #26105E",
"r 	c #15092F",
"s 	c #170A32",
"t 	c #190B34",
"u 	c #1B0E36",
"v 	c #1C0F36",
"w 	c #1D1037",
"x 	c #1C0F37",
"y 	c #1A0E32",
"z 	c #190D30",
"A 	c #190E31",
"B 	c #160A2F",
"C 	c #160935",
"D 	c #190941",
"E 	c #160934",
"F 	c #270873",
"G 	c #26105F",
"H 	c #1B0D38",
"I 	c #1C0D39",
"J 	c #271942",
"K 	c #43335B",
"L 	c #47375F",
"M 	c #47375E",
"N 	c #44345C",
"O 	c #2B1D4A",
"P 	c #1B0D37",
"Q 	c #1F0959",
"R 	c #1B0C37",
"S 	c #25183E",
"T 	c #483860",
"U 	c #473860",
"V 	c #3C2D58",
"W 	c #2F214F",
"X 	c #2A1D49",
"Y 	c #1A0C35",
"Z 	c #13082C",
"` 	c #201142",
" .	c #23173A",
"..	c #42335A",
"+.	c #3F3159",
"@.	c #3D2E56",
"#.	c #392B54",
"$.	c #30224F",
"%.	c #291C47",
"&.	c #170B30",
"*.	c #14082D",
"=.	c #12072A",
"-.	c #1C0D38",
";.	c #1A0C36",
">.	c #160A30",
",.	c #3F3158",
"'.	c #3C2E56",
").	c #382A54",
"!.	c #1F1041",
"~.	c #1B0C38",
"{.	c #362853",
"].	c #3C2E57",
"^.	c #3D2F57",
"/.	c #32234F",
"(.	c #664B46",
"_.	c #7B5C3E",
":.	c #77573F",
"<.	c #302246",
"[.	c #2A1D46",
"}.	c #2A1E47",
"|.	c #403159",
"1.	c #45365D",
"2.	c #190B35",
"3.	c #977143",
"4.	c #F9C20C",
"5.	c #FCCD03",
"6.	c #FBCC03",
"7.	c #EEA904",
"8.	c #372310",
"9.	c #080410",
"0.	c #261C35",
"a.	c #46375E",
"b.	c #180B33",
"c.	c #180C30",
"d.	c #FBC40A",
"e.	c #FFDE00",
"f.	c #FFE400",
"g.	c #FEE200",
"h.	c #EEA700",
"i.	c #37230B",
"j.	c #06030B",
"k.	c #06030C",
"l.	c #12072C",
"m.	c #372953",
"n.	c #2E204E",
"o.	c #1D1040",
"p.	c #190649",
"q.	c #1B0849",
"r.	c #13082B",
"s.	c #1F1143",
"t.	c #10062B",
"u.	c #210763",
"v.	c #20075F",
"w.	c #2A1F3A",
"x.	c #41325A",
"y.	c #100729",
"z.	c #1D0F3D",
"A.	c #1C0851",
"B.	c #1A0847",
"C.	c #180D30",
"D.	c #FCC903",
"E.	c #FFE300",
"F.	c #1A1327",
"G.	c #160B30",
"H.	c #FBC803",
"I.	c #FEE100",
"J.	c #FEE000",
"K.	c #100629",
"L.	c #140831",
"M.	c #150931",
"N.	c #78593F",
"O.	c #EEAA04",
"P.	c #E9A101",
"Q.	c #36220B",
"R.	c #160933",
"S.	c #250870",
"T.	c #1E0855",
"U.	c #160C2E",
"V.	c #0B050B",
"W.	c #1F0858",
"X.	c #270776",
"Y.	c #1E0F3F",
"Z.	c #150B2C",
"`.	c #220865",
" +	c #24076E",
".+	c #1B084A",
"++	c #201042",
"@+	c #1B1428",
"#+	c #1D0851",
"$+	c #24076B",
"%+	c #2E204D",
"&+	c #170F2A",
"*+	c #0A0612",
"=+	c #342848",
"-+	c #47385F",
";+	c #40325A",
">+	c #170B31",
",+	c #3B2D56",
"'+	c #332551",
")+	c #2D204D",
"!+	c #342747",
"~+	c #403259",
"{+	c #342651",
"]+	c #3E2F55",
"^+	c #342652",
"/+	c #251842",
"(+	c #14092D",
"_+	c #201041",
":+	c #150B2D",
"<+	c #3E2F54",
"[+	c #1B122D",
"}+	c #140D1D",
"|+	c #150E1F",
"1+	c #200D52",
"2+	c #402F62",
"3+	c #15092D",
"4+	c #160931",
"5+	c #25086E",
"6+	c #240C65",
"7+	c #3E2F57",
"8+	c #180B34",
"9+	c #160936",
"0+	c #270775",
"a+	c #1A0D34",
"b+	c #261944",
"c+	c #18093D",
"d+	c #1E0859",
"e+	c #190D31",
"f+	c #3E3058",
"g+	c #271946",
"h+	c #190B33",
"i+	c #170A30",
"j+	c #18093C",
"k+	c #260774",
"l+	c #382954",
"m+	c #1C0E3C",
"n+	c #180C35",
"o+	c #1A0848",
"p+	c #18083E",
"q+	c #3A2C52",
"r+	c #1A0C37",
"s+	c #190C38",
"t+	c #231348",
"u+	c #211145",
"v+	c #1D0F3E",
"w+	c #160B2F",
"x+	c #180C32",
"y+	c #13092D",
"z+	c #12082C",
"A+	c #13092C",
"B+	c #150A2E",
"C+	c #190C36",
"D+	c #221246",
"E+	c #1F1040",
"F+	c #1A0E3C",
"G+	c #211144",
"H+	c #1F1144",
"I+	c #1D0F3F",
"J+	c #1F1043",
"K+	c #1B0E3D",
"L+	c #190D39",
"M+	c #12082E",
"N+	c #170C37",
"O+	c #1E0F40",
"P+	c #150932",
"Q+	c #10062A",
"R+	c #180C38",
"S+	c #170B36",
"T+	c #1A0D3A",
"U+	c #160B35",
"V+	c #180B36",
"                                                                                                                            . + ",
"                                                                                                                          @ # $ ",
"                                                                                                                        % # $ $ ",
"                . & * * * * * * * * * * * * * * * * * * * * * * * * * * * * * * * * * * * * * * * * * * * * =         - ; $ $ $ ",
"                > , , , , , , , , , , , , , , , , , , , , , , , , , , , , , , , , , , , , , , , , , , , , , , '     ) ! $ $ $ $ ",
"              ~ { , , , , , , , , , , , , , , , , , , , , , , , , , , , , , , , , , , , , , , , , , , , , , , *   ] ^ $ $ $ $ $ ",
"              & , , , , , , , , , , , , , , , , , , , , , , , , , , , , , , , , , , , , , , , , , , , , , , , , / ( $ $ $ $ $ $ ",
"          _ : , , , , , , , , , , , , , , , , , , , , , , , , , , , , , , , , , , , , , , , , , , , , , , , , , , < [ $ $ $ $ $ ",
"      } | 1 , , , , , , , , , , , , , , , , , , , , , , , , , , , , , , , , , , , , , , , , , , , , , , , , , , , , 2 3 4 $ $ $ ",
"      & , , , , , , , , , , , , , , , , , , , , , , , , , , , , , , , , , , , , , , , , , , , , , , , , , , , , , , , , 5 $ $ $ ",
"      * , , , , , , , , , , , , , , , , 2 6 6 6 6 6 6 6 6 6 6 6 6 6 6 6 6 6 6 6 6 6 7 , , , , , , , , , , , , , , , , , 8 $ $ $ ",
"      * , , , , , , , , , , , , , , , 9 ! $ $ $ $ $ $ $ $ $ $ $ $ $ $ $ $ $ $ $ $ $ 0 a { , , , , , , , , , , , , , , , 8 $ $ $ ",
"      * , , , , , , , , , , , , , , 9 ! $ $ $ $ $ $ $ $ $ $ $ $ $ $ $ $ $ $ $ $ $ [ .   a { , , , , , , , , , , , , , , 8 $ $ $ ",
"      * , , , , , , , , , , , , , 9 ! $ $ $ $ $ $ $ $ $ $ $ $ $ $ $ $ $ $ $ $ $ $ 7       a { , , , , , , , , , , , , , 8 $ $ $ ",
"      * , , , , , , , , , , , , 9 ! $ $ $ $ b c c c c c c c c d e f g d c c c h i j         a { , , , , , , , , , , , , 8 $ $ $ ",
"      * , , , , , , , , , , , 9 ! $ $ $ $ c k k k k k k k k k k k l m k k k g n o p q         a { , , , , , , , , , , , 8 $ $ $ ",
"      * , , , , , , , , , , 9 ! $ $ $ $ c k r s t u v w x y z z A A A A A A B C D E F G         a { , , , , , , , , , , 8 $ $ $ ",
"      * , , , , , , , , , 9 ! $ $ $ $ r t H I I J K L L L L M M L L L L L N O P t B E Q a         a { , , , , , , , , , 8 $ $ $ ",
"      * , , , , , , , , 9 ! $ $ $ $ g I I I R S K T T T T T T T T T T T U V W X Y l r Z m `         a { , , , , , , , , 8 $ $ $ ",
"      * , , , , , , , 9 ! $ $ $ $ g I I Y l  ...T L +.@.@.@.@.@.@.@.@.@.@.#.$.W %.&.k *.=.*.]         a { , , , , , , , 8 $ $ $ ",
"      * , , , , , , 9 ! $ $ $ $ g -.;.>.k  ...T L ,.'.'.'.'.'.'.'.'.'.'.'.'.).$.W %.&.k k b ( !.        a { , , , , , , 8 $ $ $ ",
"      * , , , , , 9 ! $ $ $ $ g ~.l k k  ...T L ,.'.'.'.'.'.'.'.'.'.'.'.'.'.'.).$.W %.&.k k =.[ :         a { , , , , , 8 $ $ $ ",
"      * , , , , 9 ! $ $ $ $ g -.l k k  ...T L ,.'.'.'.#.{.{.{.{.{.{.{.].^.'.'.'.).$.W %.&.k k Z [ :         a { , , , , 8 $ $ $ ",
"      * , , , 9 ! $ $ $ $ g I R k k  ...T L ,.'.'.'.#./.(._._.:.<.[.}.|.1.^.'.'.'.).$.W %.&.k k Z [ :         a { , , , 8 $ $ $ ",
"      * , , 9 ! $ $ $ $ c 2.I t k  ...T L ,.'.'.'.#./.3.4.5.6.7.8.9.9.0.a.1.^.'.'.'.).$.W %.&.k k Z [ :         a { , , 8 $ $ $ ",
"      * , 2 ! $ $ $ $ c k b.I t c...T L ,.'.'.'.#./.3.d.e.f.g.h.i.j.j.k.0.a.1.^.'.'.'.).$.W %.B k k Z [ :         a { , 8 $ $ $ ",
"      * , # $ $ $ 4 l.k k r H ;.A L T +.'.'.'.#./.3.d.e.f.f.g.h.i.j.j.j.k.0.a.1.^.'.'.'.m.W n.&.k k k b [ :         o., 8 $ $ $ ",
"      * , # $ $ 4 p.q.k k k l R y L T @.'.'.#./.3.d.e.f.f.f.g.h.i.j.j.j.j.k.0.a.1.^.'.'.#.W n.&.k k k r.$ [ s.      o., 8 $ $ $ ",
"      * , # $ $ t.u.v.g k k k l A L T @.'.'.{.(.4.e.f.f.f.f.g.h.i.j.j.j.j.j.k.w.L x.'.'.#.W n.&.k k *.y.$ b z.      o., 8 $ $ $ ",
"      * , # $ $ 4 A.B.r k k k k C.M T @.'.'.{._.D.E.f.f.f.f.g.h.i.j.j.j.j.j.j.F.M x.'.'.#.W n.G.*.b $ $ b k z.      o., 8 $ $ $ ",
"      * , # $ $ $ Z k k k k k k A L T @.'.'.{._.H.I.g.g.g.g.J.h.i.j.j.j.j.j.j.F.M x.'.'.#.W n.d $ K.c L.M.k z.      o., 8 $ $ $ ",
"      * , # $ $ $ Z Z d d Z k k A L T @.'.'.{.N.O.h.h.h.h.h.h.P.Q.j.j.j.j.j.j.F.M x.'.'.#.W n.B k k R.S.T.k z.      o., 8 $ $ $ ",
"      * , # $ $ $ Z k Z c $ $ $ U.M T @.'.'.{.<.8.i.i.i.i.i.i.Q.V.j.j.j.j.j.j.F.M x.'.'.#.W n.&.k k W.X.A.l Y.      o., 8 $ $ $ ",
"      * , # $ $ $ Z k k k k Z b Z.M T @.'.'.{.[.9.j.j.j.j.j.j.j.j.j.j.j.j.j.j.F.M x.'.'.#.W n.&.k k `. +.+R ++      o., 8 $ $ $ ",
"      * , # $ $ $ Z k k k k k k C.M T @.'.'.{.[.9.j.j.j.j.j.j.j.j.j.j.j.j.j.j.@+L x.'.'.#.W n.&.k k #+$+E I ++      o., 8 $ $ $ ",
"      * , # $ $ $ Z k k k k k k A L T @.'.'.{.%+&+j.j.j.j.j.j.j.j.j.j.j.j.j.*+=+-+;+'.'.#.W n.>+k k k R.r I ++      o., 8 $ $ $ ",
"      * , # $ $ $ Z k k k k k k A L T @.'.'.,+'+)+&+j.j.j.j.j.j.j.j.j.j.j.*+!+L N '.'.'.#.W n.&.Z k k k k R ++      o., 8 $ $ $ ",
"      * , # $ $ $ Z k k k k k k A L T ~+'.'.'.,+'+)+&+j.j.j.j.j.j.j.j.j.*+!+L N '.'.'.'.{+W n.&.d Z k k k t ++      o., 8 $ $ $ ",
"      * , # $ $ $ Z k k k k k k &.]+T T ~+'.'.'.,+'+)+&+j.j.j.j.j.j.j.*+!+L N '.'.'.'.^+W W /+r (+K.(+k k s _+      o., 8 $ $ $ ",
"      * , # $ $ $ (+k k k k k k k :+<+T T ~+'.'.'.,+'+)+[+}+}+}+}+}+|+=+L N '.'.'.'.^+W W /+B k k b b k k k !.      o., 8 $ $ $ ",
"      * , # $ $ $ >.k k k k k k *.$ U.]+T T ~+'.'.'.,+'+x.M M M M M M -+N '.'.'.'.^+W W /+B k k k Z $ *.k k z.      o., 8 $ $ $ ",
"      * , # $ $ $ t r k k k k k c $ *.1+2+T T ~+'.'.'.'.x.x.x.x.x.x.x.;+'.'.'.'.^+W W /+B k k k k 3+$ b k k z.      o., 8 $ $ $ ",
"      * , # $ $ $ 2.b.k k k k k $ =.4+5+6+7+T T ~+'.'.'.'.'.'.'.'.'.'.'.'.'.'.^+W W /+B k k k k k k K.$ k k z.      o., 8 $ $ $ ",
"      * , # $ $ $ 8+H r k k k Z b k 9+0+o a+]+T T ~+'.'.'.'.'.'.'.'.'.'.'.'.^+W W b+B k k k k k k k b $ Z k z.      o., 8 $ $ $ ",
"      * , # $ $ $ k R ;.>.k k c (+k c+0+d+r e+]+T T f+#.#.#.#.#.#.#.#.#.#.{+W W g+P k k k k k k k (+K.$ *.k z.      o., 8 $ $ $ ",
"      * , # $ $ $ Z r h+;.Y i+k k k j+k+A.k k e+]+T l+W W W W W W W W W W W W /+I -.>.k k k k k Z K.$ d k k z.      o., 8 $ $ $ ",
"      * , # $ K.M.m+n+>.m k k k k k r o+p+k k k e+q+W n.n.n.n.n.n.n.n.n.n.n./+B l ;.H t m k Z b c d k m >.r+)       o., 8 $ $ $ ",
"      * , < s+s.t+  t+t+u+v+m+8+;.H ;.t >.k k k k w+&.&.x+B y+z+A+B+&.&.&.&.r k k k r k k k r m C+z.Y.D+t+          o., 8 $ $ $ ",
"      * , 1 | ~ t+            t+t+D+++E+r+b.e r r r r r r r r r r r r r r r >.l m m >.n+z.Y.~ t+t+            t+- : 1 , 8 $ $ $ ",
"      * , , , , F+: a t+                t+} ) ] ] ] ] ] ] ] ] ] ] ] ] ] ] ) u+u+G+u+t+t+                t+H+> 1 , , , , 8 $ $ $ ",
"      * , , , , , , , 1 o.- t+                                                                    _ s.I+1 , , , , , , , 8 $ $ $ ",
"      * , , , , , , , , , , 1 > s.t+                                                        . ] * { , , , , , , , , , , 8 $ $ $ ",
"      * , , , , , , , , , , , , , 1 & J+_ t+t+t+t+t+t+t+t+t+t+t+t+t+t+t+t+t+t+t+t+t+t+. | K+{ , , , , , , , , , , , , , 8 $ $ $ ",
"      * , , , , , , , , , , , , , , , , { { { { { { { { { { { { { { { { { { { { { { { { , , , , , , , , , , , , , , , , 8 $ $ $ ",
"      > , , , , , , , , , , , , , , , , , , , , , , , , , , , , , , , , , , , , , , , , , , , , , , , , , , , , , , , L+M+$ $ $ ",
"        - 0 , , , , , , , , , , , , , , , , , , , , , , , , , , , , , , , , , , , , , , , , , , , , , , , , , , , L+6 ^ $ $ $ $ ",
"          t+s., , , , , , , , , , , , , , , , , , , , , , , , , , , , , , , , , , , , , , , , , , , , , , , , , N+! $ $ $ $ $ $ ",
"            O+P+, , , , , , , , , , , , , , , , , , , , , , , , , , , , , , , , , , , , , , , , , , , , , , , , 5 $ $ $ $ $ $ $ ",
"          I+Q+K.R+, , , , , , , , , , , , , , , , , , , , , , , , , , , , , , , , , , , , , , , , , , , , , , S+4 $ $ $ $ $ $ $ ",
"        0 K.$ $ 8 , , , , , , , , , , , , , , , , , , , , , , , , , , , , , , , , , , , , , , , , , , , , , , ! $ $ $ $ $ $ $ $ ",
"    t+T+K.$ $ $ 4 6 U+U+U+U+U+U+U+U+U+U+U+U+U+U+U+U+U+U+U+U+U+U+U+U+U+U+U+U+U+U+U+U+U+U+U+U+U+U+U+U+U+U+U+U+# $ $ $ $ $ $ $ $ $ ",
"  } 7 4 $ $ $ $ $ $ $ $ $ $ $ $ $ $ $ $ $ $ $ $ $ $ $ $ $ $ $ $ $ $ $ $ $ $ $ $ $ $ $ $ $ $ $ $ $ $ $ $ $ $ $ $ $ $ $ $ $ $ $ $ ",
"} V+$ $ $ $ $ $ $ $ $ $ $ $ $ $ $ $ $ $ $ $ $ $ $ $ $ $ $ $ $ $ $ $ $ $ $ $ $ $ $ $ $ $ $ $ $ $ $ $ $ $ $ $ $ $ $ $ $ $ $ $ $ $ ",
"6 $ $ $ $ $ $ $ $ $ $ $ $ $ $ $ $ $ $ $ $ $ $ $ $ $ $ $ $ $ $ $ $ $ $ $ $ $ $ $ $ $ $ $ $ $ $ $ $ $ $ $ $ $ $ $ $ $ $ $ $ $ $ $ "};
