/* XPM */
static char * respawn_anchor_side4_xpm[] = {
"64 64 292 2",
"  	c #231349",
". 	c #221247",
"+ 	c #160A33",
"@ 	c #211247",
"# 	c #150A32",
"$ 	c #0F0628",
"% 	c #211245",
"& 	c #1C0F3F",
"* 	c #1C0F3E",
"= 	c #1D1041",
"- 	c #201144",
"; 	c #140930",
"> 	c #1D0F40",
", 	c #190D3A",
"' 	c #201245",
") 	c #201143",
"! 	c #12082D",
"~ 	c #211246",
"{ 	c #190D3B",
"] 	c #1F1042",
"^ 	c #11072C",
"/ 	c #1C0F3D",
"( 	c #11072B",
"_ 	c #221248",
": 	c #1E1041",
"< 	c #150A33",
"[ 	c #10072A",
"} 	c #221348",
"| 	c #1E1042",
"1 	c #1A0D3B",
"2 	c #180D39",
"3 	c #140932",
"4 	c #0F0629",
"5 	c #13082F",
"6 	c #160B34",
"7 	c #180C37",
"8 	c #130930",
"9 	c #180C39",
"0 	c #1B0E3C",
"a 	c #201145",
"b 	c #11072A",
"c 	c #12072B",
"d 	c #12082B",
"e 	c #14092E",
"f 	c #160A31",
"g 	c #150930",
"h 	c #1A074D",
"i 	c #140735",
"j 	c #1D0E40",
"k 	c #15092E",
"l 	c #170A31",
"m 	c #16092F",
"n 	c #230866",
"o 	c #210762",
"p 	c #1F0958",
"q 	c #26105E",
"r 	c #15092F",
"s 	c #170A32",
"t 	c #190B34",
"u 	c #1B0E36",
"v 	c #1C0F36",
"w 	c #1D1037",
"x 	c #1C0F37",
"y 	c #1A0E32",
"z 	c #190D30",
"A 	c #190E31",
"B 	c #160A2F",
"C 	c #160935",
"D 	c #190941",
"E 	c #160934",
"F 	c #270873",
"G 	c #26105F",
"H 	c #1B0D38",
"I 	c #1C0D39",
"J 	c #271942",
"K 	c #43335B",
"L 	c #47375F",
"M 	c #47375E",
"N 	c #44345C",
"O 	c #2B1D4A",
"P 	c #1B0D37",
"Q 	c #1F0959",
"R 	c #1B0C37",
"S 	c #25183E",
"T 	c #483860",
"U 	c #473860",
"V 	c #3C2D58",
"W 	c #2F214F",
"X 	c #2A1D49",
"Y 	c #1A0C35",
"Z 	c #13082C",
"` 	c #201142",
" .	c #23173A",
"..	c #42335A",
"+.	c #3F3159",
"@.	c #3D2E56",
"#.	c #392B54",
"$.	c #30224F",
"%.	c #291C47",
"&.	c #170B30",
"*.	c #14082D",
"=.	c #12072A",
"-.	c #1C0D38",
";.	c #1A0C36",
">.	c #160A30",
",.	c #3F3158",
"'.	c #3C2E56",
").	c #382A54",
"!.	c #1F1041",
"~.	c #1B0C38",
"{.	c #362853",
"].	c #3C2E57",
"^.	c #3D2F57",
"/.	c #32234F",
"(.	c #664B46",
"_.	c #7B5C3E",
":.	c #79593E",
"<.	c #76523E",
"[.	c #76513E",
"}.	c #75513F",
"|.	c #5C4253",
"1.	c #45365D",
"2.	c #190B35",
"3.	c #977143",
"4.	c #F9C20C",
"5.	c #FCCD03",
"6.	c #FBCC03",
"7.	c #F2AD03",
"8.	c #F6B703",
"9.	c #F3B703",
"0.	c #F3B603",
"a.	c #D99922",
"b.	c #694D57",
"c.	c #180B33",
"d.	c #180C30",
"e.	c #FBC40A",
"f.	c #FFDE00",
"g.	c #FFE400",
"h.	c #FEE200",
"i.	c #F3AB00",
"j.	c #FECA00",
"k.	c #FFE200",
"l.	c #FFE300",
"m.	c #FBD500",
"n.	c #DA9A22",
"o.	c #12072C",
"p.	c #FECB00",
"q.	c #372953",
"r.	c #2E204E",
"s.	c #1D1040",
"t.	c #190649",
"u.	c #1B0849",
"v.	c #13082B",
"w.	c #1F1143",
"x.	c #10062B",
"y.	c #210763",
"z.	c #20075F",
"A.	c #D99824",
"B.	c #523E5E",
"C.	c #41325A",
"D.	c #100729",
"E.	c #1D0F3D",
"F.	c #1C0851",
"G.	c #1A0847",
"H.	c #180D30",
"I.	c #FCC903",
"J.	c #EEA70F",
"K.	c #59425E",
"L.	c #160B30",
"M.	c #FBC803",
"N.	c #FEE100",
"O.	c #FEE000",
"P.	c #EFA80F",
"Q.	c #100629",
"R.	c #140831",
"S.	c #150931",
"T.	c #7A5B3E",
"U.	c #F3AE03",
"V.	c #F3A900",
"W.	c #FEC000",
"X.	c #FEC300",
"Y.	c #FEC200",
"Z.	c #F7B70F",
"`.	c #59435E",
" +	c #160933",
".+	c #250870",
"++	c #1E0855",
"@+	c #160C2E",
"#+	c #77533E",
"$+	c #F8BB03",
"%+	c #F4AE00",
"&+	c #F6BA00",
"*+	c #F7B90F",
"=+	c #5B455E",
"-+	c #1F0858",
";+	c #270776",
">+	c #1E0F3F",
",+	c #150B2C",
"'+	c #F4BF03",
")+	c #FBC00F",
"!+	c #220865",
"~+	c #24076E",
"{+	c #1B084A",
"]+	c #201042",
"^+	c #75503F",
"/+	c #F4BE03",
"(+	c #1D0851",
"_+	c #24076B",
":+	c #503749",
"<+	c #D7971B",
"[+	c #FFD201",
"}+	c #DEA934",
"|+	c #523F5F",
"1+	c #40325A",
"2+	c #170B31",
"3+	c #3B2D56",
"4+	c #332551",
"5+	c #5A3E47",
"6+	c #D8981B",
"7+	c #DEA933",
"8+	c #5A455E",
"9+	c #403259",
"0+	c #342651",
"a+	c #3E2F55",
"b+	c #342652",
"c+	c #251842",
"d+	c #14092D",
"e+	c #201041",
"f+	c #150B2D",
"g+	c #3E2F54",
"h+	c #D7961E",
"i+	c #F5B30F",
"j+	c #F7B60F",
"k+	c #4D395A",
"l+	c #200D52",
"m+	c #402F62",
"n+	c #15092D",
"o+	c #160931",
"p+	c #25086E",
"q+	c #240C65",
"r+	c #3E2F57",
"s+	c #180B34",
"t+	c #160936",
"u+	c #270775",
"v+	c #1A0D34",
"w+	c #261944",
"x+	c #18093D",
"y+	c #1E0859",
"z+	c #190D31",
"A+	c #3E3058",
"B+	c #271946",
"C+	c #190B33",
"D+	c #170A30",
"E+	c #18093C",
"F+	c #260774",
"G+	c #382954",
"H+	c #1C0E3C",
"I+	c #180C35",
"J+	c #1A0848",
"K+	c #18083E",
"L+	c #3A2C52",
"M+	c #1A0C37",
"N+	c #190C38",
"O+	c #231348",
"P+	c #211145",
"Q+	c #1D0F3E",
"R+	c #160B2F",
"S+	c #180C32",
"T+	c #13092D",
"U+	c #12082C",
"V+	c #13092C",
"W+	c #150A2E",
"X+	c #190C36",
"Y+	c #221246",
"Z+	c #1F1040",
"`+	c #1A0E3C",
" @	c #211144",
".@	c #1F1144",
"+@	c #1D0F3F",
"@@	c #1F1043",
"#@	c #1B0E3D",
"$@	c #190D39",
"%@	c #12082E",
"&@	c #170C37",
"*@	c #1E0F40",
"=@	c #150932",
"-@	c #10062A",
";@	c #180C38",
">@	c #170B36",
",@	c #1A0D3A",
"'@	c #160B35",
")@	c #180B36",
"                                                                                                                            . + ",
"                                                                                                                          @ # $ ",
"                                                                                                                        % # $ $ ",
"                . & * * * * * * * * * * * * * * * * * * * * * * * * * * * * * * * * * * * * * * * * * * * * =         - ; $ $ $ ",
"                > , , , , , , , , , , , , , , , , , , , , , , , , , , , , , , , , , , , , , , , , , , , , , , '     ) ! $ $ $ $ ",
"              ~ { , , , , , , , , , , , , , , , , , , , , , , , , , , , , , , , , , , , , , , , , , , , , , , *   ] ^ $ $ $ $ $ ",
"              & , , , , , , , , , , , , , , , , , , , , , , , , , , , , , , , , , , , , , , , , , , , , , , , , / ( $ $ $ $ $ $ ",
"          _ : , , , , , , , , , , , , , , , , , , , , , , , , , , , , , , , , , , , , , , , , , , , , , , , , , , < [ $ $ $ $ $ ",
"      } | 1 , , , , , , , , , , , , , , , , , , , , , , , , , , , , , , , , , , , , , , , , , , , , , , , , , , , , 2 3 4 $ $ $ ",
"      & , , , , , , , , , , , , , , , , , , , , , , , , , , , , , , , , , , , , , , , , , , , , , , , , , , , , , , , , 5 $ $ $ ",
"      * , , , , , , , , , , , , , , , , 2 6 6 6 6 6 6 6 6 6 6 6 6 6 6 6 6 6 6 6 6 6 7 , , , , , , , , , , , , , , , , , 8 $ $ $ ",
"      * , , , , , , , , , , , , , , , 9 ! $ $ $ $ $ $ $ $ $ $ $ $ $ $ $ $ $ $ $ $ $ 0 a { , , , , , , , , , , , , , , , 8 $ $ $ ",
"      * , , , , , , , , , , , , , , 9 ! $ $ $ $ $ $ $ $ $ $ $ $ $ $ $ $ $ $ $ $ $ [ .   a { , , , , , , , , , , , , , , 8 $ $ $ ",
"      * , , , , , , , , , , , , , 9 ! $ $ $ $ $ $ $ $ $ $ $ $ $ $ $ $ $ $ $ $ $ $ 7       a { , , , , , , , , , , , , , 8 $ $ $ ",
"      * , , , , , , , , , , , , 9 ! $ $ $ $ b c c c c c c c c d e f g d c c c h i j         a { , , , , , , , , , , , , 8 $ $ $ ",
"      * , , , , , , , , , , , 9 ! $ $ $ $ c k k k k k k k k k k k l m k k k g n o p q         a { , , , , , , , , , , , 8 $ $ $ ",
"      * , , , , , , , , , , 9 ! $ $ $ $ c k r s t u v w x y z z A A A A A A B C D E F G         a { , , , , , , , , , , 8 $ $ $ ",
"      * , , , , , , , , , 9 ! $ $ $ $ r t H I I J K L L L L M M L L L L L N O P t B E Q a         a { , , , , , , , , , 8 $ $ $ ",
"      * , , , , , , , , 9 ! $ $ $ $ g I I I R S K T T T T T T T T T T T U V W X Y l r Z m `         a { , , , , , , , , 8 $ $ $ ",
"      * , , , , , , , 9 ! $ $ $ $ g I I Y l  ...T L +.@.@.@.@.@.@.@.@.@.@.#.$.W %.&.k *.=.*.]         a { , , , , , , , 8 $ $ $ ",
"      * , , , , , , 9 ! $ $ $ $ g -.;.>.k  ...T L ,.'.'.'.'.'.'.'.'.'.'.'.'.).$.W %.&.k k b ( !.        a { , , , , , , 8 $ $ $ ",
"      * , , , , , 9 ! $ $ $ $ g ~.l k k  ...T L ,.'.'.'.'.'.'.'.'.'.'.'.'.'.'.).$.W %.&.k k =.[ :         a { , , , , , 8 $ $ $ ",
"      * , , , , 9 ! $ $ $ $ g -.l k k  ...T L ,.'.'.'.#.{.{.{.{.{.{.{.].^.'.'.'.).$.W %.&.k k Z [ :         a { , , , , 8 $ $ $ ",
"      * , , , 9 ! $ $ $ $ g I R k k  ...T L ,.'.'.'.#./.(._._.:.<.[.}.|.1.^.'.'.'.).$.W %.&.k k Z [ :         a { , , , 8 $ $ $ ",
"      * , , 9 ! $ $ $ $ c 2.I t k  ...T L ,.'.'.'.#./.3.4.5.6.7.8.9.0.a.b.1.^.'.'.'.).$.W %.&.k k Z [ :         a { , , 8 $ $ $ ",
"      * , 2 ! $ $ $ $ c k c.I t d...T L ,.'.'.'.#./.3.e.f.g.h.i.j.k.l.m.n.b.1.^.'.'.'.).$.W %.B k k Z [ :         a { , 8 $ $ $ ",
"      * , # $ $ $ 4 o.k k r H ;.A L T +.'.'.'.#./.3.e.f.g.g.h.i.p.l.g.g.m.n.b.1.^.'.'.'.q.W r.&.k k k b [ :         s., 8 $ $ $ ",
"      * , # $ $ 4 t.u.k k k l R y L T @.'.'.#./.3.e.f.g.g.g.h.i.p.l.g.g.g.m.n.b.1.^.'.'.#.W r.&.k k k v.$ [ w.      s., 8 $ $ $ ",
"      * , # $ $ x.y.z.g k k k l A L T @.'.'.{.(.4.f.g.g.g.g.h.i.p.l.g.g.g.g.m.A.B.C.'.'.#.W r.&.k k *.D.$ b E.      s., 8 $ $ $ ",
"      * , # $ $ 4 F.G.r k k k k H.M T @.'.'.{._.I.l.g.g.g.g.h.i.p.l.g.g.g.g.h.J.K.C.'.'.#.W r.L.*.b $ $ b k E.      s., 8 $ $ $ ",
"      * , # $ $ $ Z k k k k k k A L T @.'.'.{._.M.N.h.h.h.h.O.i.j.k.l.l.l.l.N.P.K.C.'.'.#.W r.d $ Q.c R.S.k E.      s., 8 $ $ $ ",
"      * , # $ $ $ Z Z d d Z k k A L T @.'.'.{.T.U.i.i.i.i.i.i.V.W.X.X.X.X.X.Y.Z.`.C.'.'.#.W r.B k k  +.+++k E.      s., 8 $ $ $ ",
"      * , # $ $ $ Z k Z c $ $ $ @+M T @.'.'.{.#+$+j.p.p.p.p.j.W.%+&+&+&+&+&+&+*+=+C.'.'.#.W r.&.k k -+;+F.l >+      s., 8 $ $ $ ",
"      * , # $ $ $ Z k k k k Z b ,+M T @.'.'.{.[.'+l.l.l.l.l.k.X.&+k.l.l.l.l.k.)+=+C.'.'.#.W r.&.k k !+~+{+R ]+      s., 8 $ $ $ ",
"      * , # $ $ $ Z k k k k k k H.M T @.'.'.{.^+/+l.g.g.g.g.l.X.&+l.g.g.g.g.k.)+=+C.'.'.#.W r.&.k k (+_+E I ]+      s., 8 $ $ $ ",
"      * , # $ $ $ Z k k k k k k A L T @.'.'.{.:+<+m.g.g.g.g.l.X.&+l.g.g.g.l.[+}+|+1+'.'.#.W r.2+k k k  +r I ]+      s., 8 $ $ $ ",
"      * , # $ $ $ Z k k k k k k A L T @.'.'.3+4+5+6+m.g.g.g.l.X.&+l.g.g.l.[+7+8+N '.'.'.#.W r.&.Z k k k k R ]+      s., 8 $ $ $ ",
"      * , # $ $ $ Z k k k k k k A L T 9+'.'.'.3+4+5+6+m.g.g.l.X.&+l.g.l.[+7+8+N '.'.'.'.0+W r.&.d Z k k k t ]+      s., 8 $ $ $ ",
"      * , # $ $ $ Z k k k k k k &.a+T T 9+'.'.'.3+4+5+6+m.h.N.Y.&+k.k.[+7+8+N '.'.'.'.b+W W c+r d+Q.d+k k s e+      s., 8 $ $ $ ",
"      * , # $ $ $ d+k k k k k k k f+g+T T 9+'.'.'.3+4+5+h+J.P.i+j+)+)+}+8+N '.'.'.'.b+W W c+B k k b b k k k !.      s., 8 $ $ $ ",
"      * , # $ $ $ >.k k k k k k *.$ @+a+T T 9+'.'.'.3+0+k+K.K.`.8+=+=+|+N '.'.'.'.b+W W c+B k k k Z $ *.k k E.      s., 8 $ $ $ ",
"      * , # $ $ $ t r k k k k k c $ *.l+m+T T 9+'.'.'.'.C.C.C.C.C.C.C.1+'.'.'.'.b+W W c+B k k k k n+$ b k k E.      s., 8 $ $ $ ",
"      * , # $ $ $ 2.c.k k k k k $ =.o+p+q+r+T T 9+'.'.'.'.'.'.'.'.'.'.'.'.'.'.b+W W c+B k k k k k k Q.$ k k E.      s., 8 $ $ $ ",
"      * , # $ $ $ s+H r k k k Z b k t+u+o v+a+T T 9+'.'.'.'.'.'.'.'.'.'.'.'.b+W W w+B k k k k k k k b $ Z k E.      s., 8 $ $ $ ",
"      * , # $ $ $ k R ;.>.k k c d+k x+u+y+r z+a+T T A+#.#.#.#.#.#.#.#.#.#.0+W W B+P k k k k k k k d+Q.$ *.k E.      s., 8 $ $ $ ",
"      * , # $ $ $ Z r C+;.Y D+k k k E+F+F.k k z+a+T G+W W W W W W W W W W W W c+I -.>.k k k k k Z Q.$ d k k E.      s., 8 $ $ $ ",
"      * , # $ Q.S.H+I+>.m k k k k k r J+K+k k k z+L+W r.r.r.r.r.r.r.r.r.r.r.c+B l ;.H t m k Z b c d k m >.M+)       s., 8 $ $ $ ",
"      * , < N+w.O+  O+O+P+Q+H+s+;.H ;.t >.k k k k R+&.&.S+B T+U+V+W+&.&.&.&.r k k k r k k k r m X+E.>+Y+O+          s., 8 $ $ $ ",
"      * , 1 | ~ O+            O+O+Y+]+Z+M+c.e r r r r r r r r r r r r r r r >.l m m >.I+E.>+~ O+O+            O+- : 1 , 8 $ $ $ ",
"      * , , , , `+: a O+                O+} ) ] ] ] ] ] ] ] ] ] ] ] ] ] ] ) P+P+ @P+O+O+                O+.@> 1 , , , , 8 $ $ $ ",
"      * , , , , , , , 1 s.- O+                                                                    _ w.+@1 , , , , , , , 8 $ $ $ ",
"      * , , , , , , , , , , 1 > w.O+                                                        . ] * { , , , , , , , , , , 8 $ $ $ ",
"      * , , , , , , , , , , , , , 1 & @@_ O+O+O+O+O+O+O+O+O+O+O+O+O+O+O+O+O+O+O+O+O+O+. | #@{ , , , , , , , , , , , , , 8 $ $ $ ",
"      * , , , , , , , , , , , , , , , , { { { { { { { { { { { { { { { { { { { { { { { { , , , , , , , , , , , , , , , , 8 $ $ $ ",
"      > , , , , , , , , , , , , , , , , , , , , , , , , , , , , , , , , , , , , , , , , , , , , , , , , , , , , , , , $@%@$ $ $ ",
"        - 0 , , , , , , , , , , , , , , , , , , , , , , , , , , , , , , , , , , , , , , , , , , , , , , , , , , , $@6 ^ $ $ $ $ ",
"          O+w., , , , , , , , , , , , , , , , , , , , , , , , , , , , , , , , , , , , , , , , , , , , , , , , , &@! $ $ $ $ $ $ ",
"            *@=@, , , , , , , , , , , , , , , , , , , , , , , , , , , , , , , , , , , , , , , , , , , , , , , , 5 $ $ $ $ $ $ $ ",
"          +@-@Q.;@, , , , , , , , , , , , , , , , , , , , , , , , , , , , , , , , , , , , , , , , , , , , , , >@4 $ $ $ $ $ $ $ ",
"        0 Q.$ $ 8 , , , , , , , , , , , , , , , , , , , , , , , , , , , , , , , , , , , , , , , , , , , , , , ! $ $ $ $ $ $ $ $ ",
"    O+,@Q.$ $ $ 4 6 '@'@'@'@'@'@'@'@'@'@'@'@'@'@'@'@'@'@'@'@'@'@'@'@'@'@'@'@'@'@'@'@'@'@'@'@'@'@'@'@'@'@'@'@# $ $ $ $ $ $ $ $ $ ",
"  } 7 4 $ $ $ $ $ $ $ $ $ $ $ $ $ $ $ $ $ $ $ $ $ $ $ $ $ $ $ $ $ $ $ $ $ $ $ $ $ $ $ $ $ $ $ $ $ $ $ $ $ $ $ $ $ $ $ $ $ $ $ $ ",
"} )@$ $ $ $ $ $ $ $ $ $ $ $ $ $ $ $ $ $ $ $ $ $ $ $ $ $ $ $ $ $ $ $ $ $ $ $ $ $ $ $ $ $ $ $ $ $ $ $ $ $ $ $ $ $ $ $ $ $ $ $ $ $ ",
"6 $ $ $ $ $ $ $ $ $ $ $ $ $ $ $ $ $ $ $ $ $ $ $ $ $ $ $ $ $ $ $ $ $ $ $ $ $ $ $ $ $ $ $ $ $ $ $ $ $ $ $ $ $ $ $ $ $ $ $ $ $ $ $ "};
