/* XPM */
static char * respawn_anchor_side0_xpm[] = {
"64 64 251 2",
"  	c #231349",
". 	c #221247",
"+ 	c #160A33",
"@ 	c #211247",
"# 	c #150A32",
"$ 	c #0F0628",
"% 	c #211245",
"& 	c #1C0F3F",
"* 	c #1C0F3E",
"= 	c #1D1041",
"- 	c #201144",
"; 	c #140930",
"> 	c #1D0F40",
", 	c #190D3A",
"' 	c #201245",
") 	c #201143",
"! 	c #12082D",
"~ 	c #211246",
"{ 	c #190D3B",
"] 	c #1F1042",
"^ 	c #11072C",
"/ 	c #1C0F3D",
"( 	c #11072B",
"_ 	c #221248",
": 	c #1E1041",
"< 	c #150A33",
"[ 	c #10072A",
"} 	c #221348",
"| 	c #1E1042",
"1 	c #1A0D3B",
"2 	c #180D39",
"3 	c #140932",
"4 	c #0F0629",
"5 	c #13082F",
"6 	c #160B34",
"7 	c #180C37",
"8 	c #130930",
"9 	c #180C39",
"0 	c #1B0E3C",
"a 	c #201145",
"b 	c #11072A",
"c 	c #12072B",
"d 	c #12082B",
"e 	c #14092E",
"f 	c #160A31",
"g 	c #150930",
"h 	c #1A074D",
"i 	c #140735",
"j 	c #1D0E40",
"k 	c #15092E",
"l 	c #170A31",
"m 	c #16092F",
"n 	c #230866",
"o 	c #210762",
"p 	c #1F0958",
"q 	c #26105E",
"r 	c #15092F",
"s 	c #170A32",
"t 	c #190B34",
"u 	c #1B0E36",
"v 	c #1C0F36",
"w 	c #1D1037",
"x 	c #1C0F37",
"y 	c #1A0E32",
"z 	c #190D30",
"A 	c #190E31",
"B 	c #160A2F",
"C 	c #160935",
"D 	c #190941",
"E 	c #160934",
"F 	c #270873",
"G 	c #26105F",
"H 	c #1B0D38",
"I 	c #1C0D39",
"J 	c #271942",
"K 	c #43335B",
"L 	c #47375F",
"M 	c #47375E",
"N 	c #44345C",
"O 	c #2B1D4A",
"P 	c #1B0D37",
"Q 	c #1F0959",
"R 	c #1B0C37",
"S 	c #25183E",
"T 	c #483860",
"U 	c #473860",
"V 	c #3C2D58",
"W 	c #2F214F",
"X 	c #2A1D49",
"Y 	c #1A0C35",
"Z 	c #13082C",
"` 	c #201142",
" .	c #23173A",
"..	c #42335A",
"+.	c #3F3159",
"@.	c #3D2E56",
"#.	c #392B54",
"$.	c #30224F",
"%.	c #291C47",
"&.	c #170B30",
"*.	c #14082D",
"=.	c #12072A",
"-.	c #1C0D38",
";.	c #1A0C36",
">.	c #160A30",
",.	c #3F3158",
"'.	c #3C2E56",
").	c #382A54",
"!.	c #1F1041",
"~.	c #1B0C38",
"{.	c #362853",
"].	c #3C2E57",
"^.	c #3D2F57",
"/.	c #2C1F4A",
"(.	c #291D46",
"_.	c #2A1D46",
":.	c #403159",
"<.	c #45365D",
"[.	c #190B35",
"}.	c #281C44",
"|.	c #0B0615",
"1.	c #06030D",
"2.	c #251C34",
"3.	c #46375E",
"4.	c #180B33",
"5.	c #180C30",
"6.	c #0A0513",
"7.	c #040207",
"8.	c #040208",
"9.	c #261C34",
"0.	c #12072C",
"a.	c #372953",
"b.	c #2E204E",
"c.	c #1D1040",
"d.	c #190649",
"e.	c #1B0849",
"f.	c #13082B",
"g.	c #1F1143",
"h.	c #10062B",
"i.	c #210763",
"j.	c #20075F",
"k.	c #291F39",
"l.	c #41325A",
"m.	c #100729",
"n.	c #1D0F3D",
"o.	c #1C0851",
"p.	c #1A0847",
"q.	c #180D30",
"r.	c #191226",
"s.	c #160B30",
"t.	c #100629",
"u.	c #140831",
"v.	c #150931",
"w.	c #160933",
"x.	c #250870",
"y.	c #1E0855",
"z.	c #160C2E",
"A.	c #1F0858",
"B.	c #270776",
"C.	c #1E0F3F",
"D.	c #150B2C",
"E.	c #220865",
"F.	c #24076E",
"G.	c #1B084A",
"H.	c #201042",
"I.	c #1A1326",
"J.	c #1D0851",
"K.	c #24076B",
"L.	c #2E204D",
"M.	c #160E29",
"N.	c #09050F",
"O.	c #342847",
"P.	c #47385F",
"Q.	c #40325A",
"R.	c #170B31",
"S.	c #3B2D56",
"T.	c #332551",
"U.	c #2D204C",
"V.	c #332747",
"W.	c #403259",
"X.	c #342651",
"Y.	c #3E2F55",
"Z.	c #342652",
"`.	c #251842",
" +	c #14092D",
".+	c #201041",
"++	c #150B2D",
"@+	c #3E2F54",
"#+	c #2D204D",
"$+	c #1A112C",
"%+	c #120C1B",
"&+	c #130D1D",
"*+	c #342747",
"=+	c #200D52",
"-+	c #402F62",
";+	c #15092D",
">+	c #160931",
",+	c #25086E",
"'+	c #240C65",
")+	c #3E2F57",
"!+	c #180B34",
"~+	c #160936",
"{+	c #270775",
"]+	c #1A0D34",
"^+	c #261944",
"/+	c #18093D",
"(+	c #1E0859",
"_+	c #190D31",
":+	c #3E3058",
"<+	c #271946",
"[+	c #190B33",
"}+	c #170A30",
"|+	c #18093C",
"1+	c #260774",
"2+	c #382954",
"3+	c #1C0E3C",
"4+	c #180C35",
"5+	c #1A0848",
"6+	c #18083E",
"7+	c #3A2C52",
"8+	c #1A0C37",
"9+	c #190C38",
"0+	c #231348",
"a+	c #211145",
"b+	c #1D0F3E",
"c+	c #160B2F",
"d+	c #180C32",
"e+	c #13092D",
"f+	c #12082C",
"g+	c #13092C",
"h+	c #150A2E",
"i+	c #190C36",
"j+	c #221246",
"k+	c #1F1040",
"l+	c #1A0E3C",
"m+	c #211144",
"n+	c #1F1144",
"o+	c #1D0F3F",
"p+	c #1F1043",
"q+	c #1B0E3D",
"r+	c #190D39",
"s+	c #12082E",
"t+	c #170C37",
"u+	c #1E0F40",
"v+	c #150932",
"w+	c #10062A",
"x+	c #180C38",
"y+	c #170B36",
"z+	c #1A0D3A",
"A+	c #160B35",
"B+	c #180B36",
"                                                                                                                            . + ",
"                                                                                                                          @ # $ ",
"                                                                                                                        % # $ $ ",
"                . & * * * * * * * * * * * * * * * * * * * * * * * * * * * * * * * * * * * * * * * * * * * * =         - ; $ $ $ ",
"                > , , , , , , , , , , , , , , , , , , , , , , , , , , , , , , , , , , , , , , , , , , , , , , '     ) ! $ $ $ $ ",
"              ~ { , , , , , , , , , , , , , , , , , , , , , , , , , , , , , , , , , , , , , , , , , , , , , , *   ] ^ $ $ $ $ $ ",
"              & , , , , , , , , , , , , , , , , , , , , , , , , , , , , , , , , , , , , , , , , , , , , , , , , / ( $ $ $ $ $ $ ",
"          _ : , , , , , , , , , , , , , , , , , , , , , , , , , , , , , , , , , , , , , , , , , , , , , , , , , , < [ $ $ $ $ $ ",
"      } | 1 , , , , , , , , , , , , , , , , , , , , , , , , , , , , , , , , , , , , , , , , , , , , , , , , , , , , 2 3 4 $ $ $ ",
"      & , , , , , , , , , , , , , , , , , , , , , , , , , , , , , , , , , , , , , , , , , , , , , , , , , , , , , , , , 5 $ $ $ ",
"      * , , , , , , , , , , , , , , , , 2 6 6 6 6 6 6 6 6 6 6 6 6 6 6 6 6 6 6 6 6 6 7 , , , , , , , , , , , , , , , , , 8 $ $ $ ",
"      * , , , , , , , , , , , , , , , 9 ! $ $ $ $ $ $ $ $ $ $ $ $ $ $ $ $ $ $ $ $ $ 0 a { , , , , , , , , , , , , , , , 8 $ $ $ ",
"      * , , , , , , , , , , , , , , 9 ! $ $ $ $ $ $ $ $ $ $ $ $ $ $ $ $ $ $ $ $ $ [ .   a { , , , , , , , , , , , , , , 8 $ $ $ ",
"      * , , , , , , , , , , , , , 9 ! $ $ $ $ $ $ $ $ $ $ $ $ $ $ $ $ $ $ $ $ $ $ 7       a { , , , , , , , , , , , , , 8 $ $ $ ",
"      * , , , , , , , , , , , , 9 ! $ $ $ $ b c c c c c c c c d e f g d c c c h i j         a { , , , , , , , , , , , , 8 $ $ $ ",
"      * , , , , , , , , , , , 9 ! $ $ $ $ c k k k k k k k k k k k l m k k k g n o p q         a { , , , , , , , , , , , 8 $ $ $ ",
"      * , , , , , , , , , , 9 ! $ $ $ $ c k r s t u v w x y z z A A A A A A B C D E F G         a { , , , , , , , , , , 8 $ $ $ ",
"      * , , , , , , , , , 9 ! $ $ $ $ r t H I I J K L L L L M M L L L L L N O P t B E Q a         a { , , , , , , , , , 8 $ $ $ ",
"      * , , , , , , , , 9 ! $ $ $ $ g I I I R S K T T T T T T T T T T T U V W X Y l r Z m `         a { , , , , , , , , 8 $ $ $ ",
"      * , , , , , , , 9 ! $ $ $ $ g I I Y l  ...T L +.@.@.@.@.@.@.@.@.@.@.#.$.W %.&.k *.=.*.]         a { , , , , , , , 8 $ $ $ ",
"      * , , , , , , 9 ! $ $ $ $ g -.;.>.k  ...T L ,.'.'.'.'.'.'.'.'.'.'.'.'.).$.W %.&.k k b ( !.        a { , , , , , , 8 $ $ $ ",
"      * , , , , , 9 ! $ $ $ $ g ~.l k k  ...T L ,.'.'.'.'.'.'.'.'.'.'.'.'.'.'.).$.W %.&.k k =.[ :         a { , , , , , 8 $ $ $ ",
"      * , , , , 9 ! $ $ $ $ g -.l k k  ...T L ,.'.'.'.#.{.{.{.{.{.{.{.].^.'.'.'.).$.W %.&.k k Z [ :         a { , , , , 8 $ $ $ ",
"      * , , , 9 ! $ $ $ $ g I R k k  ...T L ,.'.'.'.#.$./.(.(.(.(.(._.:.<.^.'.'.'.).$.W %.&.k k Z [ :         a { , , , 8 $ $ $ ",
"      * , , 9 ! $ $ $ $ c [.I t k  ...T L ,.'.'.'.#.$.}.|.1.1.1.1.1.1.2.3.<.^.'.'.'.).$.W %.&.k k Z [ :         a { , , 8 $ $ $ ",
"      * , 2 ! $ $ $ $ c k 4.I t 5...T L ,.'.'.'.#.$.}.6.7.7.7.7.7.7.7.8.9.3.<.^.'.'.'.).$.W %.B k k Z [ :         a { , 8 $ $ $ ",
"      * , # $ $ $ 4 0.k k r H ;.A L T +.'.'.'.#.$.}.6.7.7.7.7.7.7.7.7.7.8.9.3.<.^.'.'.'.a.W b.&.k k k b [ :         c., 8 $ $ $ ",
"      * , # $ $ 4 d.e.k k k l R y L T @.'.'.#.$.}.6.7.7.7.7.7.7.7.7.7.7.7.8.9.3.<.^.'.'.#.W b.&.k k k f.$ [ g.      c., 8 $ $ $ ",
"      * , # $ $ h.i.j.g k k k l A L T @.'.'.{./.|.7.7.7.7.7.7.7.7.7.7.7.7.7.8.k.L l.'.'.#.W b.&.k k *.m.$ b n.      c., 8 $ $ $ ",
"      * , # $ $ 4 o.p.r k k k k q.M T @.'.'.{.(.1.7.7.7.7.7.7.7.7.7.7.7.7.7.7.r.M l.'.'.#.W b.s.*.b $ $ b k n.      c., 8 $ $ $ ",
"      * , # $ $ $ Z k k k k k k A L T @.'.'.{.(.1.7.7.7.7.7.7.7.7.7.7.7.7.7.7.r.M l.'.'.#.W b.d $ t.c u.v.k n.      c., 8 $ $ $ ",
"      * , # $ $ $ Z Z d d Z k k A L T @.'.'.{.(.1.7.7.7.7.7.7.7.7.7.7.7.7.7.7.r.M l.'.'.#.W b.B k k w.x.y.k n.      c., 8 $ $ $ ",
"      * , # $ $ $ Z k Z c $ $ $ z.M T @.'.'.{.(.1.7.7.7.7.7.7.7.7.7.7.7.7.7.7.r.M l.'.'.#.W b.&.k k A.B.o.l C.      c., 8 $ $ $ ",
"      * , # $ $ $ Z k k k k Z b D.M T @.'.'.{.(.1.7.7.7.7.7.7.7.7.7.7.7.7.7.7.r.M l.'.'.#.W b.&.k k E.F.G.R H.      c., 8 $ $ $ ",
"      * , # $ $ $ Z k k k k k k q.M T @.'.'.{.(.1.7.7.7.7.7.7.7.7.7.7.7.7.7.7.I.M l.'.'.#.W b.&.k k J.K.E I H.      c., 8 $ $ $ ",
"      * , # $ $ $ Z k k k k k k A L T @.'.'.{.L.M.7.7.7.7.7.7.7.7.7.7.7.7.7.N.O.P.Q.'.'.#.W b.R.k k k w.r I H.      c., 8 $ $ $ ",
"      * , # $ $ $ Z k k k k k k A L T @.'.'.S.T.U.M.7.7.7.7.7.7.7.7.7.7.7.N.V.L N '.'.'.#.W b.&.Z k k k k R H.      c., 8 $ $ $ ",
"      * , # $ $ $ Z k k k k k k A L T W.'.'.'.S.T.U.M.7.7.7.7.7.7.7.7.7.N.V.L N '.'.'.'.X.W b.&.d Z k k k t H.      c., 8 $ $ $ ",
"      * , # $ $ $ Z k k k k k k &.Y.T T W.'.'.'.S.T.U.M.7.7.7.7.7.7.7.N.V.L N '.'.'.'.Z.W W `.r  +t. +k k s .+      c., 8 $ $ $ ",
"      * , # $ $ $  +k k k k k k k ++@+T T W.'.'.'.S.T.#+$+%+%+%+%+%+&+*+L N '.'.'.'.Z.W W `.B k k b b k k k !.      c., 8 $ $ $ ",
"      * , # $ $ $ >.k k k k k k *.$ z.Y.T T W.'.'.'.S.T.l.M M M M M M P.N '.'.'.'.Z.W W `.B k k k Z $ *.k k n.      c., 8 $ $ $ ",
"      * , # $ $ $ t r k k k k k c $ *.=+-+T T W.'.'.'.'.l.l.l.l.l.l.l.Q.'.'.'.'.Z.W W `.B k k k k ;+$ b k k n.      c., 8 $ $ $ ",
"      * , # $ $ $ [.4.k k k k k $ =.>+,+'+)+T T W.'.'.'.'.'.'.'.'.'.'.'.'.'.'.Z.W W `.B k k k k k k t.$ k k n.      c., 8 $ $ $ ",
"      * , # $ $ $ !+H r k k k Z b k ~+{+o ]+Y.T T W.'.'.'.'.'.'.'.'.'.'.'.'.Z.W W ^+B k k k k k k k b $ Z k n.      c., 8 $ $ $ ",
"      * , # $ $ $ k R ;.>.k k c  +k /+{+(+r _+Y.T T :+#.#.#.#.#.#.#.#.#.#.X.W W <+P k k k k k k k  +t.$ *.k n.      c., 8 $ $ $ ",
"      * , # $ $ $ Z r [+;.Y }+k k k |+1+o.k k _+Y.T 2+W W W W W W W W W W W W `.I -.>.k k k k k Z t.$ d k k n.      c., 8 $ $ $ ",
"      * , # $ t.v.3+4+>.m k k k k k r 5+6+k k k _+7+W b.b.b.b.b.b.b.b.b.b.b.`.B l ;.H t m k Z b c d k m >.8+)       c., 8 $ $ $ ",
"      * , < 9+g.0+  0+0+a+b+3+!+;.H ;.t >.k k k k c+&.&.d+B e+f+g+h+&.&.&.&.r k k k r k k k r m i+n.C.j+0+          c., 8 $ $ $ ",
"      * , 1 | ~ 0+            0+0+j+H.k+8+4.e r r r r r r r r r r r r r r r >.l m m >.4+n.C.~ 0+0+            0+- : 1 , 8 $ $ $ ",
"      * , , , , l+: a 0+                0+} ) ] ] ] ] ] ] ] ] ] ] ] ] ] ] ) a+a+m+a+0+0+                0+n+> 1 , , , , 8 $ $ $ ",
"      * , , , , , , , 1 c.- 0+                                                                    _ g.o+1 , , , , , , , 8 $ $ $ ",
"      * , , , , , , , , , , 1 > g.0+                                                        . ] * { , , , , , , , , , , 8 $ $ $ ",
"      * , , , , , , , , , , , , , 1 & p+_ 0+0+0+0+0+0+0+0+0+0+0+0+0+0+0+0+0+0+0+0+0+0+. | q+{ , , , , , , , , , , , , , 8 $ $ $ ",
"      * , , , , , , , , , , , , , , , , { { { { { { { { { { { { { { { { { { { { { { { { , , , , , , , , , , , , , , , , 8 $ $ $ ",
"      > , , , , , , , , , , , , , , , , , , , , , , , , , , , , , , , , , , , , , , , , , , , , , , , , , , , , , , , r+s+$ $ $ ",
"        - 0 , , , , , , , , , , , , , , , , , , , , , , , , , , , , , , , , , , , , , , , , , , , , , , , , , , , r+6 ^ $ $ $ $ ",
"          0+g., , , , , , , , , , , , , , , , , , , , , , , , , , , , , , , , , , , , , , , , , , , , , , , , , t+! $ $ $ $ $ $ ",
"            u+v+, , , , , , , , , , , , , , , , , , , , , , , , , , , , , , , , , , , , , , , , , , , , , , , , 5 $ $ $ $ $ $ $ ",
"          o+w+t.x+, , , , , , , , , , , , , , , , , , , , , , , , , , , , , , , , , , , , , , , , , , , , , , y+4 $ $ $ $ $ $ $ ",
"        0 t.$ $ 8 , , , , , , , , , , , , , , , , , , , , , , , , , , , , , , , , , , , , , , , , , , , , , , ! $ $ $ $ $ $ $ $ ",
"    0+z+t.$ $ $ 4 6 A+A+A+A+A+A+A+A+A+A+A+A+A+A+A+A+A+A+A+A+A+A+A+A+A+A+A+A+A+A+A+A+A+A+A+A+A+A+A+A+A+A+A+A+# $ $ $ $ $ $ $ $ $ ",
"  } 7 4 $ $ $ $ $ $ $ $ $ $ $ $ $ $ $ $ $ $ $ $ $ $ $ $ $ $ $ $ $ $ $ $ $ $ $ $ $ $ $ $ $ $ $ $ $ $ $ $ $ $ $ $ $ $ $ $ $ $ $ $ ",
"} B+$ $ $ $ $ $ $ $ $ $ $ $ $ $ $ $ $ $ $ $ $ $ $ $ $ $ $ $ $ $ $ $ $ $ $ $ $ $ $ $ $ $ $ $ $ $ $ $ $ $ $ $ $ $ $ $ $ $ $ $ $ $ ",
"6 $ $ $ $ $ $ $ $ $ $ $ $ $ $ $ $ $ $ $ $ $ $ $ $ $ $ $ $ $ $ $ $ $ $ $ $ $ $ $ $ $ $ $ $ $ $ $ $ $ $ $ $ $ $ $ $ $ $ $ $ $ $ $ "};
