/* XPM */
static char * respawn_anchor_side3_xpm[] = {
"64 64 299 2",
"  	c #231349",
". 	c #221247",
"+ 	c #160A33",
"@ 	c #211247",
"# 	c #150A32",
"$ 	c #0F0628",
"% 	c #211245",
"& 	c #1C0F3F",
"* 	c #1C0F3E",
"= 	c #1D1041",
"- 	c #201144",
"; 	c #140930",
"> 	c #1D0F40",
", 	c #190D3A",
"' 	c #201245",
") 	c #201143",
"! 	c #12082D",
"~ 	c #211246",
"{ 	c #190D3B",
"] 	c #1F1042",
"^ 	c #11072C",
"/ 	c #1C0F3D",
"( 	c #11072B",
"_ 	c #221248",
": 	c #1E1041",
"< 	c #150A33",
"[ 	c #10072A",
"} 	c #221348",
"| 	c #1E1042",
"1 	c #1A0D3B",
"2 	c #180D39",
"3 	c #140932",
"4 	c #0F0629",
"5 	c #13082F",
"6 	c #160B34",
"7 	c #180C37",
"8 	c #130930",
"9 	c #180C39",
"0 	c #1B0E3C",
"a 	c #201145",
"b 	c #11072A",
"c 	c #12072B",
"d 	c #12082B",
"e 	c #14092E",
"f 	c #160A31",
"g 	c #150930",
"h 	c #1A074D",
"i 	c #140735",
"j 	c #1D0E40",
"k 	c #15092E",
"l 	c #170A31",
"m 	c #16092F",
"n 	c #230866",
"o 	c #210762",
"p 	c #1F0958",
"q 	c #26105E",
"r 	c #15092F",
"s 	c #170A32",
"t 	c #190B34",
"u 	c #1B0E36",
"v 	c #1C0F36",
"w 	c #1D1037",
"x 	c #1C0F37",
"y 	c #1A0E32",
"z 	c #190D30",
"A 	c #190E31",
"B 	c #160A2F",
"C 	c #160935",
"D 	c #190941",
"E 	c #160934",
"F 	c #270873",
"G 	c #26105F",
"H 	c #1B0D38",
"I 	c #1C0D39",
"J 	c #271942",
"K 	c #43335B",
"L 	c #47375F",
"M 	c #47375E",
"N 	c #44345C",
"O 	c #2B1D4A",
"P 	c #1B0D37",
"Q 	c #1F0959",
"R 	c #1B0C37",
"S 	c #25183E",
"T 	c #483860",
"U 	c #473860",
"V 	c #3C2D58",
"W 	c #2F214F",
"X 	c #2A1D49",
"Y 	c #1A0C35",
"Z 	c #13082C",
"` 	c #201142",
" .	c #23173A",
"..	c #42335A",
"+.	c #3F3159",
"@.	c #3D2E56",
"#.	c #392B54",
"$.	c #30224F",
"%.	c #291C47",
"&.	c #170B30",
"*.	c #14082D",
"=.	c #12072A",
"-.	c #1C0D38",
";.	c #1A0C36",
">.	c #160A30",
",.	c #3F3158",
"'.	c #3C2E56",
").	c #382A54",
"!.	c #1F1041",
"~.	c #1B0C38",
"{.	c #362853",
"].	c #3C2E57",
"^.	c #3D2F57",
"/.	c #32234F",
"(.	c #664B46",
"_.	c #7B5C3E",
":.	c #77573F",
"<.	c #302246",
"[.	c #2A1D46",
"}.	c #2A1E47",
"|.	c #403159",
"1.	c #45365D",
"2.	c #190B35",
"3.	c #977143",
"4.	c #F9C20C",
"5.	c #FCCD03",
"6.	c #FBCC03",
"7.	c #EEA904",
"8.	c #372310",
"9.	c #080410",
"0.	c #261C35",
"a.	c #46375E",
"b.	c #180B33",
"c.	c #180C30",
"d.	c #FBC40A",
"e.	c #FFDE00",
"f.	c #FFE400",
"g.	c #FEE200",
"h.	c #EEA700",
"i.	c #37230B",
"j.	c #06030B",
"k.	c #06030C",
"l.	c #12072C",
"m.	c #372953",
"n.	c #2E204E",
"o.	c #1D1040",
"p.	c #190649",
"q.	c #1B0849",
"r.	c #13082B",
"s.	c #1F1143",
"t.	c #10062B",
"u.	c #210763",
"v.	c #20075F",
"w.	c #2A1F3A",
"x.	c #41325A",
"y.	c #100729",
"z.	c #1D0F3D",
"A.	c #1C0851",
"B.	c #1A0847",
"C.	c #180D30",
"D.	c #FCC903",
"E.	c #FFE300",
"F.	c #1A1327",
"G.	c #160B30",
"H.	c #FBC803",
"I.	c #FEE100",
"J.	c #FEE000",
"K.	c #100629",
"L.	c #140831",
"M.	c #150931",
"N.	c #7A5B3E",
"O.	c #F3AE03",
"P.	c #F3AB00",
"Q.	c #EEA500",
"R.	c #4D330A",
"S.	c #3E2C27",
"T.	c #48385E",
"U.	c #160933",
"V.	c #250870",
"W.	c #1E0855",
"X.	c #160C2E",
"Y.	c #77533E",
"Z.	c #F8BB03",
"`.	c #FECA00",
" +	c #FECB00",
".+	c #FEC000",
"++	c #EFAA00",
"@+	c #F1B600",
"#+	c #F2B600",
"$+	c #F3B511",
"%+	c #5A455E",
"&+	c #1F0858",
"*+	c #270776",
"=+	c #1E0F3F",
"-+	c #150B2C",
";+	c #76513E",
">+	c #F4BF03",
",+	c #FFE200",
"'+	c #FEC300",
")+	c #F6BA00",
"!+	c #FBC00F",
"~+	c #5B455E",
"{+	c #220865",
"]+	c #24076E",
"^+	c #1B084A",
"/+	c #201042",
"(+	c #75503F",
"_+	c #F4BE03",
":+	c #1D0851",
"<+	c #24076B",
"[+	c #503749",
"}+	c #D7971B",
"|+	c #FBD500",
"1+	c #FFD201",
"2+	c #DEA934",
"3+	c #523F5F",
"4+	c #40325A",
"5+	c #170B31",
"6+	c #3B2D56",
"7+	c #332551",
"8+	c #5A3E47",
"9+	c #D8981B",
"0+	c #DEA933",
"a+	c #403259",
"b+	c #342651",
"c+	c #3E2F55",
"d+	c #FEC200",
"e+	c #342652",
"f+	c #251842",
"g+	c #14092D",
"h+	c #201041",
"i+	c #150B2D",
"j+	c #3E2F54",
"k+	c #D7961E",
"l+	c #EEA70F",
"m+	c #EFA80F",
"n+	c #F5B30F",
"o+	c #F7B60F",
"p+	c #4D395A",
"q+	c #59425E",
"r+	c #59435E",
"s+	c #200D52",
"t+	c #402F62",
"u+	c #15092D",
"v+	c #160931",
"w+	c #25086E",
"x+	c #240C65",
"y+	c #3E2F57",
"z+	c #180B34",
"A+	c #160936",
"B+	c #270775",
"C+	c #1A0D34",
"D+	c #261944",
"E+	c #18093D",
"F+	c #1E0859",
"G+	c #190D31",
"H+	c #3E3058",
"I+	c #271946",
"J+	c #190B33",
"K+	c #170A30",
"L+	c #18093C",
"M+	c #260774",
"N+	c #382954",
"O+	c #1C0E3C",
"P+	c #180C35",
"Q+	c #1A0848",
"R+	c #18083E",
"S+	c #3A2C52",
"T+	c #1A0C37",
"U+	c #190C38",
"V+	c #231348",
"W+	c #211145",
"X+	c #1D0F3E",
"Y+	c #160B2F",
"Z+	c #180C32",
"`+	c #13092D",
" @	c #12082C",
".@	c #13092C",
"+@	c #150A2E",
"@@	c #190C36",
"#@	c #221246",
"$@	c #1F1040",
"%@	c #1A0E3C",
"&@	c #211144",
"*@	c #1F1144",
"=@	c #1D0F3F",
"-@	c #1F1043",
";@	c #1B0E3D",
">@	c #190D39",
",@	c #12082E",
"'@	c #170C37",
")@	c #1E0F40",
"!@	c #150932",
"~@	c #10062A",
"{@	c #180C38",
"]@	c #170B36",
"^@	c #1A0D3A",
"/@	c #160B35",
"(@	c #180B36",
"                                                                                                                            . + ",
"                                                                                                                          @ # $ ",
"                                                                                                                        % # $ $ ",
"                . & * * * * * * * * * * * * * * * * * * * * * * * * * * * * * * * * * * * * * * * * * * * * =         - ; $ $ $ ",
"                > , , , , , , , , , , , , , , , , , , , , , , , , , , , , , , , , , , , , , , , , , , , , , , '     ) ! $ $ $ $ ",
"              ~ { , , , , , , , , , , , , , , , , , , , , , , , , , , , , , , , , , , , , , , , , , , , , , , *   ] ^ $ $ $ $ $ ",
"              & , , , , , , , , , , , , , , , , , , , , , , , , , , , , , , , , , , , , , , , , , , , , , , , , / ( $ $ $ $ $ $ ",
"          _ : , , , , , , , , , , , , , , , , , , , , , , , , , , , , , , , , , , , , , , , , , , , , , , , , , , < [ $ $ $ $ $ ",
"      } | 1 , , , , , , , , , , , , , , , , , , , , , , , , , , , , , , , , , , , , , , , , , , , , , , , , , , , , 2 3 4 $ $ $ ",
"      & , , , , , , , , , , , , , , , , , , , , , , , , , , , , , , , , , , , , , , , , , , , , , , , , , , , , , , , , 5 $ $ $ ",
"      * , , , , , , , , , , , , , , , , 2 6 6 6 6 6 6 6 6 6 6 6 6 6 6 6 6 6 6 6 6 6 7 , , , , , , , , , , , , , , , , , 8 $ $ $ ",
"      * , , , , , , , , , , , , , , , 9 ! $ $ $ $ $ $ $ $ $ $ $ $ $ $ $ $ $ $ $ $ $ 0 a { , , , , , , , , , , , , , , , 8 $ $ $ ",
"      * , , , , , , , , , , , , , , 9 ! $ $ $ $ $ $ $ $ $ $ $ $ $ $ $ $ $ $ $ $ $ [ .   a { , , , , , , , , , , , , , , 8 $ $ $ ",
"      * , , , , , , , , , , , , , 9 ! $ $ $ $ $ $ $ $ $ $ $ $ $ $ $ $ $ $ $ $ $ $ 7       a { , , , , , , , , , , , , , 8 $ $ $ ",
"      * , , , , , , , , , , , , 9 ! $ $ $ $ b c c c c c c c c d e f g d c c c h i j         a { , , , , , , , , , , , , 8 $ $ $ ",
"      * , , , , , , , , , , , 9 ! $ $ $ $ c k k k k k k k k k k k l m k k k g n o p q         a { , , , , , , , , , , , 8 $ $ $ ",
"      * , , , , , , , , , , 9 ! $ $ $ $ c k r s t u v w x y z z A A A A A A B C D E F G         a { , , , , , , , , , , 8 $ $ $ ",
"      * , , , , , , , , , 9 ! $ $ $ $ r t H I I J K L L L L M M L L L L L N O P t B E Q a         a { , , , , , , , , , 8 $ $ $ ",
"      * , , , , , , , , 9 ! $ $ $ $ g I I I R S K T T T T T T T T T T T U V W X Y l r Z m `         a { , , , , , , , , 8 $ $ $ ",
"      * , , , , , , , 9 ! $ $ $ $ g I I Y l  ...T L +.@.@.@.@.@.@.@.@.@.@.#.$.W %.&.k *.=.*.]         a { , , , , , , , 8 $ $ $ ",
"      * , , , , , , 9 ! $ $ $ $ g -.;.>.k  ...T L ,.'.'.'.'.'.'.'.'.'.'.'.'.).$.W %.&.k k b ( !.        a { , , , , , , 8 $ $ $ ",
"      * , , , , , 9 ! $ $ $ $ g ~.l k k  ...T L ,.'.'.'.'.'.'.'.'.'.'.'.'.'.'.).$.W %.&.k k =.[ :         a { , , , , , 8 $ $ $ ",
"      * , , , , 9 ! $ $ $ $ g -.l k k  ...T L ,.'.'.'.#.{.{.{.{.{.{.{.].^.'.'.'.).$.W %.&.k k Z [ :         a { , , , , 8 $ $ $ ",
"      * , , , 9 ! $ $ $ $ g I R k k  ...T L ,.'.'.'.#./.(._._.:.<.[.}.|.1.^.'.'.'.).$.W %.&.k k Z [ :         a { , , , 8 $ $ $ ",
"      * , , 9 ! $ $ $ $ c 2.I t k  ...T L ,.'.'.'.#./.3.4.5.6.7.8.9.9.0.a.1.^.'.'.'.).$.W %.&.k k Z [ :         a { , , 8 $ $ $ ",
"      * , 2 ! $ $ $ $ c k b.I t c...T L ,.'.'.'.#./.3.d.e.f.g.h.i.j.j.k.0.a.1.^.'.'.'.).$.W %.B k k Z [ :         a { , 8 $ $ $ ",
"      * , # $ $ $ 4 l.k k r H ;.A L T +.'.'.'.#./.3.d.e.f.f.g.h.i.j.j.j.k.0.a.1.^.'.'.'.m.W n.&.k k k b [ :         o., 8 $ $ $ ",
"      * , # $ $ 4 p.q.k k k l R y L T @.'.'.#./.3.d.e.f.f.f.g.h.i.j.j.j.j.k.0.a.1.^.'.'.#.W n.&.k k k r.$ [ s.      o., 8 $ $ $ ",
"      * , # $ $ t.u.v.g k k k l A L T @.'.'.{.(.4.e.f.f.f.f.g.h.i.j.j.j.j.j.k.w.L x.'.'.#.W n.&.k k *.y.$ b z.      o., 8 $ $ $ ",
"      * , # $ $ 4 A.B.r k k k k C.M T @.'.'.{._.D.E.f.f.f.f.g.h.i.j.j.j.j.j.j.F.M x.'.'.#.W n.G.*.b $ $ b k z.      o., 8 $ $ $ ",
"      * , # $ $ $ Z k k k k k k A L T @.'.'.{._.H.I.g.g.g.g.J.h.i.j.j.j.j.j.j.F.M x.'.'.#.W n.d $ K.c L.M.k z.      o., 8 $ $ $ ",
"      * , # $ $ $ Z Z d d Z k k A L T @.'.'.{.N.O.P.P.P.P.P.P.Q.R.i.i.i.i.i.i.S.T.x.'.'.#.W n.B k k U.V.W.k z.      o., 8 $ $ $ ",
"      * , # $ $ $ Z k Z c $ $ $ X.M T @.'.'.{.Y.Z.`. + + + +`..+++@+@+@+@+@+#+$+%+x.'.'.#.W n.&.k k &+*+A.l =+      o., 8 $ $ $ ",
"      * , # $ $ $ Z k k k k Z b -+M T @.'.'.{.;+>+E.E.E.E.E.,+'+)+,+E.E.E.E.,+!+~+x.'.'.#.W n.&.k k {+]+^+R /+      o., 8 $ $ $ ",
"      * , # $ $ $ Z k k k k k k C.M T @.'.'.{.(+_+E.f.f.f.f.E.'+)+E.f.f.f.f.,+!+~+x.'.'.#.W n.&.k k :+<+E I /+      o., 8 $ $ $ ",
"      * , # $ $ $ Z k k k k k k A L T @.'.'.{.[+}+|+f.f.f.f.E.'+)+E.f.f.f.E.1+2+3+4+'.'.#.W n.5+k k k U.r I /+      o., 8 $ $ $ ",
"      * , # $ $ $ Z k k k k k k A L T @.'.'.6+7+8+9+|+f.f.f.E.'+)+E.f.f.E.1+0+%+N '.'.'.#.W n.&.Z k k k k R /+      o., 8 $ $ $ ",
"      * , # $ $ $ Z k k k k k k A L T a+'.'.'.6+7+8+9+|+f.f.E.'+)+E.f.E.1+0+%+N '.'.'.'.b+W n.&.d Z k k k t /+      o., 8 $ $ $ ",
"      * , # $ $ $ Z k k k k k k &.c+T T a+'.'.'.6+7+8+9+|+g.I.d+)+,+,+1+0+%+N '.'.'.'.e+W W f+r g+K.g+k k s h+      o., 8 $ $ $ ",
"      * , # $ $ $ g+k k k k k k k i+j+T T a+'.'.'.6+7+8+k+l+m+n+o+!+!+2+%+N '.'.'.'.e+W W f+B k k b b k k k !.      o., 8 $ $ $ ",
"      * , # $ $ $ >.k k k k k k *.$ X.c+T T a+'.'.'.6+b+p+q+q+r+%+~+~+3+N '.'.'.'.e+W W f+B k k k Z $ *.k k z.      o., 8 $ $ $ ",
"      * , # $ $ $ t r k k k k k c $ *.s+t+T T a+'.'.'.'.x.x.x.x.x.x.x.4+'.'.'.'.e+W W f+B k k k k u+$ b k k z.      o., 8 $ $ $ ",
"      * , # $ $ $ 2.b.k k k k k $ =.v+w+x+y+T T a+'.'.'.'.'.'.'.'.'.'.'.'.'.'.e+W W f+B k k k k k k K.$ k k z.      o., 8 $ $ $ ",
"      * , # $ $ $ z+H r k k k Z b k A+B+o C+c+T T a+'.'.'.'.'.'.'.'.'.'.'.'.e+W W D+B k k k k k k k b $ Z k z.      o., 8 $ $ $ ",
"      * , # $ $ $ k R ;.>.k k c g+k E+B+F+r G+c+T T H+#.#.#.#.#.#.#.#.#.#.b+W W I+P k k k k k k k g+K.$ *.k z.      o., 8 $ $ $ ",
"      * , # $ $ $ Z r J+;.Y K+k k k L+M+A.k k G+c+T N+W W W W W W W W W W W W f+I -.>.k k k k k Z K.$ d k k z.      o., 8 $ $ $ ",
"      * , # $ K.M.O+P+>.m k k k k k r Q+R+k k k G+S+W n.n.n.n.n.n.n.n.n.n.n.f+B l ;.H t m k Z b c d k m >.T+)       o., 8 $ $ $ ",
"      * , < U+s.V+  V+V+W+X+O+z+;.H ;.t >.k k k k Y+&.&.Z+B `+ @.@+@&.&.&.&.r k k k r k k k r m @@z.=+#@V+          o., 8 $ $ $ ",
"      * , 1 | ~ V+            V+V+#@/+$@T+b.e r r r r r r r r r r r r r r r >.l m m >.P+z.=+~ V+V+            V+- : 1 , 8 $ $ $ ",
"      * , , , , %@: a V+                V+} ) ] ] ] ] ] ] ] ] ] ] ] ] ] ] ) W+W+&@W+V+V+                V+*@> 1 , , , , 8 $ $ $ ",
"      * , , , , , , , 1 o.- V+                                                                    _ s.=@1 , , , , , , , 8 $ $ $ ",
"      * , , , , , , , , , , 1 > s.V+                                                        . ] * { , , , , , , , , , , 8 $ $ $ ",
"      * , , , , , , , , , , , , , 1 & -@_ V+V+V+V+V+V+V+V+V+V+V+V+V+V+V+V+V+V+V+V+V+V+. | ;@{ , , , , , , , , , , , , , 8 $ $ $ ",
"      * , , , , , , , , , , , , , , , , { { { { { { { { { { { { { { { { { { { { { { { { , , , , , , , , , , , , , , , , 8 $ $ $ ",
"      > , , , , , , , , , , , , , , , , , , , , , , , , , , , , , , , , , , , , , , , , , , , , , , , , , , , , , , , >@,@$ $ $ ",
"        - 0 , , , , , , , , , , , , , , , , , , , , , , , , , , , , , , , , , , , , , , , , , , , , , , , , , , , >@6 ^ $ $ $ $ ",
"          V+s., , , , , , , , , , , , , , , , , , , , , , , , , , , , , , , , , , , , , , , , , , , , , , , , , '@! $ $ $ $ $ $ ",
"            )@!@, , , , , , , , , , , , , , , , , , , , , , , , , , , , , , , , , , , , , , , , , , , , , , , , 5 $ $ $ $ $ $ $ ",
"          =@~@K.{@, , , , , , , , , , , , , , , , , , , , , , , , , , , , , , , , , , , , , , , , , , , , , , ]@4 $ $ $ $ $ $ $ ",
"        0 K.$ $ 8 , , , , , , , , , , , , , , , , , , , , , , , , , , , , , , , , , , , , , , , , , , , , , , ! $ $ $ $ $ $ $ $ ",
"    V+^@K.$ $ $ 4 6 /@/@/@/@/@/@/@/@/@/@/@/@/@/@/@/@/@/@/@/@/@/@/@/@/@/@/@/@/@/@/@/@/@/@/@/@/@/@/@/@/@/@/@/@# $ $ $ $ $ $ $ $ $ ",
"  } 7 4 $ $ $ $ $ $ $ $ $ $ $ $ $ $ $ $ $ $ $ $ $ $ $ $ $ $ $ $ $ $ $ $ $ $ $ $ $ $ $ $ $ $ $ $ $ $ $ $ $ $ $ $ $ $ $ $ $ $ $ $ ",
"} (@$ $ $ $ $ $ $ $ $ $ $ $ $ $ $ $ $ $ $ $ $ $ $ $ $ $ $ $ $ $ $ $ $ $ $ $ $ $ $ $ $ $ $ $ $ $ $ $ $ $ $ $ $ $ $ $ $ $ $ $ $ $ ",
"6 $ $ $ $ $ $ $ $ $ $ $ $ $ $ $ $ $ $ $ $ $ $ $ $ $ $ $ $ $ $ $ $ $ $ $ $ $ $ $ $ $ $ $ $ $ $ $ $ $ $ $ $ $ $ $ $ $ $ $ $ $ $ $ "};
