/* XPM */
static char * soul_sand_xpm[] = {
"64 64 214 2",
"  	c #715B4C",
". 	c #796152",
"+ 	c #786051",
"@ 	c #48392F",
"# 	c #3A2D26",
"$ 	c #3F3129",
"% 	c #41322A",
"& 	c #4F3E34",
"* 	c #645043",
"= 	c #655044",
"- 	c #634F42",
"; 	c #695447",
"> 	c #786052",
", 	c #6C5649",
"' 	c #514036",
") 	c #483930",
"! 	c #352922",
"~ 	c #362922",
"{ 	c #5B483D",
"] 	c #765F50",
"^ 	c #5A473C",
"/ 	c #4D3D34",
"( 	c #47382F",
"_ 	c #4E3E33",
": 	c #775F51",
"< 	c #675246",
"[ 	c #3D2F27",
"} 	c #42342B",
"| 	c #6A5547",
"1 	c #725B4D",
"2 	c #5D4A3E",
"3 	c #493A31",
"4 	c #4D3D33",
"5 	c #776051",
"6 	c #6D574A",
"7 	c #4E3E34",
"8 	c #524136",
"9 	c #685346",
"0 	c #614D41",
"a 	c #735C4E",
"b 	c #604C41",
"c 	c #534238",
"d 	c #45362E",
"e 	c #392C25",
"f 	c #372B24",
"g 	c #6C5648",
"h 	c #5A483D",
"i 	c #403129",
"j 	c #362A22",
"k 	c #745D4E",
"l 	c #5F4C40",
"m 	c #554439",
"n 	c #44352D",
"o 	c #362A23",
"p 	c #44352C",
"q 	c #755E4F",
"r 	c #665145",
"s 	c #4A3B31",
"t 	c #43342C",
"u 	c #3A2D25",
"v 	c #42332B",
"w 	c #6A5447",
"x 	c #5C4A3E",
"y 	c #554339",
"z 	c #524137",
"A 	c #4B3B32",
"B 	c #3E3028",
"C 	c #5E4B3F",
"D 	c #56443A",
"E 	c #5C493E",
"F 	c #6F594B",
"G 	c #4F3F35",
"H 	c #382C24",
"I 	c #4C3B32",
"J 	c #624D41",
"K 	c #675245",
"L 	c #6D5749",
"M 	c #705A4C",
"N 	c #57463B",
"O 	c #504036",
"P 	c #3B2D26",
"Q 	c #604C40",
"R 	c #6E584A",
"S 	c #4C3C32",
"T 	c #715A4C",
"U 	c #58463B",
"V 	c #40322A",
"W 	c #3D3028",
"X 	c #45352D",
"Y 	c #4A3930",
"Z 	c #504035",
"` 	c #382B24",
" .	c #6B5648",
"..	c #41332A",
"+.	c #544339",
"@.	c #745D4F",
"#.	c #5D4A3F",
"$.	c #4F3E35",
"%.	c #493930",
"&.	c #524036",
"*.	c #41332B",
"=.	c #614E41",
"-.	c #5F4B3F",
";.	c #755D4F",
">.	c #5E4A3F",
",.	c #4A3A31",
"'.	c #4B3C32",
").	c #6C5749",
"!.	c #4A3B32",
"~.	c #372A23",
"{.	c #544338",
"].	c #57453A",
"^.	c #564439",
"/.	c #59473C",
"(.	c #634F43",
"_.	c #715B4D",
":.	c #624E42",
"<.	c #45362D",
"[.	c #503F35",
"}.	c #604D41",
"|.	c #43342B",
"1.	c #58463A",
"2.	c #3B2E26",
"3.	c #3C2F27",
"4.	c #4C3C33",
"5.	c #493A30",
"6.	c #57443A",
"7.	c #786152",
"8.	c #645044",
"9.	c #4E3D34",
"0.	c #6E574A",
"a.	c #775F50",
"b.	c #5C493D",
"c.	c #372B23",
"d.	c #655144",
"e.	c #5B483E",
"f.	c #6B5548",
"g.	c #46372F",
"h.	c #44362D",
"i.	c #392D25",
"j.	c #6F584B",
"k.	c #6E584B",
"l.	c #765E50",
"m.	c #43352C",
"n.	c #534237",
"o.	c #725C4D",
"p.	c #57453B",
"q.	c #56453A",
"r.	c #544238",
"s.	c #665245",
"t.	c #46382F",
"u.	c #45372E",
"v.	c #644F43",
"w.	c #3F3229",
"x.	c #3D3027",
"y.	c #70594C",
"z.	c #4B3B31",
"A.	c #514137",
"B.	c #42342C",
"C.	c #59473B",
"D.	c #735D4E",
"E.	c #503F36",
"F.	c #655043",
"G.	c #5C483D",
"H.	c #5F4B40",
"I.	c #46372E",
"J.	c #685347",
"K.	c #6A5548",
"L.	c #655145",
"M.	c #4E3D33",
"N.	c #4D3C32",
"O.	c #6A5448",
"P.	c #614D42",
"Q.	c #624E41",
"R.	c #6B5649",
"S.	c #644F44",
"T.	c #634E42",
"U.	c #534137",
"V.	c #70594B",
"W.	c #5A483C",
"X.	c #59463B",
"Y.	c #3B2E27",
"Z.	c #5D493E",
"`.	c #695347",
" +	c #5D4B3F",
".+	c #745C4E",
"++	c #715A4D",
"@+	c #685246",
"#+	c #665144",
"$+	c #3C2E27",
"%+	c #3E3129",
"&+	c #43352D",
"*+	c #735C4D",
"=+	c #5B493D",
"-+	c #554338",
";+	c #4C3D33",
">+	c #695446",
",+	c #473930",
"'+	c #544237",
")+	c #483830",
"!+	c #47382E",
"~+	c #4D3C33",
"{+	c #47372E",
"]+	c #403229",
"^+	c #5E4B40",
"/+	c #614E42",
"(+	c #48382F",
"_+	c #3A2E26",
":+	c #514136",
"<+	c #5E4A3E",
"[+	c #534036",
"}+	c #524237",
"|+	c #6D584A",
"1+	c #59463C",
"  . . + @ # $ $ % & * * = - ; > . , ' ) ) ) ) $ $ $ $ $ # ! ! ! ~ { . . . . . . . . . . . . . ] ^ / ) ) ) ( $ $ $ ! ! ! ! ! ! ! ",
"_ : . . < [ $ } | + . . . . . . 1 2 3 ) ) ) ( $ $ $ $ $ # ! ! ! 4 5 . . . . . . . . . . . . . . 6 7 ) ) ) ) $ $ $ ~ ! ! ! ! ! ! ",
"! 8 5 . + 9 0 , . . . . . . . a b c ) ) ) ) d $ $ $ $ $ e ! ! f g . . . . . . . . . . . . . . . 5 h ) ) ) ) i $ $ f ! ! ! ! ! ! ",
"! j 8 k . . . . . . . . . . 1 l m / ) ) ) ) n $ $ $ $ $ o ! ! p 5 . . . . . . . . . . + q + . . . r s ) ) ) t $ $ u ! ! ! ! ! ! ",
"! ! ! v = : . . . . . . : w x y z A ) ) ) ) } $ $ $ $ B ! ! ! C . . . . . + . . . . a l D E a . . F G ) ) ) d $ $ # ! ! ! ! ! ! ",
"! ! ! ! H I J K L M , K C N z z O ) ) ) ) ) $ $ $ $ $ P ! ! ! Q . . . + ; 2 , . . . R S z z h + . T U 3 ) ) ) V $ W ! ! ! ! ! ! ",
"! ! ! ! H $ V X Y O Z ' z z z z 4 ) ) ) ) d $ $ $ $ $ ` ! ! o - . . .  .y ..I + . . + 0 z z +.+ . @.#.$.) ) ) n $ $ ~ ! ! ! ! ! ",
"! ! ! ! # $ $ $ v ) ) G z z z ' %.) ) ) 3 &.8 *.$ $ B ! ! ! ! =.. . + h v $ -.. . . . . ;.;  .. . : >.z A ) ) ( $ $ e ! ! ! ! ! ",
"! ! ! ! B $ $ $ n ) ,.z z z z 4 ) ) ) '.R + + ).p $ # ! ! ! ! -.. . + 8 V ' ] . . . + + + + . . . > l z G ) ) ) t $ P ! ! ! ! ! ",
"! ! ! o $ $ $ $ ( ) / z z z ' %.) ) !.R . . . . 0 $ ~.! ! ! ! {.> . . M = 5 . + R w x ].^./.(._.. > :.z z 3 ) ) <.$ B ! ! ! ! ! ",
"! ! ! u $ $ $ *.) %.' z z z / ) ) ) l . . . . . K $ ! ! ! ! ! u ;.. . . . . T C [.,.) ) ) z z ].+ : }.z z / ) ) ( |.E -.-.1.2.~ ",
"2.! ! 3.$ $ $ n ) 4.z z z z 5.) ) s 1 . . . . . K 3.! ! ! ! ! ! C . . . . _.E ) i ) ) ) ) z z y + 1 #.z z / ) ) A 6 + + > . ] :.",
"M s j $ $ $ $ ( ) O z z z 7 ) ) ) 3 L + . . . : 6.e ! ! ! ! ! ! 3.a . . 7.8.9.$ $ 3 / ].y +.m ).. 0.{ z z 7 ) ) * a E 9.^.+ > ).",
"{.M % $ $ $ *.) s z z z z s ) ) ) ) 3 4 C (.0 [.t ~ ! ! ! ! ! ! ! 8 + . > (.p $ d R + + + + + . a.r c z z / ) !.@., t 2.b.. R @ ",
"e T C $ $ $ n ) / z z z O ) ) ) ) ) ( $ $ $ $ $ $ ! ! ! ! ! ! ! ! c.d.. . 1 z A R . . . . . . 7., e.z z z / ) A 5 + Q - 5 . r f ",
"3. .f.V $ $ g.) O z z z / ) ) ) ) ) h.$ $ $ $ $ B ! ! ! ! ! ! ! ! ! i.9 + . + + . . . . . . . j.0 c z z z s ) 7 + . . . . . k.3.",
": . f.% $ $ ) ) z z z z '.) ) ) ) ) n $ $ $ $ $ B ! ! ! ! ! ! ! ! ! ! ` ^.l.. . . . . . . + L 0 c z z z [.) ) 4 + . : , f.;.+ : ",
". + C V $ ..) s z z z z %.) ) ) ) ) m.$ $ $ $ $ B ! ! ! ! ! ! ! ! ! ! ! j <.0 M 5 + + l.j.r { n.z z z z '.) ) 5.5 o.p.t ` *.n.F ",
"+ k [.$ $ m.) S z z z z 5.3 !.A A !.m.$ $ $ $ $ $ ! ! ! ! ! ! ! ! ! ! ! o $ $ v 4 ].].q.r.c z z z z z $.) ) ) h.@., v u u o ! e ",
"7.= m.$ $ n ) 4.z c /.< s.R ;.5 5 ;.; 0 4 V $ $ $ ! ! ! ! ! ! ! ! ! ! ! u $ $ $ t.) ) ) [.z z z z z ' 3 ) ) u.$ :.+ K q a.v.w.x.",
"y.4 $ $ $ n ) 4.l 1 + . . . . . . . . . + | %.$ $ ~ ! ! ! ! ! ! ! ! ! ! # $ $ $ ) ) ) %.z z z z z z 4 ) ) ) } $ t L . . . . 5 : ",
"G ` $ $ $ n 5.0 + . . . . . . . . . . . . .   z.$ ~.! ! ! ! ! ! ! ! ! ! W $ $ *.) ) ) 4.z z z z z A.%.) ) %.V $ $ V (.] + + 5 , ",
"o ! $ $ $ } h + . . . . . . . . . . + > . . . 9 <.f ! ! ! ! ! ! ! ! ! ~.$ $ $ n ) ) ) / z z z z z 7 ) ) h f.< r.$ f o B.4 8 S m.",
"! ! W $ $ t 1 . . . . . . . . . . a }.C.).. . D.z ` ! ! ! ! ! ! ! ! ! # $ $ $ n ) ) ) E.z z z z z / ) U + . . : z.! ! ! ! ! ! ! ",
"! ! u $ $ z.+ . . . > > . . . . + F.8 i } K . + E H ! ! ! ! ! ! ! ! ! B $ $ $ d ) ) ) z z z z z z / 5.; . . . . G.o ! ! ! ! ! ! ",
"! ! j $ $ -.. . . @.< H.F . . . : b 3 v $ <.5 + 2 ` ! ! ! ! ! ! ! ! e $ $ $ $ I.) ) 3 z z z z z z / s _.. . . + r.o ! ! ! ! ! ! ",
"! ! ! 2.$ 0 . . + J.^ z 9 . . . . T U %.[.9 . + Q u ! ! ! ! ! ! ! ! # $ $ $ ..8 * s.J.K.9 Q +.z z / ) L.7.. . M t ! ! ! ! ! ! ! ",
"! ! ! o $ 0 . . o.:.c {.1 . . . . . + 5 + . . + b 2.! ! ! ! ! ! ! ! [ $ $ M.6 + . . . . . > 1 E z / ) s >.s.= N.o ! ! ! ! ! ! ! ",
"! ! ! ! 2.Q . . q #.y , . . . + q a ] > . . . + C 2.! ! ! ! ! ! ! ! $ $ n.] . . . . . . . . . a E 7 ) ) ) I.V $ ! ! ! ! ! ! ! ! ",
"! ! ! ! f 8 + . . + + . 7.1 O.>.q.n.' { M . . + E f ! ! ! ! ! ! ! ! $ n 1 . . . . . . . . . . . , {.) ) ) ) $ $ o ! ! ! ! ! ! ! ",
"! ! ! ! ! v 5 . . . . + , P.^.z !.) ) ) m + . a.E f ! ! ! ! ! ! ! ! $ Q.. . . . . . . . . . . . ;.#.!.) ) ) V $ # ! ! ! ! ! ! ! ",
"! ! ! ! ! W 1 . . . . R.0 c z z G ) ) ) A 5 . R ^.` ! ! ! ! ! ! ! ! v @.. . . . . . . + 6 9 a . + S.$.) ) ) m.$ W ! ! ! ! ! ! ! ",
"! ! ! ! ! ~.Q . . . l.T.r.z z z z ,.) ) 4 + . d.7 3.! ! ! ! ! ! ! ! n 5 . . + 6 a . . F /.z ].q . , U.3 ) ) u.$ $ c.! ! ! ! ! ! ",
"! ! ! ! ! ! n l.. . V.W.' z z {.X.^.A S ; . a E v $ 3.! ! ! ! ! ! ! S + . . 8.<.U > . + < U y F . F D 7 ) ) ) % $ Y.i.u u u e ! ",
"H ! ! ! ! ! 2.{ 7.. k X.7 z 0 : + + 5 5 . > K E.$ $ $ 3.! ! ! ! ! ! <.+ . q &.$ Q . . . . + l.. . y.e.z 3 ) ) d A :.k : : : _.2 ",
"F s ! ! ! ! # v  .. . ; ' 8.+ . . . . . . y.E *.$ $ $ $ e ! ! ! ! ! 3.: . q y &.] . + F d.* d.o.. _.#.z 7 ) s :.: . . . . . . . ",
". k I.! ! ! # $ ( , > . + . . . . . . . a 0 & $ $ $ $ $ B ! ! ! ! ! f K.. . + + + r z ,.) ) ) U.@.T Z.z z s ; . . ] ] 7.. . . . ",
". . `.f ! ! 2.$ n ,. +l.. . . . . . > M 0 [.) $ $ $ $ $ $ e ! ! ! ! ! ' + . . + P.} <.) ) ) ) / .+F p.z z l + : K &.4 < . . + . ",
". . 5 d ! ! B $ n ) ) '.0 T + > + a < { 4 ) ) $ $ $ $ $ $ # ! ! ! ! ! ` f.. . ++[.$ t U * * * ).+ @+c z c a . 1 ' d <.6 . F ' #+",
". . + z.! c.$ $ n ) ) ) ,.c U >.>.Z.7 %.) ) ( $ $ $ $ $ $ $+! ! ! ! ! ! <.@.. @.n.v Q + . . . . a { z z +.+ . . k., : . . F.f c.",
". . ] ,.! P $ $ n ) ) ) S z z z z ' ) ) ) ) d $ $ $ $ $ $ 3.! ! ! ! ! ! j U.] . a R + . . . . @.C z z z U + . q 6 6 @.. . R e ! ",
". . , *.~ %+$ $ n ) ) ) / z z z z / ) ) ) ) &+$ $ $ $ $ $ 2.! ! ! ! ! ! ! 2.M.6 + . . . . . *+=+,.z z z q.+ 1 { 4.3 ( b.;.+ =+-+",
". + >.c.e $ $ $ h.) ) ) O z ^ ; < [.) ) ) ) V $ $ $ $ $ $ B 2.*.W i.j ! ! H $ *.U.0 F.K s.l 7 ) ) z z z {.: 8.3 ) ) V $ 9.] > + ",
". V.@ ! W $ $ $ ( ) ) S z l a.. . k y ) ) t.$ $ $ $ $ <.:.q : 5 5 q 0 m.j ~ $ $ $ $ $ h.) ) ) ) ) ' z z c M M r.s ) V $ $ :.. . ",
"+ X.c.H $ $ $ V ) ) %.' {.a.. . . . , A ) n $ $ $ $ n.k . . . . . . . M S o B $ $ $ $ n ) ) ) ) ) ' z z z 0 7.+ a s.m % $ C . . ",
"0 ..! $+$ $ $ m.) ) 7 z {.: . . . . f.;+) *.$ $ $ M.] . . . . . . . . . K.p $+$ $ $ $ n ) ) ) ) ) ' z z z c F . . . + >+<.r . > ",
"..! j $ $ $ $ <.) !.z z z l q + 5  .n.) ) $ $ $ *.6 . . . . . . 1 R + . 5 ].3.$ $ $ $ n ) ) ) ) ) z z z z z [.R . . . . 5 + a b ",
"! ! e $ $ $ $ ,+) $.z z z z +./.z S ) ) ( $ $ $ '++ . + T M . . 9 @ [.] . < ( $ $ $ $ <.) ) ) ) 3 z z z z z !.!.(.0.T V.f.P.A # ",
"! ! # $ $ $ V ) %.z z z z z z ' ) ) ) ) I.$ $ $ :.. + :.)+!++ . k ^.f [.+ g ~+$ $ $ $ ( ) ) ) ) / z z z z z ) ) ) u.{+)+} f ! ! ",
"! ! $+$ $ V h.A 7 {.{.{.{.c z G ) ) ) ) d $ $ ..R . 6 4 #  .. . . : r Q + 1 {.V $ $ ]+) ) ) ) ) G z z z z $.) ) ) ..$ $ 3.! ! ! ",
"! ! [ <.-.< ] 5 + + + + 5 j.r c ) ) ) ) d $ $ v T . M G f.. . + + + . . . + E V $ $ t ) ) ) ) 3 z z z z z 4.) ) ( $ $ $ u ! ! ! ",
"! 2.:.a.. . . . . . . . . . . ] =+5.) ) d $ $ V K.. . + . T 0 A ( I.C 5 . + E % $ $ h.) ) ) ) / z z z z ' ) ) ) n $ $ $ o ! ! ! ",
"z.V.. . . . . . . . . . . . . . + ^+) ) d $ $ $ 0 . . . _.{.# ! ! ! ! ' + + E % $ $ ,+) ) ) %.' z z z z / ) ) ) *.$ $ 3.! ! ! ! ",
"l.. . . . . . . . . ] 6 @.. . . . 5 m ) ( $ $ $ %.: . . w %.! ! ! ! ! ` 6 ] E V $ } ) ) ) ) 4 z m K 9 { ,.) ) ( $ $ $ e ! ! ! ( ",
". . 5 w 1 . . . . . 9 b.^ 9 + . . . f.3 ) $ $ $ ]+F.. . | ) ! o # ..2.V V.j.{.i $ h.) ) ) %.' r.1 . . 5 E ) ) n $ $ $ ~ ! ! e 6 ",
". a.-+|.<.5 . . . . L y z c s.. . . 5 [.) % $ $ $ t R . a ' u l a.5 : 5 7.r ~+$ $ ) ) ) ) 4 z { + . . . @.7 ) *.$ $ 2.! ! ! -+> ",
". * B ` p 5 . . . . . F /++.l > . . + m ) n $ $ $ $ (+L . a R 7.. . . . _.p.V $ B.) ) ) %.' z /.+ . . . + c ,+$ $ $ e ! ! ~.9 . ",
"+ -+o o C . . . . . . . . + + . . . . :.%.t.$ $ $ $ $ 2.-.] > . . . + R p.t $ $ <.) ) ) 4.z z c F . . . + ^.d $ $ $ ~ ! ! u a.. ",
". w $ X.5 . . > + + + > . . . . . . . = 5.) V $ $ $ $ u ! _+-+-.:.=.[.A V $ $ $ ) ) ) ) O z z z +.R + 7.k :+&+$ $ 3.! ! ! u : . ",
". . 5 . . + w <+[+m U 0 j.+ . . . . . T.5.) m.$ $ $ $ 3.! ! ! ! ~ o u $ $ $ $ ..) ) ) ,.z z z z z z }+x c 3 *.$ $ # ! ! ! u : . ",
". . . . q ^ ( V V h.5.3 D d.a.. . . + ^ %.) h.$ $ $ $ $ ~ ! ! ! ! ! Y.$ $ $ $ &+) ) ) / z z z z z G ) ) ) ) $ $ $ e ! ! ! ` L . ",
". . . 7.b.B $ $ $ v ) ) / c * . . . ] r.) ) g.$ $ $ $ $ ` ! ! ! ! ! %+$ ..S 0 (.9 s.* 8.p.c z z z / ) ) ) ) $ $ $ o ! ! ! ! C . ",
". . . 5 m.# $ $ $ ]+) ) 4.z +.@.. . K.G ) ) ) $ $ $ $ $ # ! ! ! ! ! $ z R + . . . . . . + |+1+z z / ) ) ) ( $ $ $ ! ! ! ! ! B ] ",
". . . 5 B # $ $ $ $ ) ) !.z c R . + b.3 ) ) ) $ $ $ $ $ # ! ! ! ! ~.C 5 . . . . . . . . . . ] #.z / ) ) ) ( $ $ $ ! ! ! ! ! ~ 0 "};
