/* XPM */
static char * soul_soil_xpm[] = {
"64 64 122 2",
"  	c #352922",
". 	c #3A2D26",
"+ 	c #3F3129",
"@ 	c #483930",
"# 	c #4A3B32",
"$ 	c #524137",
"% 	c #45362E",
"& 	c #4D3D34",
"* 	c #47382F",
"= 	c #4C3C32",
"- 	c #3A2D25",
"; 	c #44362D",
"> 	c #362922",
", 	c #41332A",
"' 	c #504036",
") 	c #362A23",
"! 	c #3E3028",
"~ 	c #44352D",
"{ 	c #503F36",
"] 	c #403129",
"^ 	c #372B24",
"/ 	c #3B2E26",
"( 	c #43352C",
"_ 	c #534238",
": 	c #4F3F35",
"< 	c #3C2F27",
"[ 	c #4E3E34",
"} 	c #4A3A31",
"| 	c #43342C",
"1 	c #503F35",
"2 	c #5F4B40",
"3 	c #735C4E",
"4 	c #755E4F",
"5 	c #655144",
"6 	c #42342B",
"7 	c #392D25",
"8 	c #4D3D33",
"9 	c #45372E",
"0 	c #493930",
"a 	c #57453B",
"b 	c #776051",
"c 	c #796152",
"d 	c #634F43",
"e 	c #392C24",
"f 	c #493A31",
"g 	c #40322A",
"h 	c #3D3028",
"i 	c #382C24",
"j 	c #4C3C33",
"k 	c #675246",
"l 	c #695447",
"m 	c #493A30",
"n 	c #46382F",
"o 	c #4F3E35",
"p 	c #42332B",
"q 	c #685346",
"r 	c #695446",
"s 	c #42342C",
"t 	c #3D2F27",
"u 	c #392C25",
"v 	c #4B3B32",
"w 	c #5F4C40",
"x 	c #745D4F",
"y 	c #57453A",
"z 	c #3B2D26",
"A 	c #514037",
"B 	c #534237",
"C 	c #645044",
"D 	c #655044",
"E 	c #3C2E27",
"F 	c #45362D",
"G 	c #41332B",
"H 	c #514036",
"I 	c #382C25",
"J 	c #372A23",
"K 	c #382B24",
"L 	c #4A3B31",
"M 	c #46372F",
"N 	c #4B3C32",
"O 	c #46372E",
"P 	c #3D2F28",
"Q 	c #3E3129",
"R 	c #4B3C33",
"S 	c #6C5649",
"T 	c #362A22",
"U 	c #56443A",
"V 	c #786051",
"W 	c #534137",
"X 	c #705A4C",
"Y 	c #58463B",
"Z 	c #6F594B",
"` 	c #725B4D",
" .	c #59463C",
"..	c #6E584A",
"+.	c #5C493E",
"@.	c #41322A",
"#.	c #554339",
"$.	c #4E3D34",
"%.	c #372B23",
"&.	c #473930",
"*.	c #544238",
"=.	c #3B2E27",
"-.	c #4C3D33",
";.	c #5D4B3F",
">.	c #755E50",
",.	c #6B5648",
"'.	c #43352D",
").	c #5D4A3E",
"!.	c #5E4B3F",
"~.	c #765F50",
"{.	c #775F51",
"].	c #5B483D",
"^.	c #5A473C",
"/.	c #544339",
"(.	c #403229",
"_.	c #544338",
":.	c #6D574A",
"<.	c #5D4A3F",
"[.	c #514136",
"}.	c #715A4C",
"|.	c #624E42",
"1.	c #634F42",
"          . + + + + @ @ # $ $ $ $ $ @ @ @ @ @ + + + + + .           + + + + + % @ @ @ $ $ $ $ $ $ & @ @ @ * + + +               ",
"          . + + + + @ @ = $ $ $ $ $ @ @ @ @ * + + + + + -           + + + + + ; @ @ @ $ $ $ $ $ $ & @ @ @ @ + + + >             ",
"          . + + + , @ @ & $ $ $ $ ' @ @ @ @ % + + + + + )           ! + + + + ~ @ @ @ { $ $ $ $ $ ' @ @ @ @ ] + + ^             ",
"          / + + + ( @ @ & $ $ $ _ : @ @ @ @ ~ + + + + <             / + + + + ~ @ @ @ [ $ $ $ $ $ $ } @ @ @ | + + -             ",
"          ! + + + ~ @ @ 1 $ $ 2 3 4 5 # @ @ 6 + + + + ^             7 + + + + 6 @ @ @ 8 $ $ $ $ $ $ [ @ @ @ % + + .             ",
"        > + + + + 9 @ 0 $ $ a b c c c d @ @ + + + + e               ) + + + + + @ @ @ f $ $ $ $ $ $ $ f @ @ @ g + h             ",
"        i + + + + @ @ j $ $ k c c c c l m % + + + /                   < + + + + n @ @ @ 1 $ $ $ $ $ $ o @ @ @ ~ + + >           ",
"        . + + + p @ @ : $ $ q c c c c r 0 s + + t                     u + + + + ~ @ @ @ & $ $ $ $ $ $ $ v @ @ * + + u           ",
"        ! + + + ~ @ } $ $ $ w b c c x y @ + + + u                     > + + + + ( @ @ @ v $ $ $ $ $ $ $ : @ @ @ | + z           ",
"      ) + + + + * @ & $ $ $ A B C D _ f ~ + + + >                       E + + + p @ @ @ 0 $ $ $ $ $ $ $ $ f @ @ F + !           ",
"      - + + + G @ 0 H $ $ $ & @ @ @ @ @ , + + + >                       . + + + g @ @ @ @ $ $ $ $ $ $ $ $ & @ @ * + + >         ",
"      < + + + ~ @ j $ $ $ $ m @ @ @ @ n + + + + I                       J + + + + @ @ @ @ $ $ $ $ $ $ $ $ & @ @ @ + + K         ",
"    > + + + + * @ ' $ $ $ [ @ @ @ @ @ ~ + + + + /                         + + + + @ @ @ @ $ $ $ $ $ $ $ $ [ @ @ @ + + .         ",
"    u + + + G @ L $ $ $ $ L @ @ @ @ @ g + + + + + )                       + + + + @ @ @ @ $ $ $ $ $ $ $ $ & @ @ @ + + .         ",
"    z + + + ~ @ & $ $ $ ' @ @ @ @ @ * + + + + + + .                       ! + + g @ @ @ @ $ $ $ $ $ $ $ $ & @ @ * + + .         ",
"    h + + + M @ ' $ $ $ & @ @ @ @ @ ; + + + + + + !                       ! + + , @ @ @ @ $ $ $ $ $ $ $ $ 8 @ @ ; + + .         ",
"    + + + + @ @ $ $ $ $ N @ @ @ @ @ ~ + + + + + + + u                     + + + 6 @ @ @ f $ $ $ $ $ $ $ $ f @ @ G + + .         ",
"  ) + + + , @ L $ $ $ $ 0 @ @ @ @ @ ( + + + + + + + z                     + + + ~ @ @ @ j $ $ $ $ $ $ $ ' @ @ O + + + .         ",
"  K + + + ( @ = $ $ $ $ @ @ @ @ @ @ 6 + + + + + + + P                   ) + + + ~ @ @ @ & $ $ $ $ $ $ $ 8 @ @ G + + + u         ",
"  i + + + ~ @ j $ $ $ $ @ @ @ @ @ @ p + + + + + + + Q                   - + + + n @ @ @ 1 $ $ $ $ $ $ $ 0 @ 9 + + + + )         ",
"  K + + + ~ @ = $ $ $ $ @ @ @ @ @ @ p + + + + + + + t                   . + + + @ @ @ 0 $ $ $ $ $ $ $ [ @ @ 6 + + + +           ",
"  ) + + + ~ @ # $ $ $ $ @ @ @ @ @ @ | + + + + + + + .                   h + + G @ @ @ j $ $ $ $ $ $ $ R @ @ + + + + !           ",
"    + + + 6 @ 0 $ $ $ $ # @ @ @ @ @ ~ + + + + + + + ^                 J + + + ~ @ @ @ & $ $ $ $ $ $ $ 0 @ 9 + + + + /           ",
"    h + + g @ @ $ $ $ $ 8 @ @ @ @ @ ; + + + + + + +                   . + + + ~ @ @ f H $ $ $ $ $ $ H @ @ ~ + + + + .           ",
"    - + + + @ @ o $ $ $ [ @ @ @ @ @ * + + + + + + t                   ! + + + % @ : q S w $ $ $ $ $ 1 @ @ ~ + + + + -           ",
"    T + + + * @ 8 $ $ $ $ m @ @ @ @ @ p + + + + + .                 u + + + + O U 4 c c V C W $ $ $ o @ @ ~ + + + + e           ",
"      / + + ~ @ f $ $ $ $ & @ @ @ @ @ % + + + + + .                 . + + + + n X c c c c V Y $ $ $ [ @ @ ~ + + + + J           ",
"      ) + + 6 @ @ o $ $ $ $ } @ @ @ @ @ , + + + + .                 t + + + + O Z c c c c `  .$ $ $ o @ @ ~ + + + + J           ",
"        / + + @ @ v $ $ $ $ : @ @ @ @ @ % + + + + .                 + + + + + ~ : S b V ..+.W $ $ $ ' @ @ O + + + + ^           ",
"        ^ + + F @ @ : $ $ $ $ 8 @ @ @ @ @ @.+ + + .                 + + + + + ~ @ f [ a #.$ $ $ $ $ $ @ @ @ + + + + 7           ",
"          h + ( @ @ v $ $ $ $ $ # @ @ @ @ ~ + + + E                 + + + + + p @ @ @ [ $ $ $ $ $ $ $ f @ @ g + + + .           ",
"          . + g @ @ @ : $ $ $ $ : @ @ @ @ * + + + !                 + + + + + + @ @ @ & $ $ $ $ $ $ $ & @ @ ( + + + h           ",
"          J + + @ @ @ v $ $ $ $ $ } @ @ @ @ G + + + i               + + + + + + 9 @ @ j $ $ $ $ $ $ $ 1 @ @ 9 + + + + )         ",
"            ! + n @ @ @ H $ $ $ $ & @ @ @ @ ~ + + + <               ! + + + + + | @ @ f $ $ $ $ $ $ $ $ } @ @ @.+ + + -         ",
"            z + ; @ @ @ $.$ $ $ $ : @ @ @ @ ; + + + + %.            / + + + + + + &.@ @ H $ $ $ $ $ $ $ & @ @ ; + + + <         ",
"            . + ~ @ @ v C q D *.$ $ @ @ @ @ M + + + + =.            i + + + + + + ~ @ @ [ $ $ $ $ $ $ $ H @ @ @ @.+ + + >       ",
"            . + ~ @ f S c c c .._ $ @ @ @ @ * + + + + + )             h + + + + + g @ @ -.$ $ $ $ $ $ $ $ j @ @ F + + + u       ",
"            / + ~ @ v b c c c V ;.$ @ @ @ @ @ + + + + + .             u + + + + + + F @ f $ $ $ $ $ $ $ $ [ @ @ @ g + + /       ",
"            ! + ~ @ v >.c c c c ,.$ @ @ @ @ @ + + + + + h               h + + + + + p @ @ H $ $ $ $ $ $ $ H @ @ @ '.+ + !       ",
"          %.+ + ~ @ @ ).V c c c ,.$ @ @ @ @ * + + + + + + >             u + + + + + + @ @ $.$ $ $ $ $ $ $ $ 0 @ @ 9 + + + T     ",
"          z + + ~ @ @ f !.~.V {.w H @ @ @ @ % + + + + + + ^             > ! + + + + + 9 @ 8 $ $ $ $ $ $ $ $ v @ @ @ + + + i     ",
"        > Q + + ~ @ @ @ & #.].^./.& @ @ @ @ '.+ + + + + + u               z + + + + + ~ @ f $ $ $ $ $ $ $ $ & @ @ @ + + + .     ",
"        u + + + ; @ @ @ ' $ $ $ $ L @ @ @ @ g + + + + + + i               i + + + + + ~ @ @ $ $ $ $ $ $ $ $ & @ @ @ g + + .     ",
"        h + + + * @ @ = $ $ $ $ ' @ @ @ @ n + + + + + + + )               > + + + + + ~ @ @ $ $ $ $ $ $ $ $ & @ @ @ g + + /     ",
"      i + + + g @ @ 0 H $ $ $ $ & @ @ @ @ ~ + + + + + + h                   ! + + + + ~ @ @ { $ $ $ $ $ $ $ & @ @ @ g + + /     ",
"      E + + + ( @ @ [ $ $ $ $ $ v @ @ @ @ G + + + + + + -                   E + + + + ~ @ @ o $ $ $ $ $ $ $ & @ @ @ + + + .     ",
"    T + + + + F @ # $ $ $ $ $ $ 0 @ @ @ @ + + + + + + + T                   . + + + + ~ @ @ [ $ $ $ $ $ $ $ & @ @ @ + + + .     ",
"    u + + + + &.@ o $ $ $ $ $ $ @ @ @ @ * + + + + + + /                     . + + + + F @ @ & $ $ $ $ $ $ $ # @ @ 9 + + + i     ",
"    . + + + g @ 0 $ $ $ $ $ $ H @ @ @ @ O + + + + + + u                     . + + + + * @ @ [ $ $ $ $ $ $ $ @ @ @ ~ + + + >     ",
"    E + + + G @ N $ $ $ $ $ $ : @ @ @ @ % + + + + + + >                     E + + + (.@ @ @ o $ $ $ $ $ $ o @ @ @ , + + <       ",
"    < + + + | @ & $ $ $ $ $ $ : @ @ @ @ % + + + + + h                       ! + + + | @ @ @ H $ $ $ $ $ $ j @ @ * + + + -       ",
"    / + + + | @ & $ $ $ $ $ $ ' @ @ @ @ % + + + + + z                     ) + + + + ; @ @ @ $ $ $ $ $ $ H @ @ @ ~ + + + )       ",
"    . + + + p @ -.$ $ $ $ $ $ H @ @ @ @ % + + + + + .                     . + + + + &.@ @ # $ $ $ $ $ $ & @ @ @ G + + <         ",
"    K + + + (.@ f $ $ $ $ $ $ $ @ @ @ @ * + + + + + .                     h + + + 6 @ @ @ & $ _ !.k Y $ f @ @ * + + + u         ",
"      Q + + + * @ ' $ $ $ $ $ $ f @ @ @ @ + + + + + .                   i + + + + ; @ @ @ ' _.Z V c {.].@ @ @ ~ + + + >         ",
"      / + + + ~ @ j $ $ $ $ $ $ 8 @ @ @ @ @.+ + + + z                   < + + + + @ @ @ } $ :.c c c c ..v @ @ G + + /           ",
"      K + + + g @ @ ' $ $ $ $ $ o @ @ @ @ ~ + + + + !                 ^ + + + + s @ @ @ & <.V c c c c b [.@ &.+ + + u           ",
"        h + + + % @ N $ $ $ $ $ $ 0 @ @ @ n + + + + + )               / + + + + F @ @ @ H q c c c c c }.1 @ F + + + >           ",
"        . + + + G @ @ : $ $ $ $ $ j @ @ @ @ g + + + + -             T + + + + + @ @ @ f $ w {.V c c b |.} @ '.+ + <             ",
"        ) + + + + n @ v $ $ $ $ $ & @ @ @ @ ( + + + + <             - + + + + , @ @ @ & $ $ #.).1.|._.j @ @ G + + .             ",
"          ! + + + ~ @ @ ' $ $ $ $ ' @ @ @ @ ; + + + + + >           =.+ + + + '.@ @ @ [ $ $ $ $ $ : @ @ @ @ + + + u             ",
"          / + + + p @ @ & $ $ $ $ $ @ @ @ @ M + + + + + K           Q + + + + ~ @ @ @ { $ $ $ $ $ & @ @ @ @ + + + )             ",
"          . + + + (.@ @ j $ $ $ $ $ @ @ @ @ @ + + + + + .           + + + + + ; @ @ @ $ $ $ $ $ $ & @ @ @ * + + +               ",
"          . + + + + @ @ # $ $ $ $ $ @ @ @ @ @ + + + + + .           + + + + + % @ @ @ $ $ $ $ $ $ & @ @ @ * + + +               "};
