/* XPM */
static char * warped_nylium_xpm[] = {
"64 64 188 2",
"  	c #117A8C",
". 	c #117A8B",
"+ 	c #11798B",
"@ 	c #11798A",
"# 	c #11788A",
"$ 	c #117889",
"% 	c #117789",
"& 	c #117888",
"* 	c #138893",
"= 	c #12808D",
"- 	c #107687",
"; 	c #117C8B",
"> 	c #117788",
", 	c #138A93",
"' 	c #138A92",
") 	c #13848F",
"! 	c #117B8D",
"~ 	c #117C8E",
"{ 	c #117C8D",
"] 	c #117B8C",
"^ 	c #107789",
"/ 	c #138591",
"( 	c #12818E",
"_ 	c #127F8D",
": 	c #138891",
"< 	c #138991",
"[ 	c #12828D",
"} 	c #107586",
"| 	c #107688",
"1 	c #117688",
"2 	c #107788",
"3 	c #107787",
"4 	c #128390",
"5 	c #148C95",
"6 	c #138692",
"7 	c #107686",
"8 	c #138992",
"9 	c #138990",
"0 	c #117A88",
"a 	c #107484",
"b 	c #127D8B",
"c 	c #138590",
"d 	c #148A93",
"e 	c #148994",
"f 	c #127E8E",
"g 	c #138993",
"h 	c #127F8C",
"i 	c #117988",
"j 	c #12848F",
"k 	c #138490",
"l 	c #148B95",
"m 	c #128290",
"n 	c #117D8D",
"o 	c #12848E",
"p 	c #148A94",
"q 	c #138C95",
"r 	c #158E97",
"s 	c #158E96",
"t 	c #158F98",
"u 	c #148D95",
"v 	c #138B94",
"w 	c #127F8E",
"x 	c #107485",
"y 	c #128590",
"z 	c #117787",
"A 	c #117D8C",
"B 	c #169099",
"C 	c #17939C",
"D 	c #16939C",
"E 	c #138792",
"F 	c #107889",
"G 	c #107888",
"H 	c #117D8B",
"I 	c #12818D",
"J 	c #12808C",
"K 	c #138890",
"L 	c #127D8A",
"M 	c #138892",
"N 	c #169199",
"O 	c #128690",
"P 	c #107988",
"Q 	c #10798A",
"R 	c #117A8A",
"S 	c #128490",
"T 	c #138B93",
"U 	c #159098",
"V 	c #12858E",
"W 	c #107384",
"X 	c #138C94",
"Y 	c #148A95",
"Z 	c #12828E",
"` 	c #148E96",
" .	c #16929B",
"..	c #12838E",
"+.	c #117A89",
"@.	c #12838F",
"#.	c #15919A",
"$.	c #148C94",
"%.	c #107989",
"&.	c #12808E",
"*.	c #148B94",
"=.	c #10788A",
"-.	c #117989",
";.	c #158F97",
">.	c #148E97",
",.	c #127E8C",
"'.	c #107786",
").	c #107587",
"!.	c #138691",
"~.	c #117585",
"{.	c #127E8B",
"].	c #117B8B",
"^.	c #138791",
"/.	c #127E8D",
"(.	c #117E8D",
"_.	c #117B8A",
":.	c #117D8E",
"<.	c #117C89",
"[.	c #117B89",
"}.	c #138A91",
"|.	c #117C8A",
"1.	c #12858F",
"2.	c #117D8F",
"3.	c #12828F",
"4.	c #117E90",
"5.	c #127C8B",
"6.	c #107685",
"7.	c #13838E",
"8.	c #148993",
"9.	c #159099",
"0.	c #128591",
"a.	c #117E8F",
"b.	c #159199",
"c.	c #138D96",
"d.	c #148B96",
"e.	c #107585",
"f.	c #148C96",
"g.	c #107A8B",
"h.	c #148E95",
"i.	c #15929A",
"j.	c #12808B",
"k.	c #138A94",
"l.	c #138C93",
"m.	c #148F96",
"n.	c #16949D",
"o.	c #148F97",
"p.	c #138D94",
"q.	c #138D95",
"r.	c #12818F",
"s.	c #128892",
"t.	c #128791",
"u.	c #148D96",
"v.	c #128491",
"w.	c #117F8C",
"x.	c #107A8A",
"y.	c #117C8F",
"z.	c #117C8C",
"A.	c #117E8B",
"B.	c #117E8E",
"C.	c #138491",
"D.	c #117887",
"E.	c #138B92",
"F.	c #16919A",
"G.	c #138B95",
"H.	c #117F8E",
"I.	c #17939B",
"J.	c #13828E",
"K.	c #10798B",
"L.	c #127D8D",
"M.	c #138994",
"N.	c #117A8D",
"O.	c #13868F",
"P.	c #117786",
"Q.	c #148992",
"R.	c #127D8C",
"S.	c #138790",
"T.	c #148892",
"U.	c #117686",
"V.	c #117685",
"W.	c #13858F",
"X.	c #127F8B",
"Y.	c #138793",
"Z.	c #169098",
"`.	c #168F98",
" +	c #117E8A",
".+	c #17919A",
"++	c #148B93",
"@+	c #138690",
"                                                                                              . + @ + .                         ",
"                                                .                                             + # $ % # +                       ",
"                                            . + @ @ + .                                     . $ & * = - $ + . . . .             ",
"                  . .     . . + . .         + # ; > $ + .                                   + > = , ' ) - $ @ @ @ @ @ +         ",
"        ! ~ ~ { ] . + @ @ @ $ $ # + .     . # ^ / ( _ @ ] ~ ~ ~ ~ ~ ! ! ! ! !             . # - : < < ' [ } | 1 > > $ # +       ",
"          ~ !   @ @ # % 2 - 3 _ _ # +     + # 4 5 5 6 @ ] ~ ~ ~ ~ ~ ~ ~ ~ ~ ~ ~ ~ ! !     . $ 7 8 < 9 < 8 0 a b c d e $ @       ",
"          { ] f / g c h i j 8 d k % +     . # 2 l l m n ] ~ ~ ~ ~ ~ ~ ~ ~ ~ ~ ~ ~ ~ ~ { ] . % } 8 < 9 9 < o o < 8 ' d > @ .     ",
"          { ] . p q r s 5 t u v ( % +     . @ $ ; w @   { ~ ~ ~ { ! ! ! { ~ ~ ~ ~ { ! ] . + 2 x < < 9 9 9 9 < < < 8 y z @ .     ",
"          ~ ! + A v B C D C u E F . ] !     . @ # @ ] { ~ ~ ~ !   + .   ] { ~ ~ { ! . @ G H I J ' < 9 K < 9 K 9 < < L 1 @ .     ",
"          ~ { ] @ ; M N C r O P @ ! ~ ~ ~ !     . . ] ~ ~ ~ !   Q G 6 m @ ] { ~ ! . R S v v T T ' T , < U < K 9 9 V W } $ .     ",
"          ! ~ {   ^ J r C X ( F ] { ~ ~ ~ ~ !         ! ~ { ] @ Y M v Z ^ . ! { ] ] p v T T ' ' ' ` D  . .B B 9 9 < ..0 - # +   ",
"          ! ~ ~ ! + +.v r v ; + ! ~ ~ ~ ~ ~ ~ !         ! ! . 2 @.T T v * . ] { ] + E v T ' ' ' ' ' #.D D  .$.K 9 9 < 8 h - # . ",
"          ] { { {   F g X p %.  { ~ ~ ~ ~ ~ ~ ~ !         ] . 6 v T T T H @ ] { ! . %.@.v T T ' ' ,  .D D D #.< K 9 9 < 8 Z > @ ",
"      . + + ] ] ! ] @ &.5 &.@ ! ~ ~ ~ ~ ~ ~ ~ ~ ~   . . . . ] m Z v , *.@.+ ! ~ ~ ! . =.-.I [ ' ' $.;.U D U >.' < 9 9 < 8 g ; $ ",
"    . + % ; m @   ]   @ m . ] { ~ ~ ~ ~ ~ ~ ~ ~ { ] + # @ + + + F * ,.F ] ] { ~ ~ ~ { ] + | '., ' ' ' $. .T ' ' ' < < < 8 d &.# ",
"  . @ % ).k l F =..     ] ] { ~ ~ ~ ~ ~ ~ ~ ~ {   @ R w % @ + . . . + .   ! ~ ~ ~ ~ ~ { ] =.= T ' ' ' ' $.' ' ' ' T ' 8 !.; > @ ",
". @ $ & ~.8 , {.+.].. ] { { ~ ~ ~ { { { { { {   F A *.l -.@ .   ] ] ! ! { ~ ~ ~ ~ ~ ~ ~ ! Q Z v ' ' ' ' ' ' ' ' O = = & - > @ . ",
". # &.d < < ' , v Y @ ] { ~ ~ ~ { ]   .     . F A v v v &.. { !   ! ~ ~ ~ ~ ~ ~ ~ ~ ~ ~ ! + ( v T T T ' ' ' ' T Z - =.+ @ + .   ",
". $ 3 ^.< 9 9 ' T = $ ] { ~ ~ { ] /.(.F F F 2 _., T T v Z Q :.~ ~ ! ~ ~ ~ ~ ~ ~ ~ ~ ~ ~ ! . ].l v v !.<., ' ' T Z F   ! ]       ",
". # } [.< 9 9 }.T |.$ ] { ~ ~ { . m 5 v , Z 0 1.T ' ' v ( Q :.:.~ ~ ~ 2.~ ~ ~ ~ ~ ~ ~ ~ { ] R m 3.R 2 - @.T T v ( @ ! ~ !       ",
". # - ^.8 < < < T e @ ] { ~ ~ { . R v T T T , ' ' ' ' T h F { :.{ ~ ~ 2.4.2.2.~ ~ ~ ~ ~ ~ { ] . + + . @ %.g v *._.. ! ~ ~       ",
". @ 5.e Z 8 8 o !.p _   { ~ ~ {   F M T ' ' ' ' ' ' ' ' 6.- Q ]   ! { ~ 2.4.4.4.2.~ ~ ~ ~ ~ { ! ! ! ! ] + ; g 6 @ ] { ~ ~ !     ",
"  + # % } 7.8.z } > $ . ! ~ ~ { ] =.= T ' ' ' ' ' 9.$.' , , 0.3.@   ! ! { 2.a.4.4.4.2.2.~ ~ ~ ~ ~ ~ ~ { ] . @ .   { ~ ~ ~ !     ",
"    + @ % -.5.> $ # + .     ! ! ] =.3 8 ' ' ` 9.b.D u ' ' T X c.d.. .       ~ 2.a.4.4.4.4.4.2.2.~ ~ ~ ~ { ! ] ! { ~ ~ ~ ~ !     ",
"      . + @ @ + .     ! ! ] . @ # 2 e.[ ' ' T D D D 9.` ' T T f.(.@ + _ 6 2 g.{ 2.4.4.4.4.4.4.4.4.4.2.~ ~ ~ ~ ~ ~ ~ ~ ~ ~ !     ",
"          ] ! { ~ ~ ~ ~ ~ ! . =.H y X T T T t D D D  .5 ' T ^.A Q @ F ,.v Z Y g.~ a.4.4.4.4.4.4.4.4.4.4.2.~ ~ ~ ~ ~ ~ ~ ~ !     ",
"          ~ ~ ~ ~ ~ ~ ~ {   Q !.v T T X X h.#.i.D D D $.' j.} Q ! . 4 E T T k.G ] 2.4.4.4.4.4.4.4.4.4.4.4.2.~ ~ ~ ~ ~ ~ ~       ",
"          ~ ~ ~ ~ ~ ~ ~ ! . 3.5 v T T T X X l.m.n.m.o.u ' O -.Q { . A M T T v g ].{ a.4.4.4.4.4.4.4.4.4.4.4.2.~ ~ ~ ~ ~ ~       ",
"          ~ ~ ~ ~ ~ ~ ~ !   4 l v T T , , X X p.o.p.p.X T v E F {   F k v v S 3.] ! ~ 2.4.4.4.4.4.4.4.4.4.4.4.2.~ ~ ~ ~ !       ",
"          ! ~ ~ ~ ~ ~ ~ { ] + %.%.; |.+.e., T l.p.q.q.q.q.X q r.] ] + 4 H !.%.@ ] { ~ ~ ~ 2.4.4.4.4.4.4.4.4.4.4.2.~ ~ ~         ",
"          ] { { ~ ~ ~ ~ ~ { !   . + + F - T T ' T s._.t.q.c.u.v.! { ] . @ + . ] { ~ ~ { { { ~ ~ 2.2.4.4.4.4.4.4.4.~ ~ !         ",
"        . . .   ! { ~ ~ ~ ~ ~ { { ! ! . F g T T q w.2 F x.r.4 w   ~ :.{ { ! ! { ~ { ! ]   ] ! ~ ~ ~ ~ ~ :.2.2.a.a.~   . .       ",
"      . @ $ m ].@ ] { ~ ~ ~ ~ ~ ~ ~ { ] $ k v v E Q   ] ]     ! ] :.2.2.2.~ ~ ~ ~ !   @ (.n   { ~ ~ { ! ] ] ! ! ] . $ # @ .     ",
"      + $ h 5 l A @ ] { ~ ~ ~ ~ ~ ~ ~ ! + 3.5 !.Q ] ~ :.:.~ ~ :.:.~ 2.2.2.2.2.y.~ ] + p l k @ ] { { ] . + @ # =.F F _ ( $ +     ",
"      + > = T v k.2 @   ! { ~ ~ ~ ~ ~ { ] z./.@   ~ :.2.2.2.2.2.2.~ 2.2.2.2.2.2.:.] (.M 5 M . ] { !   0.l p 3.+...k.d d > @ .   ",
"      + 2 h , T T A.3 F + ] { ~ ~ ~ ~ ~ { ]   ] ! :.2.2.2.2.2.2.2.2.~ 2.2.2.2.2.:.{ B.4 * 6 . ] { ! . C.5 X 5 5 t t T c > @     ",
"      @ | D.' E.T T v !.A + ! ~ ~ ~ ~ ~ ~ { { ! ! { ~ :.2.2.2.2.2.2.! ~ 2.2.2.2.2.~ ! ] A +   { ~ { . F ^.F.C D C ;.g +.% +     ",
"    . # ).[ 8 T T T v 5 f.f ] { ~ ~ ~ ~ ~ { ] . + ] ] ~ :.2.2.2.2.2.~ ! ~ 2.2.2.2.2.~ { { { { ~ ~ ~ ! + G @.t C N M [.1 @ .     ",
"    + % _.8 8 T ..= 3.k m ].] { ~ ~ ~ ~ { ]   F _.G.H.] ~ 2.2.2.2.2.~ ! ! ~ 2.2.2.2.2.2.2.2.2.~ ~ ~ { ] Q 3 v I.t Z - $ .       ",
"    + > J., , c 3 ^ # @ + ] { ~ ~ ~ ~ ~ ! . w *.g v H K.{ :.2.2.2.2.~ ! ! ! ~ 2.2.2.2.2.2.2.2.2.~ ~ ~ {   F 8 u.u.( F +         ",
"    + $ 6 d Z 2 +   ] ] ! { ~ ~ ~ ~ ~ ~ ] @ 3 8 T T q 4 ] ~ 2.2.2.2.~ ! ! ! ] { { ~ :.2.2.2.2.2.2.~ ~ ~ ] # ( G.*.; + .         ",
"    + # . & > $ ! { { ~ ~ ~ ~ ~ ~ ~ ~ { ] /.p v T T g %.] ~ 2.2.2.2.~ ! !   + # @ ] { :.2.2.2.2.2.2.~ ~ { . R l !.=.            ",
"    . + @ @ @ + ! ~ ~ ~ ~ ~ ~ ~ ~ ~ ~ { ] L.3.@.v k.l w ! :.2.2.2.2.~ !   @ 2 ,.M 3.+ { :.2.2.2.2.2.2.~ { ! + w .   ! ]         ",
"        . .     ! ~ ~ ~ ~ ~ ~ ~ ~ ~ ~ ~ {   # %.M.-.%.] ~ 2.2.2.2.2.~   @ 2 c , T d 2 + ! ~ 2.2.2.2.2.~ ~ { ! ] ] ! ~ !         ",
"                  ~ ~ ~ ~ ~ ~ ~ ~ ~ ~ ~ ~ { ] . . +   { :.2.2.2.2.2.{ + 2 c , ' ' , ,.#   ! ! ! ! ~ ~ ~ ~ ~ { { { ~ ~ !         ",
"                  ! ~ ~ ~ ~ ~ ~ ~ ~ ~ ~ ~ ~ { ! ! ! { ~ 2.2.2.2.2.:.] $ {., ' }.' , I F   ! ! ! ! ! ! !         ! ! ! !         ",
"                  ! ~ ~ ~ ~ ~ ~ ~ ~ ~ ~ ~ ~ ~ ~ ~ ~ ~ ~ 2.2.:.~ ~ ! + - ^.' }.< }., I F   ! ! ! ! ! ! !                         ",
"                    ~ ~ ~ ~ ~ ~ ~ ~ ~ ~ ~ ~ ~ ~ ~ ~ ~ ~ ~ ~ ! ] . @ 2 D.' ' < < }., I F   ! ! ! ! ! ! ! N.                      ",
"                    ! ~ ~ ~ ~ ~ ~ ~ ~ ~ ~ ~ ~ ~ ~ ~ ~ { !   Q ; 3.@.Z O.E.E.9.' ' , _.#   ! ! ! ! ! ! ! N.                      ",
"                      ! ~ ~ ~ ~ ~ ~ ~ ~ ~ ~ ~ ~ ~ ~ { ] + R !.q X X T s  .F. .9.F.M - @   ! ! ! ! ! ! ! N.                      ",
"                      ! ~ ~ { { ~ ~ ~ ~ ~ ~ ~ ~ ~ ~ {   A k.X v T T ' < 9. . . .5 I } #   ! ! ! ! ! ! ! N.                      ",
"              . . + + + . ]   ] ! { ~ ~ ~ ~ ~ ~ ~ ~ !   S $.T T T T ' ' F. . . .9.' |.% . ! ! ! ! ! ! !   . . . .               ",
"            . + # % % ^ 2 % Q @ . ] { ~ ~ ~ ~ ~ ~ ~ {   Q @.v T T T ' $.s t  .r s ' 8 2 @ ] ! ! ! ! ! !   @ @ @ @ .             ",
"            + $ ].= h P.e.J Q.l 4   ! ~ ~ ~ ~ { ! ! ! ! . =.; S v v , ' ' 5 F.< < ' , = $ . ! ! ! ! ! ] + % R.R.% @ . .         ",
"      . . . @ $ 8.d , 8 S.8 ' , _ . ! ~ ~ ~ { ] . .   ] !   + $ F %.+.i [., 5 }.< }.' M 2 + ! ! ! ! ] + > } T.Q.} | # + .       ",
"    + @ # # $ | |.8.' < < < 8 c | @ ] ~ ~ ~ ! + z.S (.. ! { ! ]   . % 2 - _., ' ' ' ' , 2 + ] ! ! ] . @ & U.8 8 V.+._.# +       ",
"  . @ . - - R.- } 0 ..< < < Z 7 % +   ! ! {   Q p 5 k z.] { ~ ~ { ! . + # > +.!., , , p 2 + ] ! !   @ 3.d < < 8 < ' !.$ +       ",
"  + % 3.W.X.8.} ).} x X.8 8 x | @ .         . v.l 5 M @ ] { ~ ~ ~ ~     . @ > - {...M Y.# . ! ! !   # R M < $.Z.' < +.> @       ",
". @ | [.*.`.' J b | ).h , Q.7 $ .         . @ $ /./ m . ! ~ ~ ~ ~ !       . + # % > % @ + ] ! ! ! ] @ }  +< r F.$.S.P.| @       ",
". @ R c `..+r 8 c % | _ d !.> @ .           . @ $ $ #   { ~ ~ ~ ~ !           . + @ @ + . ] ! ! ! ] @ -.8 8 < ++< ' c > @ .     ",
"  @ R I @+r $.L - $ $ 2 E A % +               . + + + . ! ! ~ ~ ~ !                 .         N.! ] . &.T.J < < X.: e @ @ .     ",
"  + $ - J !.I = % @ @ # @ $ + .                               ! !                                   . @ 2 } ^.@+x - % # +       ",
"    + $ 5._.1 $ @ . . + + + .                                                                       . + # % ].-.% $ @ + .       ",
"      + # # # + .                                                                                       . + @ @ + . .           "};
