/* XPM */
static char * wet_sponge_xpm[] = {
"64 64 69 1",
" 	c #A5B233",
".	c #9BA52F",
"+	c #90962A",
"@	c #91972A",
"#	c #9CA730",
"$	c #9DA830",
"%	c #A1AD32",
"&	c #98A12D",
"*	c #92992B",
"=	c #A2AE32",
"-	c #A4B133",
";	c #A0AC31",
">	c #A1AD31",
",	c #A2AF32",
"'	c #A4B032",
")	c #949B2C",
"!	c #A3B032",
"~	c #9AA42F",
"{	c #A3AF32",
"]	c #9AA32E",
"^	c #91982B",
"/	c #949C2C",
"(	c #9FAB31",
"_	c #A4B033",
":	c #9AA42E",
"<	c #9FAA31",
"[	c #9FAA30",
"}	c #99A22E",
"|	c #9DA730",
"1	c #9EA930",
"2	c #939A2B",
"3	c #969E2D",
"4	c #A4B132",
"5	c #959D2C",
"6	c #98A12E",
"7	c #939B2C",
"8	c #99A32E",
"9	c #9CA62F",
"0	c #91982A",
"a	c #9BA42E",
"b	c #A5B133",
"c	c #9CA52F",
"d	c #9EA830",
"e	c #9EAA31",
"f	c #91972B",
"g	c #90972A",
"h	c #9CA630",
"i	c #97A02D",
"j	c #98A22E",
"k	c #969F2D",
"l	c #979F2D",
"m	c #A1AE32",
"n	c #959E2C",
"o	c #9AA32F",
"p	c #A0AB31",
"q	c #939B2B",
"r	c #9DA930",
"s	c #A1AC31",
"t	c #92982B",
"u	c #959D2D",
"v	c #98A02D",
"w	c #9CA72F",
"x	c #9BA62F",
"y	c #959E2D",
"z	c #9DA72F",
"A	c #99A12E",
"B	c #969E2C",
"C	c #9BA42F",
"D	c #959C2C",
"                 .++++++++++@#$$%      &++*#$$=      -;>;%,     ",
"                 '*+++++++++)$$$!      =**~$$>     {]^@/#$$(_   ",
"        ,:$$<{    [@++++++++}$$<        ;|$1,     1^++++)#$$1_  ",
"       >2+3$$1-    }+++++++)$$${          4      1@++++++/$$$<  ",
"      -5++@#$$%    -6+++++7#$$=                 =@++++++++8$$$% ",
"      9+++@#$$%     -|0+@5#$<{                  a+++++++++2$$$1b",
"     -*+++@#$$%       =c1;%{                   -7++++++++++8$$$%",
"     d++++@#$$%                                -@++++++++++3$$$e",
"b    ]++++/$$$_                                -*++++++++++f|$$$",
"=   -)++++6$$1                      -{_         &++++++++++gh$$$",
"%   -@+++@#$$%      =;>%!         %i59$1,       9+++++++++++j$$$",
"%   -@+++k$$1b    -i@@3$$<'      ;^++^]$$;      '^++++++++++l$$$",
"%   -*++^#$$m     i++++6$$<     -/++++@~$$;      ~++++++++++l$$$",
"%    }++}$$(     {@++++^#$$=    1++++++*9$$=     -)+++++++++l$$$",
"%    ;@n$$1_     9++++++o$$p    :+++++++/$$$!     p@++++++++6$$$",
"{     $$$e!      .++++++l$$1   b3++++++++8$$(      [@++++++@h$$$",
"       {=        [g+++++l$$$   -q++++++++2|$$,      (@+++++q$$$$",
"                 -^+++++l$$r    l+++++++++}$$<       s5+++@:$$$=",
"                  }+++++8$$p    :+++++++++/$$$!       -$)^8$$r% ",
"                  ,t+++@#$$%    9+++++++++@#$$%         -!=%=-  ",
"          --,={    (@++k$$1b    =@+++++++++6$$e                 ",
"        >a2*6$$r>   ;5/|$r{     b5+++++++++l$$$                 ",
"      '&@++++)#$$<'  -,%%-       1+++++++++3$$$-                ",
"     '5+++++++)|$$<-             -5++++++++u$$$4                ",
"     }+++++++++i$$$p              p@+++++++k$$$                 ",
"    -^+++++++++@9$$${              :+++++++i$$1       -'!b      ",
"    -@++++++++++l$$$;              -v+++++@w$$%     %&07i$1>!   ",
"    -0++++++++++*|$$r               -.@++@8$$(     p^++++^}$$;- ",
"     &++++++++++@#$$${                s65~$1%     '*++++++gk$$<-",
"     ;@+++++++++g~$$$%                  b         .+++++++++6$$<",
"s     ]++++++++++]$$$%                           -2+++++++++@.$$",
"r-    -k++++++++gx$$$=      ->;>=!               -@++++++++++y$$",
"$%     -ig++++++@|$$$-    s&0@@q:$1%             =@++++++++++@#$",
"$(      b1^+++++l$$$p   -.@+++++@}$$(b           =@+++++++++++}$",
"$$        !~t++/|$$<-   }++++++++@]$$(           -@+++++++++++l$",
"$$          -1$;;>=    [@+++++++++*#$$=          -^+++++++++++l$",
"$$                    -/+++++++++++6$$<           }+++++++++++l$",
"$<                    ;@+++++++++++/$$$'          s@++++++++++6$",
"$%                    .++++++++++++@#$$%           &+++++++++@#$",
"1-                    ]++++++++++++gh$$%           '5++++++++k$$",
"{                     l+++++++++++++~$$;            !k++++++)|$$",
"                      6+++++++++++++]$$;             -$/@+@k|$(!",
"                      .++++++++++++gx$$>               -{1;>=-  ",
"                      z++++++++++++@#$$%                        ",
"                      !@+++++++++++*|$$,                        ",
"                       6+++++++++++l$$1                         ",
"                       =@+++++++++@9$$%                         ",
".].<>%-                 1@++++++++i$$1b                      -=.",
"+++*8$$;                 w@++++++)|$1{     =Aj$r;_         -92@+",
"++++@8$$(                 [)+++@B|$<!     (^++3$$1-       [*++++",
"+++++@#$$%                 -1a}#<>,      p@+++@.$$s     -6@+++++",
"++++++6$$1                              -)+++++i$$1    -l+++++++",
"++++++l$$$                              :++++++l$$$    C++++++++",
"++++++l$$$          ---                !^++++++l$$$   >@++++++++",
"++++++j$$<        !.)@2i#r;{           .+++++++l$$$   .+++++++++",
"+++++^#$$=       (*+++++@6$$(-        -)+++++++6$$<   l+++++++++",
"+++++}$$<       =^++++++++5$$1!       !@++++++@9$$%   6+++++++++",
"++++3$$1'       C++++++++++6$$<       z+++++++2$$${   [@++++++++",
"++@6$$(-       -D++++++++++@9$$>      .+++++++i$$1     .@+++++++",
"@kx$(,         -@+++++++++++k$$rb     .++++++@#$$%      s}^@++++",
"s>=-           -2+++++++++++*|$$=     .++++++3$$r-        ->9..1",
"                }+++++++++++@#$$%     .+++++@w$$%               ",
"                z+++++++++++@#$$%     w+++++6$$<                ",
"                -@++++++++++@#$$%     !@+++)|$${                "};
