/* XPM */
static char * east_xpm[] = {
"64 64 75 1",
" 	c #FFFFFF",
".	c #F5F5F5",
"+	c #C9C9C9",
"@	c #A9A9A9",
"#	c #9A9A9A",
"$	c #959595",
"%	c #E2E2E2",
"&	c #4C4C4C",
"*	c #303030",
"=	c #AEAEAE",
"-	c #838383",
";	c #393939",
">	c #3C3C3C",
",	c #8C8C8C",
"'	c #E9E9E9",
")	c #585858",
"!	c #F6F6F6",
"~	c #C5C5C5",
"{	c #9F9F9F",
"]	c #868686",
"^	c #363636",
"/	c #636363",
"(	c #3E3E3E",
"_	c #B6B6B6",
":	c #606060",
"<	c #AFAFAF",
"[	c #F9F9F9",
"}	c #EBEBEB",
"|	c #737373",
"1	c #B7B7B7",
"2	c #B5B5B5",
"3	c #979797",
"4	c #F8F8F8",
"5	c #989898",
"6	c #CECECE",
"7	c #CCCCCC",
"8	c #A2A2A2",
"9	c #CFCFCF",
"0	c #414141",
"a	c #F4F4F4",
"b	c #828282",
"c	c #FDFDFD",
"d	c #939393",
"e	c #333333",
"f	c #C7C7C7",
"g	c #FEFEFE",
"h	c #E1E1E1",
"i	c #D9D9D9",
"j	c #BCBCBC",
"k	c #C1C1C1",
"l	c #D8D8D8",
"m	c #757575",
"n	c #9D9D9D",
"o	c #D5D5D5",
"p	c #D7D7D7",
"q	c #E0E0E0",
"r	c #FCFCFC",
"s	c #DDDDDD",
"t	c #CDCDCD",
"u	c #7E7E7E",
"v	c #F3F3F3",
"w	c #848484",
"x	c #FBFBFB",
"y	c #E4E4E4",
"z	c #EEEEEE",
"A	c #EAEAEA",
"B	c #E3E3E3",
"C	c #BEBEBE",
"D	c #888888",
"E	c #A8A8A8",
"F	c #949494",
"G	c #A6A6A6",
"H	c #4E4E4E",
"I	c #777777",
"J	c #666666",
"                                                                ",
"                                                                ",
"                                                                ",
"                                                                ",
"                                                                ",
"                                                                ",
"                                                                ",
"                                                                ",
"                                                                ",
"                                                                ",
"                                                                ",
"                                                                ",
"                                                                ",
"                                                                ",
"                                                                ",
"           .+@#$$$$$$$$$$$$$$$$$$$$$$$$$$$$$$$$$+               ",
"          %&************************************=               ",
"          -*************************************=               ",
"          ;*************************************=               ",
"          >*************************************=               ",
"          ,*************************************=               ",
"          ')************************************=               ",
"           !~{,]^******/]]]]]]]]]]]]]]]]](******=               ",
"                &******_                 :******=               ",
"                &******_                 :******=               ",
"                &******_                 :******=               ",
"                &******_                 /******<               ",
"                &******_        [}.      |******1               ",
"                &******_       2>**34    5******6               ",
"                &******_      7*****8    9*****0a               ",
"                &******_      b*****>4   cd***ef                ",
"                &******_     g(******h    gijk'                 ",
"                &******_     4*******l                          ",
"                &******m88888n*******o                          ",
"                &********************o                          ",
"                &********************o                          ",
"                &********************o                          ",
"                &********************o                          ",
"                &********************o                          ",
"                &********************o                          ",
"                &******/]]]]]b*******o                          ",
"                &******_     4*******p                          ",
"                &******_     g>******q      rstsr               ",
"                &******_      u*****e.     vm***mv              ",
"                &******_      +*****5      {*****{              ",
"                &******_      g=e**wa     x(*****(x             ",
"                &******_        .yz       A*******A             ",
"                &******_                  B*******B             ",
"                &******_                  h*******h             ",
"                &******_                  h*******h             ",
"                &******_                  h*******h             ",
"            }6kC(******DCCCCCCCCCCCCCCCCCCE*******h             ",
"          4F**************************************h             ",
"          G***************************************h             ",
"          H***************************************h             ",
"         ge***************************************h             ",
"          I***************************************h             ",
"          l^**************************************h             ",
"           B{J(***********************************h             ",
"                                                                ",
"                                                                ",
"                                                                ",
"                                                                ",
"                                                                "};
