/* XPM */
static char * south_xpm[] = {
"64 64 127 2",
"  	c #303030",
". 	c #333333",
"+ 	c #7B7B7B",
"@ 	c #AEAEAE",
"# 	c #C9C9C9",
"$ 	c #D3D3D3",
"% 	c #DDDDDD",
"& 	c #E3E3E3",
"* 	c #DEDEDE",
"= 	c #D6D6D6",
"- 	c #C8C8C8",
"; 	c #AAAAAA",
"> 	c #828282",
", 	c #363636",
"' 	c #979797",
") 	c #DBDBDB",
"! 	c #E1E1E1",
"~ 	c #CBCBCB",
"{ 	c #747474",
"] 	c #CECECE",
"^ 	c #F8F8F8",
"/ 	c #FFFFFF",
"( 	c #F4F4F4",
"_ 	c #7A7A7A",
": 	c #838383",
"< 	c #FDFDFD",
"[ 	c #F7F7F7",
"} 	c #5F5F5F",
"| 	c #767676",
"1 	c #DFDFDF",
"2 	c #FEFEFE",
"3 	c #B5B5B5",
"4 	c #B7B7B7",
"5 	c #FCFCFC",
"6 	c #D5D5D5",
"7 	c #4A4A4A",
"8 	c #E2E2E2",
"9 	c #414141",
"0 	c #E5E5E5",
"a 	c #CACACA",
"b 	c #E6E6E6",
"c 	c #8E8E8E",
"d 	c #F1F1F1",
"e 	c #E4E4E4",
"f 	c #A9A9A9",
"g 	c #585858",
"h 	c #4F4F4F",
"i 	c #9E9E9E",
"j 	c #DADADA",
"k 	c #7D7D7D",
"l 	c #FAFAFA",
"m 	c #A5A5A5",
"n 	c #EDEDED",
"o 	c #BABABA",
"p 	c #FBFBFB",
"q 	c #818181",
"r 	c #575757",
"s 	c #EAEAEA",
"t 	c #D8D8D8",
"u 	c #B6B6B6",
"v 	c #E7E7E7",
"w 	c #ECECEC",
"x 	c #BEBEBE",
"y 	c #D2D2D2",
"z 	c #676767",
"A 	c #8A8A8A",
"B 	c #A7A7A7",
"C 	c #C0C0C0",
"D 	c #474747",
"E 	c #BDBDBD",
"F 	c #E0E0E0",
"G 	c #C4C4C4",
"H 	c #6E6E6E",
"I 	c #7C7C7C",
"J 	c #DCDCDC",
"K 	c #808080",
"L 	c #3C3C3C",
"M 	c #CFCFCF",
"N 	c #949494",
"O 	c #555555",
"P 	c #C1C1C1",
"Q 	c #A0A0A0",
"R 	c #515151",
"S 	c #D9D9D9",
"T 	c #9D9D9D",
"U 	c #EFEFEF",
"V 	c #ACACAC",
"W 	c #F9F9F9",
"X 	c #D7D7D7",
"Y 	c #E9E9E9",
"Z 	c #393939",
"` 	c #929292",
" .	c #666666",
"..	c #C6C6C6",
"+.	c #C3C3C3",
"@.	c #737373",
"#.	c #9F9F9F",
"$.	c #6C6C6C",
"%.	c #ABABAB",
"&.	c #EEEEEE",
"*.	c #F0F0F0",
"=.	c #454545",
"-.	c #F3F3F3",
";.	c #646464",
">.	c #8F8F8F",
",.	c #8B8B8B",
"'.	c #7F7F7F",
").	c #C7C7C7",
"!.	c #9C9C9C",
"~.	c #CDCDCD",
"{.	c #A3A3A3",
"].	c #606060",
"^.	c #626262",
"/.	c #787878",
"(.	c #BFBFBF",
"_.	c #B8B8B8",
":.	c #B3B3B3",
"<.	c #878787",
"[.	c #BBBBBB",
"}.	c #9B9B9B",
"|.	c #B2B2B2",
"1.	c #6F6F6F",
"2.	c #E8E8E8",
"3.	c #6A6A6A",
"4.	c #F5F5F5",
"5.	c #BCBCBC",
"6.	c #969696",
"                                                                                                                                ",
"                                                                                                                                ",
"                                                                                                                                ",
"                                                                                                                                ",
"                                                                                                                                ",
"                                                                                                                                ",
"                                                                                                                                ",
"                                                                                                                                ",
"                                                                                                                                ",
"                                                                                                                                ",
"                                                                                                                                ",
"                                                                                                                                ",
"                                                                                                                                ",
"                                                                                                                                ",
"                                                  . + @ # $ % & * = - ; > ,         ' ) ! ~ {                                   ",
"                                              + ] ^ / / / / / / / / / / / ( # _   : < / / / [ }                                 ",
"                                          | 1 / / / / / / / / / / / / / / / / 2 $ & / / / / / 3                                 ",
"                                      , 4 5 / / / / / / / / / / / / / / / / / / / / / / / / / 6                                 ",
"                                    7 ) / / / / / / / / / / / / / / / / / / / / / / / / / / / 8                                 ",
"                                  9 1 / / / / / / / / / / / / / / / / / / / / / / / / / / / / 0                                 ",
"                                  a / / / / / / / / / / / / / / / / / / / / / / / / / / / / / b                                 ",
"                                c / / / / / / / / / / / / d 0 1 0 d / / / / / / / / / / / / / b                                 ",
"                                e / / / / / / / / / b f g           h i j / / / / / / / / / / b                                 ",
"                              k / / / / / / / / l m                       : n / / / / / / / / b                                 ",
"                              o / / / / / / / p q                           r s / / / / / / / b                                 ",
"                              t / / / / / / / u                               + 2 / / / / / / 0                                 ",
"                              v / / / / / / / }                                 8 / / / / / / !                                 ",
"                              w / / / / / / <                                   x / / / / / / y                                 ",
"                              b / / / / / / / z                                 A / / / / / / B                                 ",
"                              6 / / / / / / / C                                   1 / / / / s 9                                 ",
"                              3 / / / / / / / 2 i                                 D E F & G g                                   ",
"                              H / / / / / / / / / y I                                                                           ",
"                                J / / / / / / / / / / 8 @ K L                                                                   ",
"                                q 2 / / / / / / / / / / / / p 0 M 3 N O                                                         ",
"                                  P / / / / / / / / / / / / / / / / / 2 s a Q R                                                 ",
"                                  , S / / / / / / / / / / / / / / / / / / / / 5 % T L                                           ",
"                                    9 $ / / / / / / / / / / / / / / / / / / / / / / U Q                                         ",
"                                        V W / / / / / / / / / / / / / / / / / / / / / / X h                                     ",
"                                          g x ( / / / / / / / / / / / / / / / / / / / / / Y g                                   ",
"                                              Z ` ~ U / / / / / / / / / / / / / / / / / / / 0 9                                 ",
"                                                       .Q ..& l / / / / / / / / / / / / / / / +.                                ",
"                                                              , @.#.P e < / / / / / / / / / / 5 $.                              ",
"                                                                        7 %.&./ / / / / / / / / G                               ",
"                                                                            , V p / / / / / / / *.                              ",
"                            =.P w -.& #.                                        ' / / / / / / / / ;.                            ",
"                            ] / / / / / m                                         * / / / / / / / >.                            ",
"                          h < / / / / / *.                                        x / / / / / / / T                             ",
"                          ,./ / / / / / / '.                                      )./ / / / / / / !.                            ",
"                          i / / / / / / / ~.                                    L *./ / / / / / / c                             ",
"                          {./ / / / / / / / V                                   # / / / / / / / / ].                            ",
"                          {./ / / / / / / / / M ^.                          g = / / / / / / / / n                               ",
"                          {./ / / / / / / / / / p ] ,.Z                 /.+.W / / / / / / / / / E                               ",
"                          {./ / / / / / / / / / / / / W ! ~ (._.E ..j d / / / / / / / / / / / W }                               ",
"                          {./ / / / / / / / / / / / / / / / / / / / / / / / / / / / / / / / / :.                                ",
"                          T / / / / / / / / / / / / / / / / / / / / / / / / / / / / / / / / X                                   ",
"                          <./ / / / / / / / / / / / / / / / / / / / / / / / / / / / / / / ) 9                                   ",
"                          =.W / / / / / / / / / / / / / / / / / / / / / / / / / / / / < C ,                                     ",
"                            [./ / / / [ }.] 5 / / / / / / / / / / / / / / / / / / / & _                                         ",
"                              |.Y -.t 1.    ].[.2./ / / / / / / / / / / / / / p y >.                                            ",
"                                                  3.; # 8 -.l / / 5 4.&.j 5.6.h                                                 ",
"                                                              Z 9                                                               ",
"                                                                                                                                ",
"                                                                                                                                ",
"                                                                                                                                "};
