/* XPM */
static char * west_xpm[] = {
"64 64 128 2",
"  	c #303030",
". 	c #414141",
"+ 	c #A3A3A3",
"@ 	c #CACACA",
"# 	c #D9D9D9",
"$ 	c #DDDDDD",
"% 	c #DEDEDE",
"& 	c #DADADA",
"* 	c #CECECE",
"= 	c #AAAAAA",
"- 	c #4E4E4E",
"; 	c #5B5B5B",
"> 	c #B0B0B0",
", 	c #CFCFCF",
"' 	c #DBDBDB",
") 	c #C8C8C8",
"! 	c #989898",
"~ 	c #333333",
"{ 	c #575757",
"] 	c #EBEBEB",
"^ 	c #FFFFFF",
"/ 	c #F3F3F3",
"( 	c #777777",
"_ 	c #848484",
": 	c #F8F8F8",
"< 	c #E0E0E0",
"[ 	c #454545",
"} 	c #BCBCBC",
"| 	c #DFDFDF",
"1 	c #B5B5B5",
"2 	c #FDFDFD",
"3 	c #363636",
"4 	c #F7F7F7",
"5 	c #FEFEFE",
"6 	c #393939",
"7 	c #D8D8D8",
"8 	c #C0C0C0",
"9 	c #E4E4E4",
"0 	c #EFEFEF",
"a 	c #808080",
"b 	c #757575",
"c 	c #F4F4F4",
"d 	c #E5E5E5",
"e 	c #434343",
"f 	c #B8B8B8",
"g 	c #F1F1F1",
"h 	c #E6E6E6",
"i 	c #E3E3E3",
"j 	c #D7D7D7",
"k 	c #B6B6B6",
"l 	c #555555",
"m 	c #B4B4B4",
"n 	c #E7E7E7",
"o 	c #ABABAB",
"p 	c #3C3C3C",
"q 	c #C1C1C1",
"r 	c #717171",
"s 	c #6E6E6E",
"t 	c #D4D4D4",
"u 	c #939393",
"v 	c #F9F9F9",
"w 	c #ADADAD",
"x 	c #F2F2F2",
"y 	c #F6F6F6",
"z 	c #8B8B8B",
"A 	c #CCCCCC",
"B 	c #C3C3C3",
"C 	c #E2E2E2",
"D 	c #585858",
"E 	c #D5D5D5",
"F 	c #D2D2D2",
"G 	c #C9C9C9",
"H 	c #7D7D7D",
"I 	c #ACACAC",
"J 	c #9C9C9C",
"K 	c #959595",
"L 	c #F5F5F5",
"M 	c #4A4A4A",
"N 	c #909090",
"O 	c #3E3E3E",
"P 	c #7A7A7A",
"Q 	c #6F6F6F",
"R 	c #4F4F4F",
"S 	c #DCDCDC",
"T 	c #979797",
"U 	c #999999",
"V 	c #EDEDED",
"W 	c #D1D1D1",
"X 	c #5F5F5F",
"Y 	c #B2B2B2",
"Z 	c #E8E8E8",
"` 	c #FCFCFC",
" .	c #AFAFAF",
"..	c #C7C7C7",
"+.	c #666666",
"@.	c #E1E1E1",
"#.	c #D3D3D3",
"$.	c #C4C4C4",
"%.	c #8C8C8C",
"&.	c #606060",
"*.	c #EAEAEA",
"=.	c #A8A8A8",
"-.	c #BFBFBF",
";.	c #9B9B9B",
">.	c #919191",
",.	c #767676",
"'.	c #7B7B7B",
").	c #636363",
"!.	c #828282",
"~.	c #A0A0A0",
"{.	c #AEAEAE",
"].	c #B7B7B7",
"^.	c #B3B3B3",
"/.	c #676767",
"(.	c #5A5A5A",
"_.	c #737373",
":.	c #6B6B6B",
"<.	c #D0D0D0",
"[.	c #E9E9E9",
"}.	c #C2C2C2",
"|.	c #A6A6A6",
"1.	c #BABABA",
"2.	c #A9A9A9",
"3.	c #747474",
"4.	c #BDBDBD",
"5.	c #EEEEEE",
"6.	c #787878",
"7.	c #535353",
"                                                                                                                                ",
"                                                                                                                                ",
"                                                                                                                                ",
"                                                                                                                                ",
"                                                                                                                                ",
"                                                                                                                                ",
"                                                                                                                                ",
"                                                                                                                                ",
"                                                                                                                                ",
"                                                                                                                                ",
"                                                                                                                                ",
"                                                                                                                                ",
"                                                                                                                                ",
"                                                                                                                                ",
"                                                                                                                                ",
"                    . + @ # $ % % % % % % % % % & * = -                   ; > , ' % % % % % % % % % $ # ) ! ~                   ",
"                  { ] ^ ^ ^ ^ ^ ^ ^ ^ ^ ^ ^ ^ ^ ^ ^ ^ / (               _ : ^ ^ ^ ^ ^ ^ ^ ^ ^ ^ ^ ^ ^ ^ ^ ^ < [                 ",
"                  } ^ ^ ^ ^ ^ ^ ^ ^ ^ ^ ^ ^ ^ ^ ^ ^ ^ ^ <               | ^ ^ ^ ^ ^ ^ ^ ^ ^ ^ ^ ^ ^ ^ ^ ^ ^ ^ 1                 ",
"                  ' ^ ^ ^ ^ ^ ^ ^ ^ ^ ^ ^ ^ ^ ^ ^ ^ ^ ^ 2 3             4 ^ ^ ^ ^ ^ ^ ^ ^ ^ ^ ^ ^ ^ ^ ^ ^ ^ ^ '                 ",
"                  ' ^ ^ ^ ^ ^ ^ ^ ^ ^ ^ ^ ^ ^ ^ ^ ^ ^ ^ 5 6             4 ^ ^ ^ ^ ^ ^ ^ ^ ^ ^ ^ ^ ^ ^ ^ ^ ^ ^ 7                 ",
"                  8 ^ ^ ^ ^ ^ ^ ^ ^ ^ ^ ^ ^ ^ ^ ^ ^ ^ ^ 9               ' ^ ^ ^ ^ ^ ^ ^ ^ ^ ^ ^ ^ ^ ^ ^ ^ ^ ^ 1                 ",
"                  { 0 ^ ^ ^ ^ ^ ^ ^ ^ ^ ^ ^ ^ ^ ^ ^ ^ 4 a               b c ^ ^ ^ ^ ^ ^ ^ ^ ^ ^ ^ ^ ^ ^ ^ ^ d e                 ",
"                    - f d ^ ^ ^ ^ ^ ^ ^ g h h h i j k ;                   l m j i h h h n ^ ^ ^ ^ ^ ^ ^ < o p                   ",
"                        _ ^ ^ ^ ^ ^ ^ ^ q                                               r ^ ^ ^ ^ ^ ^ ^ s                       ",
"                        ; ^ ^ ^ ^ ^ ^ ^ t                                               u ^ ^ ^ ^ ^ ^ 5 p                       ",
"                          v ^ ^ ^ ^ ^ ^ h                                               w ^ ^ ^ ^ ^ ^ x                         ",
"                          ] ^ ^ ^ ^ ^ ^ y               z h h h h h h h A               B ^ ^ ^ ^ ^ ^ C                         ",
"                          & ^ ^ ^ ^ ^ ^ ^ -             * ^ ^ ^ ^ ^ ^ ^ 2 D             E ^ ^ ^ ^ ^ ^ F                         ",
"                          G ^ ^ ^ ^ ^ ^ ^ H           p 4 ^ ^ ^ ^ ^ ^ ^ ^ I             h ^ ^ ^ ^ ^ ^ 8                         ",
"                          m ^ ^ ^ ^ ^ ^ ^ J           K ^ ^ ^ ^ ^ ^ ^ ^ ^ |             L ^ ^ ^ ^ ^ ^ =                         ",
"                          J ^ ^ ^ ^ ^ ^ ^ 1           , ^ ^ ^ ^ ^ ^ ^ ^ ^ 2 ;         M ^ ^ ^ ^ ^ ^ ^ N                         ",
"                          H ^ ^ ^ ^ ^ ^ ^ @         O 4 ^ ^ ^ ^ ^ ^ ^ ^ ^ ^ w         P ^ ^ ^ ^ ^ ^ ^ Q                         ",
"                          R ^ ^ ^ ^ ^ ^ ^ S         T ^ ^ ^ ^ ^ ^ ^ ^ ^ ^ ^ <         U ^ ^ ^ ^ ^ ^ 5 O                         ",
"                            4 ^ ^ ^ ^ ^ ^ V         W ^ ^ ^ ^ ^ ^ ^ ^ ^ ^ ^ 5 X       Y ^ ^ ^ ^ ^ ^ x                           ",
"                            Z ^ ^ ^ ^ ^ ^ ` ~     . : ^ ^ ^ ^ ^ ^ ^ ^ ^ ^ ^ ^  .      ..^ ^ ^ ^ ^ ^ i                           ",
"                            j ^ ^ ^ ^ ^ ^ ^ +.    U ^ ^ ^ ^ ^ ^ ^ ^ ^ ^ ^ ^ ^ @.      # ^ ^ ^ ^ ^ ^ #.                          ",
"                            $.^ ^ ^ ^ ^ ^ ^ %.    F ^ ^ ^ ^ ^ ^ ^ ^ ^ ^ ^ ^ ^ 5 &.    *.^ ^ ^ ^ ^ ^ 8                           ",
"                             .^ ^ ^ ^ ^ ^ ^ =.  . : ^ ^ ^ ^ ^ ^ ^ ^ ^ ^ ^ ^ ^ ^ >     v ^ ^ ^ ^ ^ ^ o                           ",
"                            T ^ ^ ^ ^ ^ ^ ^ -.  ;.^ ^ ^ ^ ^ ^ ^ Z ^ ^ ^ ^ ^ ^ ^ C   D ^ ^ ^ ^ ^ ^ ^ >.                          ",
"                            ,.^ ^ ^ ^ ^ ^ ^ #.  #.^ ^ ^ ^ ^ ^ 5 '.5 ^ ^ ^ ^ ^ ^ 5 ).!.^ ^ ^ ^ ^ ^ ^ r                           ",
"                            [ ^ ^ ^ ^ ^ ^ ^ 9 e v ^ ^ ^ ^ ^ ^ C   < ^ ^ ^ ^ ^ ^ ^ Y ~.^ ^ ^ ^ ^ ^ 5 .                           ",
"                              c ^ ^ ^ ^ ^ ^ c J ^ ^ ^ ^ ^ ^ ^ >   {.^ ^ ^ ^ ^ ^ ^ i ].^ ^ ^ ^ ^ ^ /                             ",
"                              9 ^ ^ ^ ^ ^ ^ ^ & ^ ^ ^ ^ ^ ^ 5 ).  ; 5 ^ ^ ^ ^ ^ ^ ^ ' ^ ^ ^ ^ ^ ^ 9                             ",
"                              t ^ ^ ^ ^ ^ ^ ^ ^ ^ ^ ^ ^ ^ ^ i       | ^ ^ ^ ^ ^ ^ ^ ^ ^ ^ ^ ^ ^ ^ #.                            ",
"                              q ^ ^ ^ ^ ^ ^ ^ ^ ^ ^ ^ ^ ^ ^ ^.      I ^ ^ ^ ^ ^ ^ ^ ^ ^ ^ ^ ^ ^ ^ q                             ",
"                              o ^ ^ ^ ^ ^ ^ ^ ^ ^ ^ ^ ^ ^ ^ /.      (.2 ^ ^ ^ ^ ^ ^ ^ ^ ^ ^ ^ ^ ^ I                             ",
"                              N ^ ^ ^ ^ ^ ^ ^ ^ ^ ^ ^ ^ ^ d           | ^ ^ ^ ^ ^ ^ ^ ^ ^ ^ ^ ^ ^ u                             ",
"                              s ^ ^ ^ ^ ^ ^ ^ ^ ^ ^ ^ ^ ^ k           I ^ ^ ^ ^ ^ ^ ^ ^ ^ ^ ^ ^ ^ _.                            ",
"                              p 5 ^ ^ ^ ^ ^ ^ ^ ^ ^ ^ ^ ^ :.          D 2 ^ ^ ^ ^ ^ ^ ^ ^ ^ ^ ^ ^ e                             ",
"                                g ^ ^ ^ ^ ^ ^ ^ ^ ^ ^ ^ n               % ^ ^ ^ ^ ^ ^ ^ ^ ^ ^ ^ c                               ",
"                                @.^ ^ ^ ^ ^ ^ ^ ^ ^ ^ ^ f               = ^ ^ ^ ^ ^ ^ ^ ^ ^ ^ ^ d                               ",
"                                <.^ ^ ^ ^ ^ ^ ^ ^ ^ ^ ^ Q               { 2 ^ ^ ^ ^ ^ ^ ^ ^ ^ ^ t                               ",
"                                } ^ ^ ^ ^ ^ ^ ^ ^ ^ ^ [.                  $ ^ ^ ^ ^ ^ ^ ^ ^ ^ ^ }.                              ",
"                                |.^ ^ ^ ^ ^ ^ ^ ^ ^ ^ 1.                  2.^ ^ ^ ^ ^ ^ ^ ^ ^ ^ w                               ",
"                                z ^ ^ ^ ^ ^ ^ ^ ^ ^ ^ 3.                  l ` ^ ^ ^ ^ ^ ^ ^ ^ ^ K                               ",
"                                +.^ ^ ^ ^ ^ ^ ^ ^ ^ ]                       S ^ ^ ^ ^ ^ ^ ^ ^ ^ b                               ",
"                                ~ ` ^ ^ ^ ^ ^ ^ ^ ^ 4.                      =.^ ^ ^ ^ ^ ^ ^ ^ ^ [                               ",
"                                  5.^ ^ ^ ^ ^ ^ ^ ^ 6.                      7.` ^ ^ ^ ^ ^ ^ ^ c                                 ",
"                                  % ^ ^ ^ ^ ^ ^ ^ V                           ' ^ ^ ^ ^ ^ ^ ^ d                                 ",
"                                                                                                                                ",
"                                                                                                                                ",
"                                                                                                                                ",
"                                                                                                                                ",
"                                                                                                                                "};
