/* XPM */
static char * matrix_xpm[] = {
"64 64 2 1",
" 	c #70DD99",
".	c #000000",
"                                                                ",
"............................................................... ",
"............................................................... ",
"............................................................... ",
"............................................................... ",
"............................................................... ",
"............................................................... ",
"............................................................... ",
"............................................................... ",
"............................................................... ",
"............................................................... ",
"............................................................... ",
"............................................................... ",
"............................................................... ",
"............................................................... ",
"............................................................... ",
"............................................................... ",
"............................................................... ",
"............................................................... ",
"............................................................... ",
"............................................................... ",
"............................................................... ",
"............................................................... ",
"............................................................... ",
"............................................................... ",
"............................................................... ",
"............................................................... ",
"............................................................... ",
"............................................................... ",
"............................................................... ",
"............................................................... ",
"............................................................... ",
"............................................................... ",
"............................................................... ",
"............................................................... ",
"............................................................... ",
"............................................................... ",
"............................................................... ",
"............................................................... ",
"............................................................... ",
"............................................................... ",
"............................................................... ",
"............................................................... ",
"............................................................... ",
"............................................................... ",
"............................................................... ",
"............................................................... ",
"............................................................... ",
"............................................................... ",
"............................................................... ",
"............................................................... ",
"............................................................... ",
"............................................................... ",
"............................................................... ",
"............................................................... ",
"............................................................... ",
"............................................................... ",
"............................................................... ",
"............................................................... ",
"............................................................... ",
"............................................................... ",
"............................................................... ",
"............................................................... ",
"                                                                "};
